<?xml version="1.0" standalone="no"?>
<!DOCTYPE svg PUBLIC "-//W3C//DTD SVG 1.1//EN" "http://www.w3.org/Graphics/SVG/1.1/DTD/svg11.dtd" >
<svg xmlns="http://www.w3.org/2000/svg">
<metadata></metadata>
<defs>
<font id="marineregular_italic" horiz-adv-x="1077" >
<font-face units-per-em="2048" ascent="1559" descent="-489" />
<missing-glyph horiz-adv-x="417" />
<glyph unicode="&#xfb01;" horiz-adv-x="1142" d="M80 891l16 137h197l8 72q17 124 79 207.5t153 121t208 37.5q153 0 283 -36l-53 -138q-130 31 -238 31q-110 0 -180 -54t-82 -163l-10 -78h604l-125 -1028h-168l109 891h-439l-153 -1256h-168l153 1256h-194z" />
<glyph unicode="&#xfb02;" horiz-adv-x="1265" d="M80 891l16 137h195l8 72q24 189 139 277.5t301 88.5q203 0 398 -69l-146 -1190q-12 -94 66 -94q61 0 149 24l-2 -129q-113 -35 -194 -35q-45 0 -79 10t-55 23.5t-34 36.5t-18.5 40.5t-6.5 45.5t0 40.5t4 35.5l133 1085q-109 31 -223 31q-240 0 -264 -215l-10 -78h297 l-17 -137h-295l-153 -1256h-166l153 1256h-196z" />
<glyph horiz-adv-x="0" />
<glyph horiz-adv-x="682" />
<glyph unicode=" "  horiz-adv-x="417" />
<glyph unicode="&#x09;" horiz-adv-x="417" />
<glyph unicode="&#xa0;" horiz-adv-x="417" />
<glyph unicode="!" horiz-adv-x="450" d="M47 0l27 225h219l-27 -225h-219zM127 377l106 1057h197l-154 -1057h-149z" />
<glyph unicode="&#x22;" horiz-adv-x="698" d="M180 985l27 449h174l-82 -449h-119zM502 985l28 449h172l-81 -449h-119z" />
<glyph unicode="#" horiz-adv-x="1181" d="M66 389l18 158h190l74 250h-225l20 157h254l123 414h158l-125 -414h229l125 414h154l-121 -414h201l-21 -157h-227l-74 -250h264l-18 -158h-291l-127 -418h-155l122 418h-225l-125 -418h-158l123 418h-163zM434 547h228l71 250h-223z" />
<glyph unicode="$" horiz-adv-x="1013" d="M45 88l66 166q64 -39 157.5 -66.5t180.5 -27.5q261 0 288 215q12 109 -65 164q-39 29 -74 46.5t-106 43.5q-180 67 -261 145q-78 78 -63 225q23 161 122.5 252.5t256.5 110.5l14 209h154l-37 -205q157 -9 283 -70l-52 -153q-147 78 -282 78q-249 0 -273 -195 q-12 -100 66 -158q39 -28 73.5 -44.5t102.5 -43.5q194 -77 270 -160.5t58 -224.5q-20 -166 -131.5 -264.5t-284.5 -122.5l-12 -203h-154l35 197q-181 6 -332 86z" />
<glyph unicode="%" horiz-adv-x="1705" d="M207 1036q27 217 106 293q84 78 224 78q138 0 198 -78q62 -77 35 -291q-27 -218 -108 -293q-78 -75 -222 -75q-143 0 -200 75q-60 79 -33 291zM342 0l895 1436h182l-895 -1436h-182zM350 1038q-19 -138 6.5 -196t100.5 -58q72 0 110.5 57.5t57.5 196.5q17 135 -8.5 195.5 t-98.5 60.5t-112 -59t-56 -197zM958 352q27 216 107 293q81 78 221 78q141 0 201 -78q60 -79 33 -291q-27 -216 -107 -293q-78 -75 -223 -75q-144 0 -201 75q-58 76 -31 291zM1102 354q-18 -136 7.5 -195t96.5 -59q72 0 110.5 57.5t57.5 196.5q17 138 -8 197t-98 59 q-70 0 -109.5 -60.5t-56.5 -195.5z" />
<glyph unicode="&#x26;" horiz-adv-x="1460" d="M86 369q18 152 114.5 256t278.5 190q-56 84 -75 147.5t-9 139.5q17 143 114.5 226t250.5 83q141 0 213 -70t59 -194q-8 -62 -33.5 -111.5t-78.5 -99.5q-63 -59 -91 -78q-9 -6 -45.5 -34t-64.5 -48l297 -379q158 184 207 424h166q-61 -303 -275 -549q50 -53 143 -122 q88 -63 146 -87l-86 -126q-64 24 -164 86q-101 66 -170 129q-211 -181 -481 -181q-218 0 -329.5 104.5t-86.5 293.5zM266 389q-17 -129 50.5 -196.5t215.5 -67.5q199 0 367 145l-342 428q-148 -69 -213.5 -135.5t-77.5 -173.5zM563 1112q-9 -103 72 -227q106 73 158 132 t59 130q18 133 -115 133q-71 0 -118.5 -48t-55.5 -120z" />
<glyph unicode="'" horiz-adv-x="382" d="M176 942l33 492h174l-88 -492h-119z" />
<glyph unicode="(" horiz-adv-x="577" d="M147 633q55 448 422 909l121 -88q-310 -421 -360 -821q-49 -398 157 -821l-141 -88q-255 457 -199 909z" />
<glyph unicode=")" horiz-adv-x="575" d="M-43 -188q309 424 358 821t-155 821l141 88q252 -461 197 -909q-56 -448 -420 -909z" />
<glyph unicode="*" horiz-adv-x="776" d="M139 1014l213 86l-190 86l92 141l152 -137l10 229h153l-45 -229l183 137l63 -141l-213 -82l191 -92l-99 -135l-149 135l-11 -230h-153l47 234l-182 -139z" />
<glyph unicode="+" horiz-adv-x="929" d="M74 489l20 162h301l37 312h158l-37 -312h303l-20 -162h-304l-38 -315h-158l39 315h-301z" />
<glyph unicode="," horiz-adv-x="436" d="M-119 -262q187 196 205 352q6 72 -16 148h188q16 -58 10 -117q-27 -214 -223 -383h-164z" />
<glyph unicode="-" horiz-adv-x="1011" d="M115 489l20 162h762l-20 -162h-762z" />
<glyph unicode="." horiz-adv-x="430" d="M35 0l26 225h220l-27 -225h-219z" />
<glyph unicode="/" horiz-adv-x="849" d="M-45 -78l823 1532l137 -53l-817 -1532z" />
<glyph unicode="0" horiz-adv-x="1126" d="M104.5 393q-6.5 121 16.5 285q50 406 178 561q131 158 379 158q246 0 332 -154q87 -155 37 -557q-50 -398 -185 -557q-134 -158 -373 -158q-93 0 -159.5 20.5t-118.5 69.5t-76 130t-30.5 202zM303 684q-41 -331 2 -446q43 -117 209 -117t236 117q72 119 112 446 q40 320 -10 442q-46 123 -197 123q-158 0 -235 -121q-76 -120 -117 -444z" />
<glyph unicode="1" horiz-adv-x="702" d="M109 1223l415 155h129l-168 -1378h-172l146 1192l-328 -100z" />
<glyph unicode="2" horiz-adv-x="1034" d="M-14 0l16 145l176 138l131 100l127 104q75 63 125 117q87 91 149 191.5t66 187.5q34 252 -213 252q-140 0 -340 -78l-16 141q181 93 385 93q187 0 285.5 -102t74.5 -304q-27 -223 -254 -453q-191 -191 -440 -372h653l-18 -160h-907z" />
<glyph unicode="3" horiz-adv-x="968" d="M4 39l47 156q143 -70 285 -70q140 0 231.5 71t108.5 212q14 122 -65 191t-238 69h-121l16 135q214 1 314 62.5t118 189.5q12 101 -41 148.5t-157 47.5q-149 0 -307 -67l-9 135q155 76 342 76q166 0 269 -80q101 -76 80 -250q-24 -222 -218 -311q234 -83 199 -342 q-18 -153 -100 -254q-76 -99 -182 -142t-246 -43q-166 0 -326 66z" />
<glyph unicode="4" horiz-adv-x="1124" d="M25 375l14 110l731 883h166l-105 -850h234l-18 -143h-234l-45 -375h-172l45 375h-616zM258 518h401l70 567z" />
<glyph unicode="5" horiz-adv-x="991" d="M8 47l68 156q155 -76 291 -76q303 0 344 324q17 129 -43.5 195.5t-175.5 66.5q-106 0 -248 -68l-97 53l84 670h695l-19 -147h-524l-49 -387q108 30 215 30q171 0 272 -96q99 -95 72 -307q-35 -263 -176 -375q-143 -113 -346 -113q-206 0 -363 74z" />
<glyph unicode="6" horiz-adv-x="1048" d="M141 590q40 330 213 567q176 238 443 238q107 0 217 -39l-41 -139q-80 30 -158 30q-161 0 -280 -119q-122 -122 -170 -311q145 68 299 68q170 0 264 -101q96 -103 69 -309q-27 -229 -145 -364q-122 -140 -354 -140q-222 0 -310 138q-88 137 -47 481zM310.5 428 q-1.5 -91 9.5 -152t39 -95.5t67 -48t98 -13.5q135 0 205 88.5t94 267.5q17 129 -37 190.5t-163 61.5q-140 0 -295 -76q-16 -132 -17.5 -223z" />
<glyph unicode="7" horiz-adv-x="929" d="M125 1210l20 158h848l-16 -123q-158 -241 -260 -405q-95 -157 -215 -400q-118 -238 -178 -440h-183q37 168 226 541q183 362 403 669h-645z" />
<glyph unicode="8" d="M86 362q13 116 94.5 217t200.5 158q-172 120 -148 318q20 165 135 253.5t302 88.5q188 0 277.5 -82.5t70.5 -235.5q-27 -222 -266 -340q132 -57 190 -145.5t41 -224.5q-21 -169 -141 -283q-121 -115 -346 -115q-229 0 -331.5 101.5t-78.5 289.5zM262 362 q-15 -121 46 -182t198 -61q275 0 305 254q11 100 -59 163t-244 134q-219 -112 -246 -308zM397 1071q-24 -183 213 -272q106 46 170 119t72 147q12 95 -38.5 141.5t-158.5 46.5t-177 -46t-81 -136z" />
<glyph unicode="9" horiz-adv-x="1052" d="M117 10l39 140q85 -31 161 -31q157 0 277 117.5t172 312.5q-145 -68 -299 -68q-170 0 -264 101q-97 104 -70 309q27 227 146 364q122 140 354 140q219 0 309 -140q89 -139 49 -479q-19 -157 -71 -298.5t-133 -256t-198.5 -182.5t-254.5 -68q-107 0 -217 39zM307 891 q-17 -128 38 -190t163 -62q146 0 295 76q16 131 17.5 222.5t-9.5 152.5t-39.5 95.5t-67.5 48t-98 13.5q-135 0 -205 -88.5t-94 -267.5z" />
<glyph unicode=":" horiz-adv-x="495" d="M68 0l26 225h219l-26 -225h-219zM141 614l29 226h219l-29 -226h-219z" />
<glyph unicode=";" horiz-adv-x="499" d="M-78 -260q185 197 203 352q8 60 -14 148h188q16 -58 10 -117q-27 -215 -225 -383h-162zM141 614l29 226h219l-29 -226h-219z" />
<glyph unicode="&#x3c;" horiz-adv-x="868" d="M72 563l18 144l721 350l-23 -174l-505 -246l446 -250l-22 -172z" />
<glyph unicode="=" horiz-adv-x="921" d="M94 328l21 164h671l-20 -164h-672zM143 723l21 162h672l-21 -162h-672z" />
<glyph unicode="&#x3e;" horiz-adv-x="868" d="M72 215l22 172l508 250l-448 246l22 174l635 -350l-18 -144z" />
<glyph unicode="?" horiz-adv-x="673" d="M41 0l27 225h219l-27 -225h-219zM106 340q9 123 15 147q17 90 72.5 170.5t119.5 130.5q67 50 118.5 108.5t64.5 111.5q26 106 -58.5 168.5t-261.5 80.5l53 158q227 -9 355 -119q128 -109 88 -284q-12 -54 -37 -99.5t-56.5 -78.5t-67.5 -63.5t-71.5 -61.5t-67 -65 t-56.5 -81t-37 -102l-19 -121h-154z" />
<glyph unicode="@" horiz-adv-x="1511" d="M133 600q44 348 275 569q233 224 557 224q298 0 435.5 -166t100.5 -461q-59 -510 -397 -510q-144 0 -178 123q-38 -57 -101 -91t-129 -34q-129 0 -196.5 84.5t-48.5 232.5q27 210 157 340q131 131 307 131q119 0 248 -63l-88 -416l-10 -67q-12 -107 72 -107 q157 0 204 379q55 481 -401 481q-243 0 -422 -176q-176 -176 -213 -463q-34 -270 88 -417q123 -144 334 -144q201 0 438 111l39 -129q-301 -133 -512 -133q-274 0 -438 182q-162 180 -121 520zM618 588q-24 -203 113 -203q65 0 115 56t69 145l64 317q-35 12 -76 12 q-106 0 -188 -94q-82 -95 -97 -233z" />
<glyph unicode="A" horiz-adv-x="1202" d="M-53 0l649 1368h205l315 -1368h-182l-80 358h-559l-166 -358h-182zM362 508h457l-145 674z" />
<glyph unicode="B" horiz-adv-x="1150" d="M90 20l162 1326q214 34 383 34q72 0 131 -9.5t113.5 -34t89.5 -62.5t51 -100q10 -38 10 -83q0 -28 -4 -59q-11 -94 -64.5 -174.5t-130.5 -112.5q118 -35 171 -127q40 -70 40 -166q0 -30 -4 -63q-11 -93 -51 -166t-96.5 -118.5t-132.5 -75t-153.5 -41t-164.5 -11.5 q-171 0 -350 43zM279 143q110 -22 204 -22q158 0 258.5 66t118.5 208q2 21 2 40q0 45 -13 81q-19 52 -63 82.5t-106 45.5t-143 15h-195zM360 811h252q100 6 163 62.5t75 148.5q2 20 2 38q0 86 -51 128q-62 50 -191 49.5t-198 -14.5z" />
<glyph unicode="C" horiz-adv-x="1103" d="M127 460q-1 27 -1 56q0 84 9 176q24 198 89.5 342.5t160.5 220.5q183 142 416 142q199 0 338 -80l-60 -148q-133 74 -291 74q-189 0 -309 -123q-117 -120 -155 -426q-12 -99 -12 -179q0 -179 61 -267q89 -127 295 -127q119 0 301 33v-144q-157 -39 -336 -39 q-127 0 -223 36t-153.5 100.5t-91.5 154.5t-38 198z" />
<glyph unicode="D" horiz-adv-x="1288" d="M88 12l166 1344q209 26 369 26q79 0 144.5 -7.5t126.5 -24.5t107 -44.5t86 -67.5t64 -93t40 -122q15 -65 15 -144v-9q-1 -84 -12 -188q-20 -163 -70.5 -287t-119.5 -202.5t-162 -127.5t-190.5 -68.5t-213.5 -19.5q-119 0 -350 35zM281 150q100 -19 182 -19q227 0 368 136 t177 417q8 71 8 133q0 186 -72 287q-96 135 -334 135q-88 0 -196 -12z" />
<glyph unicode="E" horiz-adv-x="1062" d="M88 0l168 1368h780l-20 -151h-606l-54 -437h574l-19 -151h-573l-57 -477h628l-18 -152h-803z" />
<glyph unicode="F" horiz-adv-x="1017" d="M88 0l168 1368h780l-20 -151h-606l-54 -437h572l-19 -151h-571l-76 -629h-174z" />
<glyph unicode="G" horiz-adv-x="1206" d="M162 686q21 163 71.5 289t116.5 204t152 128.5t170.5 70t179.5 19.5q212 0 346 -88l-59 -150q-134 84 -310 84t-309 -127q-132 -126 -170 -422q-9 -76 -9 -143q0 -424 388 -424q94 0 203 25l59 487h162l-74 -596q-213 -70 -389 -70q-277 0 -426 168q-113 128 -113 376 q0 79 11 169z" />
<glyph unicode="H" horiz-adv-x="1290" d="M88 0l168 1368h174l-74 -588h629l74 588h174l-168 -1368h-174l76 629h-629l-76 -629h-174z" />
<glyph unicode="I" horiz-adv-x="489" d="M88 0l168 1368h174l-168 -1368h-174z" />
<glyph unicode="J" horiz-adv-x="497" d="M-188 -309l24 133q99 -6 119 -6q61 0 95.5 34t45.5 121l172 1395h174l-172 -1393q-37 -303 -311 -303q-60 0 -147 19z" />
<glyph unicode="K" horiz-adv-x="1220" d="M88 0l168 1368h174l-76 -606h119l528 604h218l-613 -674l516 -692h-231l-438 610h-117l-74 -610h-174z" />
<glyph unicode="L" horiz-adv-x="933" d="M88 0l168 1368h174l-149 -1216h563l-19 -152h-737z" />
<glyph unicode="M" horiz-adv-x="1628" d="M59 0l228 1368h223l289 -965l522 965h217l-108 -1368h-175l97 1104l-506 -901h-154l-282 901l-177 -1104h-174z" />
<glyph unicode="N" horiz-adv-x="1380" d="M88 0l168 1368h195l559 -1087l135 1087h178l-168 -1368h-197l-563 1087l-133 -1087h-174z" />
<glyph unicode="O" horiz-adv-x="1306" d="M102 524q4 73 15 160q83 713 641 713q94 0 168.5 -20t126.5 -54.5t89 -86.5t57.5 -111t28.5 -133q7 -60 7 -120v-28q-2 -74 -12 -160q-37 -307 -172 -498q-73 -104 -193.5 -159.5t-279.5 -55.5q-98 0 -175 19.5t-129.5 54t-88.5 87t-54.5 111t-24.5 133.5q-4 49 -5 97 q0 25 1 51zM287 393q11 -131 89.5 -205.5t221.5 -74.5q213 0 311 149q99 149 133 422q10 111 10 200q0 50 -3 93q-8 132 -87 207.5t-223 75.5q-218 0 -323 -168q-86 -142 -121 -408q-11 -117 -11 -208q0 -45 3 -83z" />
<glyph unicode="P" horiz-adv-x="1103" d="M88 0l166 1352q159 30 352 30q184 0 297 -43q195 -68 196 -296q0 -34 -5 -72q-30 -234 -193 -336q-156 -100 -387 -100q-100 0 -182 18l-68 -553h-176zM348 692q82 -16 172 -16q358 0 393 285q4 31 4 59q0 130 -86 174q-49 28 -103.5 38.5t-137.5 10.5q-113 0 -176 -14z " />
<glyph unicode="Q" horiz-adv-x="1306" d="M109 518q3 72 14 158q19 158 59.5 277.5t110.5 220.5q153 217 475 217q109 0 192.5 -25.5t137.5 -74.5t88.5 -112.5t47.5 -146.5q14 -81 14 -163v-7q-1 -85 -13 -186q-19 -158 -64 -281q-45 -131 -138.5 -234.5t-215.5 -140.5q327 -62 490 -155l-123 -139q-50 36 -66 45 q-45 28 -203 92q-150 61 -352 100q-94 3 -167.5 24.5t-123.5 56.5t-84 87t-52 110t-24 132q-4 49 -4 98q0 24 1 47zM291 519v-31q0 -54 5 -107q7 -68 29 -118t57.5 -88.5t92 -58.5t131.5 -20q224 0 326 168q90 153 123 412q13 106 13 188l1 5q0 78 -15 153q-16 77 -51 126.5 t-99 79.5q-61 29 -148 29h-6q-205 0 -307.5 -144t-139.5 -437q-10 -87 -12 -157z" />
<glyph unicode="R" horiz-adv-x="1150" d="M88 0l166 1354q194 28 342 28q184 0 297 -43q193 -65 192 -293q0 -35 -4 -73q-23 -169 -116.5 -273t-245.5 -143l321 -557h-213l-299 530h-28q-93 0 -170 15l-66 -545h-176zM348 688q88 -18 174 -18q54 0 102.5 8.5t96.5 29.5t84 53.5t62 84t34 117.5q4 32 4 60 q0 117 -71 161q-86 57 -254 57q-83 0 -166 -12z" />
<glyph unicode="S" horiz-adv-x="1024" d="M14 61l60 164q65 -39 165.5 -67.5t190.5 -28.5q130 0 211 56t94 173q2 18 2 35q0 91 -69 139q-68 52 -193 97q-187 71 -270 153q-67 67 -67 180q0 25 3 52q24 198 156 286q134 93 321 93q198 0 343 -74l-52 -152q-148 80 -295 80q-121 0 -196.5 -51t-87.5 -156 q-2 -15 -2 -30q0 -76 50 -122q58 -55 206 -110q99 -38 164 -75.5t109 -84.5t59 -105q9 -36 9 -80q0 -26 -3 -54q-24 -203 -177 -307q-150 -99 -360 -99q-208 0 -371 88z" />
<glyph unicode="T" horiz-adv-x="1019" d="M113 1217l20 151h948l-20 -151h-387l-148 -1217h-170l148 1217h-391z" />
<glyph unicode="U" horiz-adv-x="1277" d="M172 498l109 870h174l-105 -840q-8 -67 -9 -122q1 -122 41 -187q58 -94 236.5 -94t258.5 92q79 94 106 311l104 840h173l-109 -870q-32 -272 -164.5 -399t-390.5 -128q-250 1 -353 129q-79 98 -79 278q0 56 8 120z" />
<glyph unicode="V" horiz-adv-x="1159" d="M113 1368h196l230 -1145l520 1145h186l-635 -1368h-194z" />
<glyph unicode="W" horiz-adv-x="1652" d="M172 0l10 1368h183l-35 -1128l491 1024h172l248 -1022l244 1126h182l-330 -1368h-215l-241 1028l-486 -1028h-223z" />
<glyph unicode="X" horiz-adv-x="1214" d="M-35 0l549 696l-356 672h200l281 -526l408 526h204l-528 -657l387 -711h-217l-291 557l-432 -557h-205z" />
<glyph unicode="Y" horiz-adv-x="1097" d="M104 1368h199l272 -627l426 627h187l-551 -805l-68 -563h-178l68 563z" />
<glyph unicode="Z" horiz-adv-x="1105" d="M23 0v127l835 1090h-674l-2 151h885l-2 -135l-827 -1081h745l-18 -152h-942z" />
<glyph unicode="[" horiz-adv-x="602" d="M37 -289l229 1858h396l-19 -146l-227 -12l-189 -1542l224 -14l-19 -144h-395z" />
<glyph unicode="\" horiz-adv-x="776" d="M147 1491l156 55l359 -1622l-158 -53z" />
<glyph unicode="]" horiz-adv-x="602" d="M-43 -289l18 146l228 12l188 1540l-223 14l16 144h396l-228 -1856h-395z" />
<glyph unicode="^" horiz-adv-x="976" d="M84 608l426 705h139l250 -705h-170l-176 504l-299 -504h-170z" />
<glyph unicode="_" horiz-adv-x="1095" d="M55 0l19 152h846l-19 -152h-846z" />
<glyph unicode="`" horiz-adv-x="706" d="M264 1395l113 149l287 -250l-86 -112z" />
<glyph unicode="a" horiz-adv-x="1038" d="M111 502q38 305 200 430q146 112 355 112q171 0 331 -59l-94 -754q-4 -69 -4 -124q0 -67 6 -113h-160l-10 84q-119 -96 -278 -96q-196 0 -287 131q-67 97 -67 263q0 59 8 126zM283 489q-7 -55 -7 -103q0 -107 37 -174q54 -97 185 -97q124 0 233 71l84 697q-83 22 -158 22 q-324 0 -374 -416z" />
<glyph unicode="b" horiz-adv-x="1073" d="M66 41l170 1393h163l-53 -443q133 62 275 62q195 0 291 -132q72 -100 73 -271q0 -55 -8 -118q-12 -92 -35.5 -170.5t-66.5 -152t-102.5 -125t-147 -82.5t-195.5 -31q-212 0 -364 70zM244 154q78 -35 211 -35q152 0 238 109t110 302q7 55 7 102q0 271 -230 271 q-118 0 -252 -57z" />
<glyph unicode="c" horiz-adv-x="921" d="M113 512q35 278 180 408q148 133 356 133q165 0 269 -70l-52 -135q-99 51 -213 51q-149 0 -242.5 -97.5t-117.5 -289.5q-6 -52 -7 -96q0 -128 54 -202q72 -99 213 -99q125 0 256 49l8 -135q-162 -58 -287 -58q-210 0 -331 133q-94 105 -94 294q0 54 8 114z" />
<glyph unicode="d" horiz-adv-x="1073" d="M115 471q70 580 518 580q151 0 241 -33l54 440h166l-152 -1227q-6 -78 -6 -137.5t6 -99.5h-156l-10 72q-119 -82 -313 -82q-177 0 -279 120q-76 90 -76 258q0 51 7 109zM295 473q-6 -46 -6 -87q-1 -114 47 -183q64 -94 196 -94q117 0 238 65l86 707q-71 32 -207 32 q-301 0 -354 -440z" />
<glyph unicode="e" horiz-adv-x="999" d="M117 502q27 238 184 389t393 151q144 0 214 -80q59 -67 59 -166q0 -20 -2 -40q-21 -174 -174 -267q-151 -92 -340 -92q-93 0 -170 23v-19q0 -280 262 -280q114 0 288 59l5 -143q-183 -60 -322 -60q-216 0 -322 131q-82 101 -82 282q0 52 7 112zM301 545q61 -25 145 -25 q121 0 226 60q99 57 114 172q1 12 1 23q-1 55 -29 88q-34 40 -101 40q-143 0 -235 -108q-92 -113 -121 -250z" />
<glyph unicode="f" horiz-adv-x="681" d="M80 891l16 137h195l10 82q24 193 120 281t261 88q134 0 227 -43l-30 -133q-82 32 -191 32q-192 0 -219 -219l-10 -88h295l-17 -137h-295l-153 -1256h-168l153 1256h-194z" />
<glyph unicode="g" horiz-adv-x="1064" d="M27 -406l36 150q177 -59 340 -59q124 0 195 65t90 219l4 47q-101 -49 -217 -49q-84 0 -149.5 16t-109.5 44t-74 70t-45.5 88t-21.5 106q-4 42 -4 83q0 17 1 33q2 56 10 125q65 515 549 515q191 0 356 -62l-127 -1024q-52 -426 -487 -426q-157 0 -346 59zM256 530 q-8 -63 -8 -116q0 -310 258 -310q116 0 203 41l90 736q-94 24 -176 24q-321 0 -367 -375z" />
<glyph unicode="h" horiz-adv-x="1058" d="M66 0l174 1434h166l-54 -441q160 62 299 62q159 0 238 -86q62 -67 62 -191q0 -34 -5 -73l-86 -705h-166l82 672q3 27 3 51q0 182 -179 182q-150 0 -266 -61l-103 -844h-165z" />
<glyph unicode="i" horiz-adv-x="382" d="M39 0l125 1028h166l-125 -1028h-166zM188 1231l27 213h166l-27 -213h-166z" />
<glyph unicode="j" horiz-adv-x="423" d="M-262 -385l41 131q67 -20 141 -20q116 0 131 131l144 1171h163l-143 -1163q-35 -287 -311 -287q-82 0 -166 37zM219 1231l27 213h164l-27 -213h-164z" />
<glyph unicode="k" horiz-adv-x="1009" d="M78 0l172 1413l170 23l-103 -820q34 -3 66 -3q159 0 257 82q118 99 161 333h149q-38 -319 -297 -481l267 -547h-203l-219 489q-61 -15 -145 -15q-25 0 -52 1l-57 -475h-166z" />
<glyph unicode="l" horiz-adv-x="546" d="M106 205l150 1229h170l-147 -1217q-1 -10 -2 -19q0 -81 98 -81q47 0 100 16l6 -125q-107 -37 -192 -37q-113 0 -155 56q-31 42 -32 121q0 26 4 57z" />
<glyph unicode="m" horiz-adv-x="1662" d="M66 0l114 946q257 109 459 109q176 0 248 -90q191 90 358 90q175 0 252 -78q59 -59 59 -183q0 -38 -6 -83l-86 -711h-166l82 680q5 36 5 65q0 77 -33 113q-45 48 -160 49q-130 0 -250 -57q4 -25 4.5 -59.5t-4.5 -79.5l-86 -711h-164l82 680q5 35 5 65q1 79 -33 113 q-46 48 -162 49q-142 0 -250 -57l-103 -850h-165z" />
<glyph unicode="n" d="M66 0l114 946q251 109 473 109q174 0 254 -74q63 -56 64 -191q0 -39 -6 -85l-86 -705h-166l82 674q5 36 5 66q0 79 -33 117q-45 52 -151 52q-149 0 -280 -55l-105 -854h-165z" />
<glyph unicode="o" d="M121 512q34 281 164.5 411t355.5 130q224 1 316 -127q67 -92 66 -267q0 -66 -9 -145q-68 -543 -516 -543q-234 -1 -324 125q-64 90 -63 263q0 70 10 153zM295 512q-8 -68 -8 -124q0 -119 37 -183q55 -94 194 -94q128 0 212.5 98.5t109.5 302.5q9 77 9 138q0 123 -38 177 q-59 86 -193 86q-125 0 -210 -88q-87 -90 -113 -313z" />
<glyph unicode="p" horiz-adv-x="1079" d="M10 -449l172 1416q245 80 439 80q198 0 297 -117q74 -85 74 -263q0 -62 -9 -135q-26 -237 -147 -397q-62 -83 -165 -128.5t-235 -45.5q-94 0 -207 39l-55 -449h-164zM248 152q85 -43 211 -43q154 0 240 111.5t110 309.5q7 60 7 111q0 117 -40 179q-59 89 -194 89 q-118 0 -246 -41z" />
<glyph unicode="q" horiz-adv-x="1079" d="M93 375q-1 18 -1 36q0 49 8 99q77 545 549 545q191 0 365 -86l-174 -1418l-166 17l53 434q-113 -39 -219 -39q-90 0 -161 21.5t-116.5 59.5t-77.5 90.5t-44 113t-16 127.5zM274 506q-6 -46 -6 -88q0 -111 41 -195q57 -112 213 -112q129 0 219 43l88 723q-84 34 -200 34 q-153 0 -242 -107.5t-113 -297.5z" />
<glyph unicode="r" horiz-adv-x="669" d="M66 0l124 1028h146l2 -98q107 110 278 110q44 0 89 -10l-39 -153q-53 12 -107 12q-147 0 -227 -62l-101 -827h-165z" />
<glyph unicode="s" horiz-adv-x="827" d="M8 45l51 154q134 -70 267 -70q96 0 156.5 40.5t66.5 102.5q1 9 1 17q0 105 -153 160q-123 45 -171 76q-108 69 -108 187q0 20 3 40q15 150 127 227q116 78 260 78t260 -70l-45 -141q-101 61 -223 61q-89 0 -146 -35t-67 -106q-1 -8 -1 -16q0 -99 154 -154 q128 -45 178 -77q106 -68 106 -183q0 -19 -3 -39q-15 -134 -127 -229q-109 -95 -293 -95q-87 0 -169 20.5t-124 51.5z" />
<glyph unicode="t" horiz-adv-x="696" d="M72 891l16 137h135l35 283h170l-35 -283h330l-43 -137h-305l-80 -647q-1 -36 -2 -64t21 -45.5t73 -17.5q86 0 176 33l10 -130q-113 -40 -208 -40q-161 0 -207 61q-34 47 -34 143q0 37 5 80l78 627h-135z" />
<glyph unicode="u" horiz-adv-x="1064" d="M129 340l84 688h166l-84 -678q-2 -22 -2 -42q0 -86 46 -136q57 -60 165 -61q128 0 231 71l105 846h166l-101 -823q-4 -62 -4 -111q0 -60 6 -102h-162l-12 80q-119 -101 -301 -101q-162 0 -244 93q-65 73 -64 200q0 36 5 76z" />
<glyph unicode="v" horiz-adv-x="1007" d="M109 307l88 721h170l-80 -653q-8 -46 -8 -88q1 -7 1 -13q2 -48 14 -83.5t52.5 -56.5t108.5 -21q141 0 219 118q83 121 104 299q7 55 7 110q0 82 -15 164q-25 138 -82 224h186q83 -142 83 -339q0 -63 -9 -132q-12 -92 -36 -174.5t-67 -159t-101 -131.5t-141 -88t-183 -33 q-188 -1 -261 77q-56 59 -56 178q0 38 6 81z" />
<glyph unicode="w" horiz-adv-x="1486" d="M106 307l89 721h170l-80 -653q-5 -42 -7 -69t0 -60.5t11.5 -54.5t26.5 -40.5t47 -29t71 -10.5q81 5 141.5 61t71.5 156l86 700h172l-80 -653q-9 -77 -9 -124q0 -30 4 -48q16 -81 106 -89q11 -1 24 -1q136 0 211 118q82 124 103 299q6 52 6 104q0 84 -15 169 q-21 137 -75 225h182q74 -147 74 -334q0 -66 -9 -137q-30 -248 -153 -418q-122 -168 -338 -168q-208 0 -258 121q-121 -121 -281 -121q-174 0 -244 79q-53 59 -53 175q0 38 6 82z" />
<glyph unicode="x" horiz-adv-x="1024" d="M-37 0l461 551l-289 477h197l200 -352l289 352h193l-408 -479l314 -549h-193l-231 418l-334 -418h-199z" />
<glyph unicode="y" horiz-adv-x="1046" d="M23 -403l38 147q165 -59 338 -59q125 0 196.5 65t90.5 219l4 37q-110 -45 -196 -45q-251 0 -338 152q-62 112 -62 283q0 68 10 145q34 278 175 487h180q-64 -79 -117 -215q-53 -133 -68 -268q-9 -70 -9 -130q0 -317 253 -317q100 0 191 39l108 891h166l-131 -1067 q-52 -426 -481 -426q-153 0 -348 62z" />
<glyph unicode="z" horiz-adv-x="894" d="M10 127l633 762h-487v141h684v-129l-627 -749h100q288 0 465 -113l-71 -148q-108 54 -215 80q-113 28 -173 31q-86 4 -178 4h-127z" />
<glyph unicode="{" horiz-adv-x="747" d="M61 573l17 136h53q88 9 109 190l55 332q27 151 129 242q104 94 233 94h154l-16 -144h-172q-75 -9 -121 -73q-45 -62 -51 -123l-41 -281q-27 -234 -121 -307q77 -56 43 -328l-27 -266q-6 -55 23 -123q31 -66 102 -72h158l-19 -137h-139q-137 0 -214.5 90t-65.5 236l24 326 q18 94 4.5 150.5t-59.5 57.5h-58z" />
<glyph unicode="|" horiz-adv-x="458" d="M66 -90l188 1528h164l-189 -1528h-163z" />
<glyph unicode="}" horiz-adv-x="745" d="M-37 -287l19 137h157q69 6 117 72q45 62 51 123l39 266q41 277 127 328q-73 70 -49 307l29 281q3 25 -2 54.5t-17 60.5t-38.5 54t-63.5 27h-172l16 144h154q128 0 207 -94q82 -91 73 -242l-26 -332q-21 -181 61 -190h55l-16 -136h-57q-46 -1 -70.5 -51t-38.5 -157 l-53 -326q-25 -149 -125 -236q-104 -90 -238 -90h-139z" />
<glyph unicode="~" horiz-adv-x="1157" d="M96 541q137 198 287 198q107 0 244 -73q134 -64 190 -64q53 0 152 117l98 -92q-138 -199 -289 -199q-90 0 -231 72q-124 65 -201 65q-57 0 -151 -116z" />
<glyph horiz-adv-x="0" />
<glyph unicode="&#xa1;" horiz-adv-x="436" d="M6 -367l152 1057h151l-106 -1057h-197zM143 838l27 225h219l-27 -225h-219z" />
<glyph unicode="&#xa2;" horiz-adv-x="935" d="M125 692q30 244 153.5 380t313.5 157l16 205h162l-31 -207q113 -14 191 -64l-51 -135q-99 51 -213 51q-149 0 -243 -97.5t-118 -289.5q-25 -199 46.5 -298t213.5 -99q125 0 256 49l8 -135q-123 -43 -221 -55l-16 -201h-162l33 205q-185 26 -276.5 161.5t-61.5 372.5z" />
<glyph unicode="&#xa3;" horiz-adv-x="1044" d="M68 0l16 143q85 42 141 133.5t68 202.5q15 111 -12 176h-193l16 133h144q-27 126 -15 226q21 192 156 289q134 96 318 96q153 0 294 -66l-34 -139q-111 63 -252 63q-124 0 -206 -58.5t-95 -172.5q-13 -106 20 -238h285l-6 -133h-250q14 -81 4 -184q-21 -163 -141 -319 h602l-19 -152h-841z" />
<glyph unicode="&#xa4;" horiz-adv-x="1050" d="M16 47l179 203q-73 104 -58 262q21 158 135 272l-125 193l115 84l123 -195q93 43 193 43q88 0 159 -39l168 191l94 -84l-159 -182q99 -114 78 -283q-21 -158 -140 -274l119 -191l-115 -84l-118 197q-79 -43 -185 -43t-188 49l-180 -203zM285 512q-12 -109 48 -181.5 t165 -72.5q104 0 182 72q78 75 90 182q15 107 -45 182q-58 76 -164 76q-105 0 -183.5 -74.5t-92.5 -183.5z" />
<glyph unicode="&#xa5;" horiz-adv-x="1181" d="M125 256l16 131h324l14 119h-323l16 131h281l-322 731h199l270 -627l428 627h184l-499 -731h315l-16 -131h-355l-14 -119h354l-16 -131h-354l-31 -256h-178l31 256h-324z" />
<glyph unicode="&#xa6;" horiz-adv-x="466" d="M68 -92l71 590h168l-71 -590h-168zM182 840l72 581h168l-72 -581h-168z" />
<glyph unicode="&#xa7;" horiz-adv-x="729" d="M100 449q-40 156 45 294q50 84 164 142l-14 43q-14 70 -8 135q30 246 284 334q59 19 95 26l16 -143l-68 -20q-151 -53 -163 -175q-6 -41 8 -84q24 -88 112 -251q89 -164 115 -244v2q20 -72 8 -151.5t-53 -145.5q-53 -84 -162 -141l13 -43v2q20 -73 8 -149.5t-51 -143.5 q-72 -117 -236 -176q-53 -21 -90 -27l-19 141l68 21q98 32 141 103.5t17 156.5q-26 92 -115 254q-90 165 -115 240zM262 526q11 -50 37 -106q21 -47 70 -133l57 -101q67 34 93 102t5 142q-19 76 -162 338q-67 -36 -94 -103.5t-6 -138.5z" />
<glyph unicode="&#xa8;" horiz-adv-x="645" d="M139 1231l27 213h166l-27 -213h-166zM500 1231l26 213h164l-26 -213h-164z" />
<glyph unicode="&#xa9;" horiz-adv-x="1454" d="M131 618q35 275 240 465q209 191 475 191q267 0 426 -191q164 -191 129 -465q-35 -275 -242 -464q-209 -191 -475 -191q-267 0 -426 191q-161 193 -127 464zM274 614q-27 -224 93 -374q124 -148 333 -148q211 0 367 150q159 153 186 376q27 226 -94 371 q-121 148 -330 148q-214 0 -370 -150q-158 -149 -185 -373zM420 610q24 201 141 303q120 105 268 105q100 0 213 -43l-45 -125q-85 33 -182 33q-89 0 -149.5 -68t-77.5 -205q-17 -138 30.5 -206t143.5 -68q89 0 196 43l9 -125q-137 -49 -226 -49q-168 0 -256.5 103.5 t-64.5 301.5z" />
<glyph unicode="&#xaa;" horiz-adv-x="669" d="M154 971q12 91 77.5 138.5t165.5 47.5q55 0 117 -16l8 61q9 107 -92 107q-94 0 -176 -27l-12 111q113 45 235 45q121 0 166 -54.5t31 -179.5l-47 -370q-115 -50 -260 -50q-109 0 -167 46t-46 141zM305 973q-5 -43 20.5 -64.5t80.5 -21.5q47 0 77 12l21 156q-33 8 -68 8 q-122 0 -131 -90z" />
<glyph unicode="&#xab;" horiz-adv-x="1058" d="M94 582l12 98l383 369l105 -103l-336 -315l260 -314l-131 -104zM510 582l12 98l385 369l103 -103l-332 -315l256 -314l-129 -104z" />
<glyph unicode="&#xac;" horiz-adv-x="1011" d="M127 723l20 162h773l-52 -402h-157l30 240h-614z" />
<glyph unicode="&#xad;" horiz-adv-x="851" d="M115 489l20 162h602l-20 -162h-602z" />
<glyph unicode="&#xae;" horiz-adv-x="1454" d="M131 618q35 275 240 465q209 191 475 191q267 0 426 -191q164 -191 129 -465q-35 -275 -242 -464q-209 -191 -475 -191q-267 0 -426 191q-161 193 -127 464zM274 614q-27 -224 93 -374q124 -148 333 -148q211 0 367 150q159 153 186 376q27 226 -94 371 q-121 148 -330 148q-214 0 -370 -150q-158 -149 -185 -373zM471 240l92 755q153 17 203 17q131 0 205 -39q88 -46 73 -195q-21 -179 -196 -231l180 -307h-143l-166 288h-8q-52 0 -80 7l-37 -295h-123zM641 631q37 -6 86 -6q175 0 193 149q10 80 -32 110.5t-134 30.5 q-46 0 -78 -4z" />
<glyph unicode="&#xaf;" horiz-adv-x="1146" d="M203 1210l20 162h897l-20 -162h-897z" />
<glyph unicode="&#xb0;" horiz-adv-x="651" d="M188 1288q12 108 85.5 179t187.5 71q115 0 168 -67.5t39 -174.5q-12 -108 -86 -180t-189 -72q-112 0 -165.5 69.5t-39.5 174.5zM319 1288q-15 -121 89 -121q57 0 89.5 37t39.5 92q6 51 -17 84t-76 33q-55 0 -87 -34t-38 -91z" />
<glyph unicode="&#xb1;" horiz-adv-x="985" d="M41 0l18 164h764l-18 -164h-764zM115 604l20 166h303l37 307h158l-37 -307h303l-20 -166h-304l-38 -313h-158l39 313h-303z" />
<glyph unicode="&#xb2;" horiz-adv-x="761" d="M68 549l14 104q89 70 133 101q75 54 158 120q56 44 116 123q43 58 58.5 112.5t4.5 92t-42.5 58t-77.5 16.5q-63 0 -205 -53l-37 104q125 70 273 70q273 0 239 -252q-27 -212 -393 -473h377l-16 -123h-602z" />
<glyph unicode="&#xb3;" horiz-adv-x="686" d="M57 578l54 122q101 -49 188 -49q75 0 124.5 38.5t59.5 113.5q8 64 -37.5 102.5t-132.5 38.5h-94l12 90q132 1 194.5 38t70.5 112q6 52 -23.5 76t-87.5 24q-81 0 -188 -45l-29 111q131 49 240 49q121 0 185 -51.5t52 -159.5q-18 -133 -131 -182q138 -53 123 -201 q-17 -136 -111 -205.5t-235 -69.5q-107 0 -234 48z" />
<glyph unicode="&#xb4;" horiz-adv-x="706" d="M229 1294l349 250l77 -149l-368 -213z" />
<glyph unicode="&#xb5;" horiz-adv-x="980" d="M14 -432l179 1460h165l-84 -678q-17 -126 43.5 -181.5t194.5 -55.5q101 0 207 34l108 881h168l-121 -981q-213 -76 -430 -76q-111 0 -211 68l-57 -471h-162z" />
<glyph unicode="&#xb6;" horiz-adv-x="1009" d="M117 1044q15 135 121 230q104 94 237 94h592l-16 -131h-144l-192 -1569h-148l193 1569h-148l-192 -1569h-154l129 1051q-133 0 -215 94q-78 93 -63 231z" />
<glyph unicode="&#xb7;" horiz-adv-x="503" d="M115 541q6 57 52 99t103 42q59 0 96 -41.5t31 -99.5q-8 -62 -55 -107t-106 -45q-57 0 -93 45t-28 107z" />
<glyph unicode="&#xb8;" horiz-adv-x="563" d="M27 -424q151 103 163 203q9 49 -22 121h158q22 -61 16 -131q-21 -165 -246 -291z" />
<glyph unicode="&#xb9;" horiz-adv-x="503" d="M100 1262l281 106h104l-104 -844h-148l86 695l-194 -66z" />
<glyph unicode="&#xba;" horiz-adv-x="761" d="M182 1116q23 170 104.5 249t223.5 79q143 0 203.5 -77.5t40.5 -248.5q-23 -170 -104.5 -248.5t-225.5 -78.5q-152 0 -207 73.5t-35 251.5zM322 1116q-13 -113 15.5 -162t102.5 -49q144 0 168 211q17 120 -11.5 167.5t-104.5 47.5q-71 0 -112 -48.5t-58 -166.5z" />
<glyph unicode="&#xbb;" horiz-adv-x="1054" d="M61 317l330 314l-254 315l127 103l295 -369l-12 -98l-385 -369zM477 317l334 314l-258 315l129 103l293 -369l-12 -98l-383 -369z" />
<glyph unicode="&#xbc;" horiz-adv-x="1613" d="M43 606l53 123q98 -49 187 -49q78 0 127.5 37.5t56.5 113.5q8 64 -37 103t-131 39h-92l10 90q131 1 192 37.5t72 111.5q6 52 -22.5 76.5t-85.5 24.5q-82 0 -189 -45l-30 110q131 49 241 49q122 0 185.5 -51t50.5 -159q-15 -131 -131 -183q142 -56 121 -200 q-17 -136 -110.5 -205.5t-234.5 -69.5q-109 0 -233 47zM287 102l1016 1385l102 -66l-1012 -1388zM834 219l10 86l456 533h138l-62 -500h154l-14 -119h-154l-27 -219h-149l26 219h-378zM1018 338h209l35 283z" />
<glyph unicode="&#xbd;" horiz-adv-x="1572" d="M131 1323l279 107h106l-102 -844h-148l84 694l-194 -66zM223 102l1016 1385l102 -66l-1011 -1388zM780 219l11 86l456 533h137l-61 -500h154l-15 -119h-153l-27 -219h-152l27 219h-377zM965 338h206l35 283z" />
<glyph unicode="&#xbe;" horiz-adv-x="1617" d="M143 1323l279 107h106l-102 -844h-147l83 694l-194 -66zM236 102l1015 1385l103 -66l-1012 -1388zM899 0l12 104q89 70 133 101q62 45 158 121q58 46 117 123q57 77 65.5 144.5t-26.5 103.5t-96 30q-63 0 -205 -53l-37 104q128 70 272 70q276 0 242 -252 q-24 -206 -393 -473h375l-15 -123h-602z" />
<glyph unicode="&#xbf;" horiz-adv-x="663" d="M14 14q11 54 36 99.5t57 78.5t68.5 63.5t73 61.5t68 65t56 81t35.5 102l20 121h154q-6 -103 -15 -147q-18 -91 -73 -171.5t-121 -129.5q-67 -50 -118 -108.5t-62 -111.5q-26 -106 58.5 -168.5t260.5 -80.5l-55 -158q-225 9 -353 119q-124 107 -90 284zM418 846l28 225 h218l-29 -225h-217z" />
<glyph unicode="&#xc0;" horiz-adv-x="1202" d="M-53 0l649 1368h205l315 -1368h-182l-80 358h-559l-166 -358h-182zM362 508h457l-145 674zM500 1690l112 149l287 -250l-86 -112z" />
<glyph unicode="&#xc1;" horiz-adv-x="1202" d="M-53 0l649 1368h205l315 -1368h-182l-80 358h-559l-166 -358h-182zM362 508h457l-145 674zM522 1597l348 250l78 -149l-366 -213z" />
<glyph unicode="&#xc2;" horiz-adv-x="1202" d="M-53 0l649 1368h205l315 -1368h-182l-80 358h-559l-166 -358h-182zM362 508h457l-145 674zM459 1536l223 225h129l172 -225l-113 -74l-135 176l-192 -176z" />
<glyph unicode="&#xc3;" horiz-adv-x="1202" d="M-53 0l649 1368h205l315 -1368h-182l-80 358h-559l-166 -358h-182zM362 508h457l-145 674zM391 1583q46 64 103.5 105t107.5 41q46 0 131 -46q85 -43 127 -43q38 0 121 86l78 -73q-50 -70 -114.5 -114t-119.5 -44q-45 0 -127 43q-80 45 -120 45q-37 0 -107 -76z" />
<glyph unicode="&#xc4;" horiz-adv-x="1202" d="M-53 0l649 1368h205l315 -1368h-182l-80 358h-559l-166 -358h-182zM362 508h457l-145 674zM446 1507l27 213h166l-27 -213h-166zM807 1507l27 213h163l-26 -213h-164z" />
<glyph unicode="&#xc5;" horiz-adv-x="1202" d="M-53 0l649 1368h205l315 -1368h-182l-80 358h-559l-166 -358h-182zM362 508h457l-145 674zM535 1659q11 91 72.5 150t156.5 59q97 0 144.5 -58t35.5 -149q-11 -90 -74 -151.5t-159 -61.5t-142.5 60t-33.5 151zM650 1659q-6 -40 13.5 -70t61.5 -30q87 0 102 102 q6 41 -12 68q-19 29 -63.5 29t-69.5 -29q-26 -30 -32 -70z" />
<glyph unicode="&#xc6;" horiz-adv-x="1669" d="M-59 0l850 1368h862l-21 -151h-606l-53 -437h573l-18 -151h-574l-57 -477h627l-19 -152h-800l51 426h-373l-258 -426h-184zM473 575h301l74 605z" />
<glyph unicode="&#xc7;" horiz-adv-x="1103" d="M127 460.5q-4 108.5 8 231.5q24 198 89.5 342.5t160.5 220.5q183 142 416 142q199 0 338 -80l-60 -148q-133 74 -291 74q-189 0 -309 -123q-117 -120 -155 -426q-40 -319 49 -446t295 -127q119 0 301 33v-144q-157 -39 -336 -39q-127 0 -223 36t-153.5 100.5t-91.5 154.5 t-38 198.5zM399 -424q152 101 164 203q8 44 -20 121h155q25 -66 19 -131q-21 -166 -248 -291z" />
<glyph unicode="&#xc8;" horiz-adv-x="1062" d="M88 0l168 1368h780l-20 -151h-606l-54 -437h574l-19 -151h-573l-57 -477h628l-18 -152h-803zM432 1690l113 149l286 -250l-86 -112z" />
<glyph unicode="&#xc9;" horiz-adv-x="1062" d="M88 0l168 1368h780l-20 -151h-606l-54 -437h574l-19 -151h-573l-57 -477h628l-18 -152h-803zM481 1597l348 250l76 -149l-364 -213z" />
<glyph unicode="&#xca;" horiz-adv-x="1062" d="M88 0l168 1368h780l-20 -151h-606l-54 -437h574l-19 -151h-573l-57 -477h628l-18 -152h-803zM410 1548l225 226h129l170 -226l-111 -73l-137 176l-190 -176z" />
<glyph unicode="&#xcb;" horiz-adv-x="1062" d="M88 0l168 1368h780l-20 -151h-606l-54 -437h574l-19 -151h-573l-57 -477h628l-18 -152h-803zM403 1507l27 213h164l-27 -213h-164zM762 1507l26 213h166l-26 -213h-166z" />
<glyph unicode="&#xcc;" horiz-adv-x="503" d="M123 1690l115 149l286 -250l-86 -112zM133 0l168 1368h174l-168 -1368h-174z" />
<glyph unicode="&#xcd;" horiz-adv-x="503" d="M45 0l168 1368h176l-168 -1368h-176zM219 1597l348 250l76 -149l-364 -213z" />
<glyph unicode="&#xce;" horiz-adv-x="503" d="M68 0l168 1368h174l-168 -1368h-174zM86 1548l227 226h129l170 -226l-110 -73l-140 176l-188 -176z" />
<glyph unicode="&#xcf;" horiz-adv-x="503" d="M31 0l168 1368h176l-168 -1368h-176zM43 1507l27 213h166l-27 -213h-166zM403 1507l27 213h164l-27 -213h-164z" />
<glyph unicode="&#xd0;" horiz-adv-x="1267" d="M16 625l21 159h129l70 572q209 26 368 26q79 0 144.5 -7.5t126.5 -24.5t107.5 -44.5t86 -67.5t64 -93t40.5 -122t15 -153.5t-12 -187.5q-20 -163 -70.5 -287.5t-119.5 -202.5t-162 -127.5t-189.5 -68.5t-212.5 -19q-121 0 -352 35l75 613h-129zM262 150q100 -19 182 -19 q227 0 368 136t177 417q35 284 -62 419.5t-335 135.5q-89 0 -197 -12l-53 -443h344l-20 -159h-344z" />
<glyph unicode="&#xd1;" horiz-adv-x="1380" d="M76 0l168 1368h194l559 -1087l136 1087h178l-168 -1368h-195l-565 1087l-133 -1087h-174zM471 1583q46 64 103.5 105t107.5 41q46 0 131 -46q85 -43 127 -43q38 0 121 86l78 -73q-50 -70 -114.5 -114t-119.5 -44q-47 0 -129 43q-77 45 -119 45q-35 0 -108 -76z" />
<glyph unicode="&#xd2;" horiz-adv-x="1306" d="M102.5 524q3.5 73 14.5 160q83 713 641 713q94 0 168.5 -20t126.5 -54.5t89 -86.5t57.5 -111t29 -133t6.5 -148t-12 -160q-37 -307 -172 -498q-73 -104 -193.5 -159.5t-279.5 -55.5q-98 0 -175 19.5t-129.5 54t-88.5 87t-54.5 111t-25 133.5t-3 148zM287 393 q11 -131 89.5 -205.5t221.5 -74.5q213 0 311 149q99 149 133 422q16 173 7 293q-8 132 -87 207.5t-223 75.5q-218 0 -323 -168q-86 -142 -121 -408q-16 -176 -8 -291zM520 1690l115 149l287 -250l-86 -112z" />
<glyph unicode="&#xd3;" horiz-adv-x="1306" d="M102.5 524q3.5 73 14.5 160q83 713 641 713q94 0 168.5 -20t126.5 -54.5t89 -86.5t57.5 -111t29 -133t6.5 -148t-12 -160q-37 -307 -172 -498q-73 -104 -193.5 -159.5t-279.5 -55.5q-98 0 -175 19.5t-129.5 54t-88.5 87t-54.5 111t-25 133.5t-3 148zM287 393 q11 -131 89.5 -205.5t221.5 -74.5q213 0 311 149q99 149 133 422q16 173 7 293q-8 132 -87 207.5t-223 75.5q-218 0 -323 -168q-86 -142 -121 -408q-16 -176 -8 -291zM594 1597l348 250l78 -149l-367 -213z" />
<glyph unicode="&#xd4;" horiz-adv-x="1306" d="M102.5 524q3.5 73 14.5 160q83 713 641 713q94 0 168.5 -20t126.5 -54.5t89 -86.5t57.5 -111t29 -133t6.5 -148t-12 -160q-37 -307 -172 -498q-73 -104 -193.5 -159.5t-279.5 -55.5q-98 0 -175 19.5t-129.5 54t-88.5 87t-54.5 111t-25 133.5t-3 148zM287 393 q11 -131 89.5 -205.5t221.5 -74.5q213 0 311 149q99 149 133 422q16 173 7 293q-8 132 -87 207.5t-223 75.5q-218 0 -323 -168q-86 -142 -121 -408q-16 -176 -8 -291zM518 1552l223 226h129l172 -226l-110 -73l-137 176l-191 -176z" />
<glyph unicode="&#xd5;" horiz-adv-x="1306" d="M102.5 524q3.5 73 14.5 160q83 713 641 713q94 0 168.5 -20t126.5 -54.5t89 -86.5t57.5 -111t29 -133t6.5 -148t-12 -160q-37 -307 -172 -498q-73 -104 -193.5 -159.5t-279.5 -55.5q-98 0 -175 19.5t-129.5 54t-88.5 87t-54.5 111t-25 133.5t-3 148zM287 393 q11 -131 89.5 -205.5t221.5 -74.5q213 0 311 149q99 149 133 422q16 173 7 293q-8 132 -87 207.5t-223 75.5q-218 0 -323 -168q-86 -142 -121 -408q-16 -176 -8 -291zM438 1583q113 146 211 146q46 0 131 -46q87 -43 127 -43q37 0 123 86l76 -73q-50 -70 -114.5 -114 t-117.5 -44q-47 0 -129 43q-80 45 -120 45q-37 0 -107 -76z" />
<glyph unicode="&#xd6;" horiz-adv-x="1306" d="M102.5 524q3.5 73 14.5 160q83 713 641 713q94 0 168.5 -20t126.5 -54.5t89 -86.5t57.5 -111t29 -133t6.5 -148t-12 -160q-37 -307 -172 -498q-73 -104 -193.5 -159.5t-279.5 -55.5q-98 0 -175 19.5t-129.5 54t-88.5 87t-54.5 111t-25 133.5t-3 148zM287 393 q11 -131 89.5 -205.5t221.5 -74.5q213 0 311 149q99 149 133 422q16 173 7 293q-8 132 -87 207.5t-223 75.5q-218 0 -323 -168q-86 -142 -121 -408q-16 -176 -8 -291zM508 1503l24 213h166l-24 -213h-166zM868 1503l25 213h164l-25 -213h-164z" />
<glyph unicode="&#xd7;" horiz-adv-x="1013" d="M63 309l334 307l-256 304l127 116l254 -303l336 303l103 -110l-332 -305l258 -308l-125 -114l-262 305l-338 -309z" />
<glyph unicode="&#xd8;" horiz-adv-x="1306" d="M63 -115l138 219q-138 159 -86 580q19 158 58.5 277t109.5 219q73 105 193 161t278 56q130 0 237 -43l111 174l133 -66l-123 -194q156 -170 107 -584q-37 -307 -172 -498q-73 -104 -193.5 -159.5t-280.5 -55.5q-145 0 -254 47l-124 -200zM291 684q-35 -269 20 -405 l596 942q-68 39 -172 39q-218 0 -323 -168q-86 -142 -121 -408zM408 158q71 -45 186 -45q105 0 183 37.5t130 113t83.5 177.5t49.5 243q35 292 -28 424z" />
<glyph unicode="&#xd9;" horiz-adv-x="1277" d="M172 498l109 870h174l-105 -840q-26 -215 31.5 -309t236.5 -94t259 92q79 94 106 311l104 840h173l-109 -870q-32 -272 -164.5 -399t-390.5 -128q-250 0 -353 128.5t-71 398.5zM561 1690l115 149l287 -250l-86 -112z" />
<glyph unicode="&#xda;" horiz-adv-x="1277" d="M172 498l109 870h174l-105 -840q-26 -215 31.5 -309t236.5 -94t259 92q79 94 106 311l104 840h173l-109 -870q-32 -272 -164.5 -399t-390.5 -128q-250 0 -353 128.5t-71 398.5zM621 1595l348 250l78 -149l-369 -213z" />
<glyph unicode="&#xdb;" horiz-adv-x="1277" d="M172 498l109 870h174l-105 -840q-26 -215 31.5 -309t236.5 -94t259 92q79 94 106 311l104 840h173l-109 -870q-32 -272 -164.5 -399t-390.5 -128q-250 0 -353 128.5t-71 398.5zM528 1548l226 226h129l170 -226l-109 -73l-139 176l-189 -176z" />
<glyph unicode="&#xdc;" horiz-adv-x="1277" d="M172 498l109 870h174l-105 -840q-26 -215 31.5 -309t236.5 -94t259 92q79 94 106 311l104 840h173l-109 -870q-32 -272 -164.5 -399t-390.5 -128q-250 0 -353 128.5t-71 398.5zM522 1507l27 213h166l-27 -213h-166zM883 1507l26 213h164l-26 -213h-164z" />
<glyph unicode="&#xdd;" horiz-adv-x="1097" d="M104 1368h199l272 -627l426 627h187l-551 -805l-68 -563h-178l68 563zM500 1595l350 250l76 -149l-369 -213z" />
<glyph unicode="&#xde;" horiz-adv-x="1110" d="M88 0l174 1434h176l-24 -213h157q164 0 257 -25t159 -86q112 -100 88 -295q-27 -222 -176 -323q-82 -57 -194 -81t-297 -24h-97l-47 -387h-176zM330 539h123q233 0 319 53q107 64 125 213q15 115 -53 192q-72 72 -289 72h-160z" />
<glyph unicode="&#xdf;" horiz-adv-x="1144" d="M35 -250l160 1309q26 212 148 319t323 107q163 0 244 -85t63 -220q-7 -67 -48.5 -127.5t-95.5 -100.5q-126 -94 -133 -157q-6 -47 15 -84q13 -23 29 -38t27.5 -21.5t53.5 -28.5q62 -27 95 -47.5t73 -57.5q81 -70 66 -209q-17 -141 -116.5 -223t-252.5 -82q-82 0 -176 27 q-92 26 -135 63l63 137q135 -75 277 -75q149 0 164 143q6 42 -19 78q-6 9 -12 17t-11 13.5t-14 12.5l-13.5 10.5t-17 11t-18 10.5t-22.5 12t-25 13l-86 49q-20 13 -66 56q-68 68 -53 198q8 57 37 104t65.5 79t72.5 61.5t64 66t34 78.5q15 160 -156 160q-124 0 -189.5 -66 t-82.5 -208l-160 -1305h-172z" />
<glyph unicode="&#xe0;" horiz-adv-x="1038" d="M111 502q38 305 200 430q146 112 355 112q171 0 331 -59l-94 -754q-9 -154 2 -237h-160l-10 84q-119 -96 -278 -96q-196 0 -287 131t-59 389zM283 489q-24 -180 30 -277t185 -97q124 0 233 71l84 697q-83 22 -158 22q-324 0 -374 -416zM430 1395l115 149l286 -250 l-86 -112z" />
<glyph unicode="&#xe1;" horiz-adv-x="1038" d="M111 502q38 305 200 430q146 112 355 112q171 0 331 -59l-94 -754q-9 -154 2 -237h-160l-10 84q-119 -96 -278 -96q-196 0 -287 131t-59 389zM283 489q-24 -180 30 -277t185 -97q124 0 233 71l84 697q-83 22 -158 22q-324 0 -374 -416zM475 1294l348 250l76 -149 l-367 -213z" />
<glyph unicode="&#xe2;" horiz-adv-x="1038" d="M111 502q38 305 200 430q146 112 355 112q171 0 331 -59l-94 -754q-9 -154 2 -237h-160l-10 84q-119 -96 -278 -96q-196 0 -287 131t-59 389zM283 489q-24 -180 30 -277t185 -97q124 0 233 71l84 697q-83 22 -158 22q-324 0 -374 -416zM414 1264l225 225h129l170 -225 l-111 -74l-137 176l-190 -176z" />
<glyph unicode="&#xe3;" horiz-adv-x="1038" d="M111 502q38 305 200 430q146 112 355 112q171 0 331 -59l-94 -754q-9 -154 2 -237h-160l-10 84q-119 -96 -278 -96q-196 0 -287 131t-59 389zM283 489q-24 -180 30 -277t185 -97q124 0 233 71l84 697q-83 22 -158 22q-324 0 -374 -416zM330 1290q44 63 102.5 104.5 t108.5 41.5q49 0 129 -45q85 -43 127 -43q38 0 121 86l77 -74q-48 -70 -112 -114t-119 -44q-47 0 -129 43q-77 45 -119 45q-35 0 -108 -76z" />
<glyph unicode="&#xe4;" horiz-adv-x="1038" d="M111 502q38 305 200 430q146 112 355 112q171 0 331 -59l-94 -754q-9 -154 2 -237h-160l-10 84q-119 -96 -278 -96q-196 0 -287 131t-59 389zM283 489q-24 -180 30 -277t185 -97q124 0 233 71l84 697q-83 22 -158 22q-324 0 -374 -416zM395 1231l27 213h164l-27 -213 h-164zM754 1231l26 213h166l-26 -213h-166z" />
<glyph unicode="&#xe5;" horiz-adv-x="1038" d="M111 502q38 305 200 430q146 112 355 112q171 0 331 -59l-94 -754q-9 -154 2 -237h-160l-10 84q-119 -96 -278 -96q-196 0 -287 131t-59 389zM283 489q-24 -180 30 -277t185 -97q124 0 233 71l84 697q-83 22 -158 22q-324 0 -374 -416zM475 1413q12 91 74.5 150t157.5 59 q97 0 143.5 -58t34.5 -149q-11 -91 -73.5 -152t-158.5 -61t-142.5 59.5t-35.5 151.5zM594.5 1362.5q16.5 -49.5 71.5 -49.5q45 0 70 28.5t30 73.5q12 96 -74 96q-55 0 -84.5 -49.5t-13 -99z" />
<glyph unicode="&#xe6;" horiz-adv-x="1617" d="M47 279q40 315 428 315q129 0 219 -19l13 105q14 113 -27 166t-156 53q-123 0 -305 -51l-14 133q76 27 188 45q111 21 174 21q108 0 184.5 -40.5t100.5 -107.5q55 68 147.5 110t194.5 42q200 0 291 -106t67 -294q-11 -74 -34 -153h-660q-20 -192 42.5 -285.5t211.5 -93.5 q157 0 311 80l15 -148q-186 -80 -351 -80q-205 0 -307 105q-171 -101 -368 -101q-77 -2 -144 15t-121 51.5t-81.5 96t-18.5 141.5zM221 285q-12 -92 62 -133q74 -39 184 -39q128 0 252 59q-47 96 -41 272q-127 19 -191 19q-245 0 -266 -178zM881 641h497l6 35 q13 112 -40.5 175.5t-159.5 63.5q-74 0 -135.5 -31t-94.5 -83q-59 -90 -73 -160z" />
<glyph unicode="&#xe7;" horiz-adv-x="921" d="M113 512q35 278 180 408q148 133 356 133q165 0 269 -70l-52 -135q-99 51 -213 51q-149 0 -242.5 -97.5t-117.5 -289.5q-25 -199 46.5 -298t213.5 -99q125 0 256 49l8 -135q-162 -58 -287 -58q-210 0 -331 133q-120 135 -86 408zM258 -424q152 104 164 203q9 47 -23 121 h158q22 -61 16 -131q-21 -166 -245 -291z" />
<glyph unicode="&#xe8;" horiz-adv-x="999" d="M117 502q27 238 184 389t393 151q144 0 214.5 -80t56.5 -206q-21 -174 -174 -267q-151 -92 -340 -92q-93 0 -170 23q-9 -299 262 -299q114 0 288 59l5 -143q-183 -60 -322 -60q-216 0 -322 131t-75 394zM301 545q61 -25 145 -25q121 0 226 60q99 57 114 172 q7 71 -27.5 111t-101.5 40q-143 0 -235 -108q-92 -113 -121 -250zM426 1395l113 149l286 -250l-86 -112z" />
<glyph unicode="&#xe9;" horiz-adv-x="999" d="M117 502q27 238 184 389t393 151q144 0 214.5 -80t56.5 -206q-21 -174 -174 -267q-151 -92 -340 -92q-93 0 -170 23q-9 -299 262 -299q114 0 288 59l5 -143q-183 -60 -322 -60q-216 0 -322 131t-75 394zM301 545q61 -25 145 -25q121 0 226 60q99 57 114 172 q7 71 -27.5 111t-101.5 40q-143 0 -235 -108q-92 -113 -121 -250zM457 1294l348 250l78 -149l-369 -213z" />
<glyph unicode="&#xea;" horiz-adv-x="999" d="M117 502q27 238 184 389t393 151q144 0 214.5 -80t56.5 -206q-21 -174 -174 -267q-151 -92 -340 -92q-93 0 -170 23q-9 -299 262 -299q114 0 288 59l5 -143q-183 -60 -322 -60q-216 0 -322 131t-75 394zM301 545q61 -25 145 -25q121 0 226 60q99 57 114 172 q7 71 -27.5 111t-101.5 40q-143 0 -235 -108q-92 -113 -121 -250zM406 1264l225 225h129l170 -225l-111 -74l-137 176l-190 -176z" />
<glyph unicode="&#xeb;" horiz-adv-x="999" d="M117 502q27 238 184 389t393 151q144 0 214.5 -80t56.5 -206q-21 -174 -174 -267q-151 -92 -340 -92q-93 0 -170 23q-9 -299 262 -299q114 0 288 59l5 -143q-183 -60 -322 -60q-216 0 -322 131t-75 394zM301 545q61 -25 145 -25q121 0 226 60q99 57 114 172 q7 71 -27.5 111t-101.5 40q-143 0 -235 -108q-92 -113 -121 -250zM401 1231l27 213h164l-27 -213h-164zM760 1231l26 213h166l-26 -213h-166z" />
<glyph unicode="&#xec;" horiz-adv-x="387" d="M4 1395l115 149l287 -250l-87 -112zM39 0l125 1028h182l-125 -1028h-182z" />
<glyph unicode="&#xed;" horiz-adv-x="434" d="M39 0l125 1028h182l-125 -1028h-182zM168 1294l348 250l78 -149l-369 -213z" />
<glyph unicode="&#xee;" horiz-adv-x="405" d="M23 1264l225 225h129l170 -225l-109 -74l-139 176l-190 -176zM39 0l125 1028h182l-125 -1028h-182z" />
<glyph unicode="&#xef;" horiz-adv-x="458" d="M23 1231l26 213h164l-27 -213h-163zM39 0l125 1028h182l-125 -1028h-182zM381 1231l27 213h165l-26 -213h-166z" />
<glyph unicode="&#xf0;" horiz-adv-x="1062" d="M102 461q27 229 146 370q118 142 307 142q145 0 264 -51q-27 175 -168 274l-190 -131l-82 104l137 101q-137 61 -276 76l49 127q205 -6 393 -84l164 122l82 -106l-133 -98q260 -217 198 -715q-77 -621 -510 -621q-209 0 -309 142q-96 146 -72 348zM281 457 q-19 -150 37.5 -241t177.5 -91q126 0 206 108q81 110 115 398q14 106 14 131q-119 61 -260 61q-243 0 -290 -366z" />
<glyph unicode="&#xf1;" d="M66 0l114 946q251 109 473 109q174 0 254 -74q82 -73 58 -276l-86 -705h-166l82 674q17 131 -28 183t-151 52q-149 0 -280 -55l-105 -854h-165zM274 1290q44 63 102.5 104.5t108.5 41.5q49 0 129 -45q85 -43 127 -43q37 0 123 86l76 -74q-48 -70 -112 -114t-119 -44 q-45 0 -127 43q-80 45 -121 45q-36 0 -109 -76z" />
<glyph unicode="&#xf2;" d="M121 512q34 281 164.5 411t355.5 130q224 0 316 -127.5t57 -411.5q-68 -543 -516 -543q-234 0 -323.5 125.5t-53.5 415.5zM295 512q-26 -213 29 -307t194 -94q128 0 212.5 98.5t109.5 302.5q28 235 -29 315q-59 86 -193 86q-125 0 -210 -88q-87 -90 -113 -313zM395 1395 l115 149l287 -250l-86 -112z" />
<glyph unicode="&#xf3;" d="M121 512q34 281 164.5 411t355.5 130q224 0 316 -127.5t57 -411.5q-68 -543 -516 -543q-234 0 -323.5 125.5t-53.5 415.5zM295 512q-26 -213 29 -307t194 -94q128 0 212.5 98.5t109.5 302.5q28 235 -29 315q-59 86 -193 86q-125 0 -210 -88q-87 -90 -113 -313zM449 1294 l348 250l77 -149l-368 -213z" />
<glyph unicode="&#xf4;" d="M121 512q34 281 164.5 411t355.5 130q224 0 316 -127.5t57 -411.5q-68 -543 -516 -543q-234 0 -323.5 125.5t-53.5 415.5zM295 512q-26 -213 29 -307t194 -94q128 0 212.5 98.5t109.5 302.5q28 235 -29 315q-59 86 -193 86q-125 0 -210 -88q-87 -90 -113 -313zM385 1264 l225 225h129l170 -225l-108 -74l-139 176l-189 -176z" />
<glyph unicode="&#xf5;" d="M121 512q34 281 164.5 411t355.5 130q224 0 316 -127.5t57 -411.5q-68 -543 -516 -543q-234 0 -323.5 125.5t-53.5 415.5zM295 512q-26 -213 29 -307t194 -94q128 0 212.5 98.5t109.5 302.5q28 235 -29 315q-59 86 -193 86q-125 0 -210 -88q-87 -90 -113 -313zM313 1290 q44 63 102.5 104.5t108.5 41.5q49 0 129 -45q85 -43 127 -43q37 0 123 86l76 -74q-48 -70 -112 -114t-119 -44q-45 0 -127 43q-80 45 -121 45q-36 0 -109 -76z" />
<glyph unicode="&#xf6;" d="M121 512q34 281 164.5 411t355.5 130q224 0 316 -127.5t57 -411.5q-68 -543 -516 -543q-234 0 -323.5 125.5t-53.5 415.5zM295 512q-26 -213 29 -307t194 -94q128 0 212.5 98.5t109.5 302.5q28 235 -29 315q-59 86 -193 86q-125 0 -210 -88q-87 -90 -113 -313zM397 1231 l27 213h164l-27 -213h-164zM756 1231l26 213h166l-26 -213h-166z" />
<glyph unicode="&#xf7;" horiz-adv-x="997" d="M86 489l20 162h805l-20 -162h-805zM350 309q6 47 44 80t87 33q47 0 76 -33t23 -80q-6 -50 -43 -85.5t-84 -35.5q-49 0 -79 35.5t-24 85.5zM416 848q6 47 44 80t87 33q47 0 75.5 -33t22.5 -80q-6 -50 -43 -85.5t-84 -35.5q-49 0 -78.5 35.5t-23.5 85.5z" />
<glyph unicode="&#xf8;" d="M117 -88l90 145q-127 120 -86 455q34 281 164.5 411t355.5 130q95 0 172 -25l84 131l117 -59l-88 -142q129 -126 88 -444q-68 -543 -516 -543q-101 0 -172 23l-93 -148zM295 512q-22 -192 16 -287l420 670q-40 18 -113 18q-125 0 -210 -88q-87 -90 -113 -313zM410 129 q46 -18 108 -18q128 0 212.5 98.5t109.5 302.5q24 193 -15 285z" />
<glyph unicode="&#xf9;" horiz-adv-x="1064" d="M129 340l84 688h166l-84 -678q-13 -118 44 -178.5t165 -60.5q128 0 231 71l105 846h166l-101 -823q-9 -138 2 -213h-162l-12 80q-119 -101 -301 -101q-161 0 -243.5 93t-59.5 276zM412 1395l112 149l287 -250l-86 -112z" />
<glyph unicode="&#xfa;" horiz-adv-x="1064" d="M129 340l84 688h166l-84 -678q-13 -118 44 -178.5t165 -60.5q128 0 231 71l105 846h166l-101 -823q-9 -138 2 -213h-162l-12 80q-119 -101 -301 -101q-161 0 -243.5 93t-59.5 276zM502 1294l348 250l78 -149l-369 -213z" />
<glyph unicode="&#xfb;" horiz-adv-x="1064" d="M129 340l84 688h166l-84 -678q-13 -118 44 -178.5t165 -60.5q128 0 231 71l105 846h166l-101 -823q-9 -138 2 -213h-162l-12 80q-119 -101 -301 -101q-161 0 -243.5 93t-59.5 276zM387 1264l225 225h129l170 -225l-110 -74l-137 176l-191 -176z" />
<glyph unicode="&#xfc;" horiz-adv-x="1064" d="M129 340l84 688h166l-84 -678q-13 -118 44 -178.5t165 -60.5q128 0 231 71l105 846h166l-101 -823q-9 -138 2 -213h-162l-12 80q-119 -101 -301 -101q-161 0 -243.5 93t-59.5 276zM379 1231l27 213h163l-26 -213h-164zM737 1231l27 213h166l-27 -213h-166z" />
<glyph unicode="&#xfd;" horiz-adv-x="1046" d="M23 -403l38 147q165 -59 338 -59q125 0 196.5 65t90.5 219l4 37q-110 -45 -196 -45q-251 0 -338 152q-86 156 -52 428q34 278 175 487h180q-64 -79 -117 -215q-53 -133 -68 -268q-56 -447 244 -447q100 0 191 39l108 891h166l-131 -1067q-52 -426 -481 -426 q-153 0 -348 62zM444 1294l349 250l75 -149l-366 -213z" />
<glyph unicode="&#xfe;" horiz-adv-x="1079" d="M6 -440l230 1874h165l-53 -437q151 56 275 56q201 0 297 -129.5t65 -386.5q-12 -94 -36 -174.5t-68 -154t-104 -125t-147.5 -82t-195.5 -30.5q-114 0 -209 27l-53 -438h-166zM246 154q78 -35 211 -35q303 0 356 416q46 368 -229 368q-112 0 -254 -59z" />
<glyph unicode="&#xff;" horiz-adv-x="1046" d="M23 -403l38 147q165 -59 338 -59q125 0 196.5 65t90.5 219l4 37q-110 -45 -196 -45q-251 0 -338 152q-86 156 -52 428q34 278 175 487h180q-64 -79 -117 -215q-53 -133 -68 -268q-56 -447 244 -447q100 0 191 39l108 891h166l-131 -1067q-52 -426 -481 -426 q-153 0 -348 62zM383 1231l27 213h165l-26 -213h-166zM743 1231l27 213h164l-27 -213h-164z" />
<glyph unicode="&#x152;" horiz-adv-x="1787" d="M116.5 446q-1.5 110 12.5 238q43 347 201.5 534t439.5 187q135 0 260 -35h754l-19 -151h-606l-55 -439h571l-18 -149h-572l-57 -479h627l-19 -152h-778q-138 -33 -268 -33q-123 0 -213.5 33.5t-144.5 96t-84 151t-31.5 198.5zM307 684q-37 -290 39 -430.5t268 -140.5 q122 0 240 37l129 1073q-101 43 -238 43q-367 0 -438 -582z" />
<glyph unicode="&#x153;" horiz-adv-x="1746" d="M121 512q35 282 164 411.5t356 129.5q264 0 338 -183q135 181 369 181q199 0 289.5 -101t66.5 -288q-10 -69 -35 -158h-655q-24 -201 54 -294t259 -93q140 0 262 51l2 -141q-145 -56 -344 -56q-139 0 -236 52t-132 143q-127 -195 -381 -195q-236 0 -324.5 124.5 t-52.5 416.5zM295 512q-26 -212 28 -302.5t197 -90.5q270 0 320 393q15 96 9 165t-20.5 113t-47.5 69.5t-71 35.5t-92 10q-132 0 -215 -86q-81 -81 -108 -307zM1034 639h496l6 37q13 115 -39.5 177t-159.5 62q-60 0 -111.5 -22t-84.5 -54.5t-57.5 -72t-35.5 -71.5t-14 -56z " />
<glyph unicode="&#x178;" horiz-adv-x="1097" d="M104 1368h199l272 -627l426 627h187l-551 -805l-68 -563h-178l68 563zM418 1507l26 213h166l-26 -213h-166zM778 1507l27 213h164l-27 -213h-164z" />
<glyph unicode="&#x2c6;" horiz-adv-x="761" d="M203 1264l225 225h129l170 -225l-109 -74l-139 176l-188 -176z" />
<glyph unicode="&#x2dc;" horiz-adv-x="1024" d="M274 1290q44 63 102.5 104.5t108.5 41.5q49 0 129 -45q85 -43 127 -43q37 0 123 86l76 -74q-48 -70 -112 -114t-119 -44q-45 0 -127 43q-80 45 -121 45q-36 0 -109 -76z" />
<glyph unicode="&#x2000;" horiz-adv-x="934" />
<glyph unicode="&#x2001;" horiz-adv-x="1868" />
<glyph unicode="&#x2002;" horiz-adv-x="934" />
<glyph unicode="&#x2003;" horiz-adv-x="1868" />
<glyph unicode="&#x2004;" horiz-adv-x="622" />
<glyph unicode="&#x2005;" horiz-adv-x="467" />
<glyph unicode="&#x2006;" horiz-adv-x="311" />
<glyph unicode="&#x2007;" horiz-adv-x="311" />
<glyph unicode="&#x2008;" horiz-adv-x="233" />
<glyph unicode="&#x2009;" horiz-adv-x="373" />
<glyph unicode="&#x200a;" horiz-adv-x="103" />
<glyph unicode="&#x2010;" horiz-adv-x="1011" d="M115 489l20 162h762l-20 -162h-762z" />
<glyph unicode="&#x2011;" horiz-adv-x="1011" d="M115 489l20 162h762l-20 -162h-762z" />
<glyph unicode="&#x2012;" horiz-adv-x="1011" d="M115 489l20 162h762l-20 -162h-762z" />
<glyph unicode="&#x2013;" horiz-adv-x="1103" d="M115 489l20 162h854l-20 -162h-854z" />
<glyph unicode="&#x2014;" horiz-adv-x="1660" d="M115 489l20 162h1411l-20 -162h-1411z" />
<glyph unicode="&#x2018;" horiz-adv-x="442" d="M176 1090q27 215 225 383h164q-187 -196 -205 -353q-8 -57 15 -147h-189q-20 49 -10 117z" />
<glyph unicode="&#x2019;" horiz-adv-x="505" d="M129 934q187 193 207 352q6 59 -17 148h189q20 -49 10 -117q-24 -212 -225 -383h-164z" />
<glyph unicode="&#x201a;" horiz-adv-x="436" d="M-119 -262q187 196 205 352q6 72 -16 148h188q16 -58 10 -117q-27 -214 -223 -383h-164z" />
<glyph unicode="&#x201c;" horiz-adv-x="780" d="M176 1090q27 215 225 383h164q-187 -196 -205 -353q-8 -57 15 -147h-189q-20 49 -10 117zM514 1090q27 215 225 383h164q-187 -196 -205 -353q-9 -70 15 -147h-189q-20 49 -10 117z" />
<glyph unicode="&#x201d;" horiz-adv-x="843" d="M129 934q187 193 207 352q6 59 -17 148h189q20 -49 10 -117q-24 -212 -225 -383h-164zM467 934q187 193 207 352q6 59 -17 148h189q17 -47 8 -117q-24 -217 -223 -383h-164z" />
<glyph unicode="&#x201e;" horiz-adv-x="774" d="M-119 -262q187 196 205 352q6 72 -16 148h188q16 -58 10 -117q-27 -214 -223 -383h-164zM217 -262q189 195 207 352q6 72 -16 148h188q16 -58 10 -117q-27 -214 -223 -383h-166z" />
<glyph unicode="&#x2022;" horiz-adv-x="737" d="M160 662q12 102 86.5 170.5t173.5 68.5q100 0 157.5 -68t45.5 -171t-87.5 -171.5t-175.5 -68.5q-98 0 -155 68.5t-45 171.5z" />
<glyph unicode="&#x2026;" horiz-adv-x="1314" d="M49 0l27 225h219l-27 -225h-219zM494 0l26 225h219l-26 -225h-219zM936 0l27 225h219l-27 -225h-219z" />
<glyph unicode="&#x202f;" horiz-adv-x="373" />
<glyph unicode="&#x2039;" horiz-adv-x="645" d="M88 518l10 98l385 369l103 -102l-334 -316l258 -313l-131 -104z" />
<glyph unicode="&#x203a;" horiz-adv-x="636" d="M61 317l330 314l-254 315l127 103l295 -369l-12 -98l-385 -369z" />
<glyph unicode="&#x205f;" horiz-adv-x="467" />
<glyph unicode="&#x20ac;" horiz-adv-x="1224" d="M68 481l16 131h152l10 80l12 96h-152l17 132h170q144 477 616 477q195 0 340 -80l-61 -148q-133 74 -291 74q-310 0 -418 -323h383l-16 -132h-400l-14 -94q-6 -41 -8 -82h399l-16 -131h-389q10 -193 98 -276.5t260 -83.5q119 0 301 33v-144q-157 -39 -336 -39 q-487 0 -508 510h-165z" />
<glyph unicode="&#x2122;" horiz-adv-x="1492" d="M180 1262l13 98h487l-12 -98h-193l-82 -662h-104l82 662h-191zM659 600l132 760h122l129 -563l271 563h123l-60 -760h-98l49 541l12 94l-268 -551h-82l-135 551l-12 -94l-84 -541h-99z" />
<glyph unicode="&#x25fc;" horiz-adv-x="1024" d="M0 0v1024h1024v-1024h-1024z" />
</font>
</defs>
</svg>
