<?xml version="1.0" standalone="no"?>
<!DOCTYPE svg PUBLIC "-//W3C//DTD SVG 1.1//EN" "http://www.w3.org/Graphics/SVG/1.1/DTD/svg11.dtd" >
<svg xmlns="http://www.w3.org/2000/svg">
<metadata></metadata>
<defs>
<font id="marineblack_italic" horiz-adv-x="1112" >
<font-face units-per-em="2048" ascent="1540" descent="-508" />
<missing-glyph horiz-adv-x="368" />
<glyph unicode="&#xfb01;" horiz-adv-x="1255" d="M55 823l29 236h182l4 35q26 206 158.5 310.5t345.5 104.5q192 0 352 -75l-86 -248q-110 55 -225 55q-184 0 -205 -174v-6h613l-138 -1061h-342l101 823h-262l-148 -1192h-346l148 1192h-181z" />
<glyph unicode="&#xfb02;" horiz-adv-x="1474" d="M55 823l29 236h182l4 35q30 240 183 336q152 96 389 96q239 0 512 -103l-135 -1073q-15 -110 92 -110q40 0 96 20v-221q-116 -64 -274 -64q-166 0 -225.5 89t-35.5 272l109 887q-76 28 -152 28q-91 0 -150 -45.5t-71 -138.5v-6h277l-49 -238h-256l-148 -1192h-344 l148 1192h-181z" />
<glyph horiz-adv-x="0" />
<glyph horiz-adv-x="682" />
<glyph unicode=" "  horiz-adv-x="368" />
<glyph unicode="&#x09;" horiz-adv-x="368" />
<glyph unicode="&#xa0;" horiz-adv-x="368" />
<glyph unicode="!" horiz-adv-x="522" d="M10 0l39 332h350l-39 -332h-350zM86 428l94 1008h371l-166 -1008h-299z" />
<glyph unicode="&#x22;" horiz-adv-x="835" d="M143 889l29 543h320l-101 -543h-248zM518 889l27 543h319l-102 -543h-244z" />
<glyph unicode="#" horiz-adv-x="1275" d="M37 340l31 256h192l43 139h-205l31 254h246l112 379h287l-110 -379h114l113 379h287l-111 -379h182l-30 -254h-226l-41 -139h248l-31 -256h-292l-105 -365h-287l105 365h-115l-106 -365h-287l104 365h-149zM549 596h115l43 139h-117z" />
<glyph unicode="$" horiz-adv-x="1001" d="M23 115l77 268q186 -115 363 -115q66 0 109 33.5t49 89.5q7 65 -24.5 101t-119.5 73l-121 47q-24 11 -96 54q-62 40 -86 73q-28 42 -43.5 103.5t-5.5 130.5q17 143 114 235.5t246 126.5l19 267h248l-43 -259q165 -23 270 -102l-84 -260q-30 30 -129 66q-90 34 -172 34 q-133 0 -148 -108q-6 -53 32 -85.5t143 -72.5q354 -132 319 -405q-20 -154 -127 -260t-266 -132l-23 -264h-248l48 266q-177 20 -301 95z" />
<glyph unicode="%" horiz-adv-x="1824" d="M158 1032q27 230 123 314q95 86 251 86q164 0 230 -84q68 -83 41 -314q-27 -229 -123 -313q-91 -82 -250 -82q-165 0 -233 80q-66 84 -39 313zM334 0l854 1415h323l-852 -1415h-325zM405.5 896q1.5 -48 11.5 -63.5t36 -15.5q39 0 59 44t33 171q16 134 8.5 176.5 t-45.5 42.5t-57.5 -44.5t-36.5 -174.5q-10 -88 -8.5 -136zM1061 375q27 229 123 313q95 86 252 86q163 0 229 -84q66 -81 39 -313q-27 -230 -123 -314q-93 -81 -250 -81q-166 0 -233 79q-64 82 -37 314zM1305.5 239q1.5 -48 12.5 -63.5t38 -15.5q38 0 56.5 42.5t35.5 172.5 q17 133 8 176t-47 43q-39 0 -57 -43q-21 -50 -35 -176q-13 -88 -11.5 -136z" />
<glyph unicode="&#x26;" horiz-adv-x="1492" d="M61 393q35 273 353 420q-78 134 -66 252q20 156 132 247t288 91q161 0 246.5 -79.5t68.5 -217.5q-24 -199 -278 -342l74 -88l118 -148q78 121 125 334h301q-59 -323 -245 -553q134 -113 276 -172l-147 -217q-194 69 -349 191q-182 -138 -442 -138q-242 0 -361 107.5 t-94 312.5zM377 406q-11 -78 37 -130.5t143 -52.5q127 0 240 82l-250 313q-71 -30 -116.5 -87.5t-53.5 -124.5zM645 1081q-6 -63 27 -131q89 71 98 166q9 74 -41 74q-31 0 -54.5 -32t-29.5 -77z" />
<glyph unicode="'" horiz-adv-x="462" d="M143 889l29 543h320l-101 -543h-248z" />
<glyph unicode="(" horiz-adv-x="645" d="M115 637q53 435 450 919l199 -159q-278 -413 -322 -760q-46 -352 136 -762l-238 -158q-280 491 -225 920z" />
<glyph unicode=")" horiz-adv-x="645" d="M-57 -125q274 402 321 762q43 346 -135 760l238 159q279 -493 227 -919q-55 -429 -453 -920z" />
<glyph unicode="*" horiz-adv-x="825" d="M111 1006l184 59l-168 61l152 238l110 -123l-12 164h262l-53 -164l137 119l102 -234l-188 -61l172 -66l-160 -223l-106 115l14 -164h-264l53 168l-137 -121z" />
<glyph unicode="+" horiz-adv-x="978" d="M47 442l33 265h278l35 286h287l-35 -286h279l-33 -265h-279l-34 -288h-287l35 288h-279z" />
<glyph unicode="," horiz-adv-x="501" d="M-147 -252q204 222 219 363q8 50 -23 168h297q22 -73 16 -138q-27 -212 -235 -393h-274z" />
<glyph unicode="-" horiz-adv-x="1026" d="M72 442l32 263h842l-33 -263h-841z" />
<glyph unicode="." horiz-adv-x="493" d="M-2 0l39 332h350l-39 -332h-350z" />
<glyph unicode="/" horiz-adv-x="886" d="M-61 -164l759 1731l260 -84l-755 -1727z" />
<glyph unicode="0" horiz-adv-x="1157" d="M71.5 436q1.5 105 18.5 244q50 404 184 559q135 156 408 156q274 0 367 -152q95 -150 45 -557q-49 -400 -185 -557q-136 -154 -411 -154q-92 0 -159.5 13.5t-120.5 46.5t-84.5 85t-47.5 131.5t-14.5 184.5zM424 344q21 -88 115 -88q90 0 137 90q46 87 76 338 q27 249 6 338q-21 90 -115 90q-90 0 -137 -90t-74 -338q-30 -248 -8 -340z" />
<glyph unicode="1" horiz-adv-x="806" d="M84 1184l446 184h256l-168 -1366h-342l127 1045l-288 -74z" />
<glyph unicode="2" horiz-adv-x="1044" d="M-25 0l27 217l123 94q10 7 143 113q39 32 127 113q90 83 125 129q48 63 84 134t43 134q24 188 -151 188q-124 0 -287 -82l-35 242q186 113 416 113q195 0 309 -99q117 -99 90 -315q-18 -152 -145 -348q-127 -192 -359 -363h463l-33 -270h-940z" />
<glyph unicode="3" horiz-adv-x="1036" d="M0 57l74 271q8 -3 29.5 -11.5t30.5 -11.5t28.5 -10t33 -10.5t32.5 -8.5t39 -9t42 -7q55 -12 106 -8t91.5 21.5t69.5 58.5t40 102q11 81 -31.5 127.5t-133.5 46.5h-189l29 230h127q56 0 90 6q42 8 76 46t41 101q10 72 -38.5 105t-131.5 22q-157 -21 -275 -78l-22 250 q61 33 136.5 57.5t156.5 36.5t159.5 10.5t147.5 -25t118.5 -65t73 -114t11.5 -168.5q-11 -78 -56.5 -152t-118.5 -122q187 -105 160 -318q-20 -168 -119 -281t-245 -149q-139 -36 -293.5 -21t-288.5 78z" />
<glyph unicode="4" horiz-adv-x="1212" d="M23 348l22 174l637 846h373l-99 -784h181l-29 -236h-180l-41 -348h-336l41 348h-569zM428 584h193l41 323z" />
<glyph unicode="5" horiz-adv-x="1050" d="M-16 53l104 262q174 -61 283 -61q112 0 182.5 55.5t81.5 149.5q11 86 -27.5 141t-132.5 55q-84 0 -246 -57l-88 98l84 672h797l-35 -276h-485l-23 -185q54 4 117 4q206 0 306.5 -113.5t74.5 -328.5q-27 -221 -203 -354q-174 -131 -409 -131q-218 0 -381 69z" />
<glyph unicode="6" horiz-adv-x="1064" d="M141 584q49 392 226 597t450 205q146 0 289 -51l-84 -266q-113 35 -193 35q-196 0 -260 -186q64 20 176 20q175 0 261 -116.5t57 -338.5q-27 -219 -164 -362q-138 -144 -364 -144q-465 0 -394 607zM494 575q-40 -321 79 -321q127 0 154 229q21 179 -113 179 q-39 0 -110 -23q-7 -25 -10 -64z" />
<glyph unicode="7" horiz-adv-x="946" d="M98 1094l35 274h885l-23 -168q-303 -511 -411 -768q-65 -156 -84 -215q-4 -15 -26 -88.5t-38 -128.5h-330q32 134 72 270q36 109 141 328q108 226 281 496h-502z" />
<glyph unicode="8" horiz-adv-x="1103" d="M66 393q12 93 78.5 183t170.5 157q-131 107 -110 287q23 182 148 278.5t331 96.5q205 0 303.5 -91.5t75.5 -261.5q-21 -185 -205 -307q201 -116 174 -336q-21 -182 -149 -301q-130 -121 -373 -121q-249 0 -359 107.5t-85 308.5zM395 399q-7 -68 32 -106.5t108 -38.5 q68 0 115 43.5t55 110.5q10 74 -40.5 126t-134.5 74q-117 -76 -135 -209zM522 1026q-15 -108 96 -178q49 30 85.5 82t41.5 92q6 51 -21 76.5t-73 25.5q-117 0 -129 -98z" />
<glyph unicode="9" horiz-adv-x="1067" d="M49 33l84 266q113 -35 189 -35q199 0 266 187q-70 -21 -180 -21q-172 0 -258.5 116.5t-57.5 338.5q27 217 164 360q140 146 365 146q464 0 393 -607q-49 -392 -226 -597t-450 -205q-146 0 -289 51zM428 885q-21 -178 113 -178q42 0 110 22q8 30 11 64q40 321 -80 321 q-127 0 -154 -229z" />
<glyph unicode=":" horiz-adv-x="532" d="M16 0l39 332h351l-39 -332h-351zM90 586l39 329h350l-39 -329h-350z" />
<glyph unicode=";" horiz-adv-x="587" d="M-100 -252q202 220 217 363q9 66 -21 168h332q23 -70 14 -138q-27 -217 -233 -393h-309zM141 586l39 329h350l-38 -329h-351z" />
<glyph unicode="&#x3c;" horiz-adv-x="894" d="M39 481l24 193l795 395l-39 -303l-393 -186l348 -191l-37 -299z" />
<glyph unicode="=" horiz-adv-x="985" d="M57 254l31 260h786l-30 -260h-787zM104 641l33 260h787l-33 -260h-787z" />
<glyph unicode="&#x3e;" horiz-adv-x="894" d="M31 90l37 299l391 191l-346 186l39 303l696 -395l-25 -193z" />
<glyph unicode="?" horiz-adv-x="761" d="M23 -2l43 340h348l-43 -340h-348zM90 426q0 61 10 156q6 65 45 127q44 70 72 98q35 35 96 90q43 34 66 57q70 66 78 140q7 74 -68 118t-219 56l84 227q254 -15 399 -119q148 -106 127 -270q-21 -159 -209 -309q-39 -34 -71 -66q-29 -29 -57.5 -77t-39.5 -99l-20 -129 h-293z" />
<glyph unicode="@" horiz-adv-x="1576" d="M86 575q46 368 285 592q244 226 610 226q326 0 476.5 -173.5t111.5 -486.5q-64 -530 -449 -530q-55 0 -106.5 26t-75.5 68q-107 -96 -215 -96q-144 0 -220.5 92t-56.5 254q27 219 168 354q140 137 328 137q118 0 283 -77l-88 -424q-11 -50 -11 -62q-5 -32 7.5 -46.5 t44.5 -14.5q99 0 139 321q25 207 -68 321.5t-299 114.5q-250 0 -408.5 -156.5t-193.5 -434.5q-18 -149 10 -258.5t95 -167.5q125 -105 309 -105q158 0 420 92l30 -196q-267 -117 -510 -117q-120 0 -221.5 26t-184.5 84t-136 144t-73.5 211.5t-0.5 281.5zM707 561 q-18 -151 55 -151q42 0 75.5 42.5t45.5 110.5l55 273h-18q-77 0 -136.5 -77.5t-76.5 -197.5z" />
<glyph unicode="A" horiz-adv-x="1239" d="M-82 0l614 1368h373l264 -1368h-354l-59 313h-344l-129 -313h-365zM520 575h193l-49 371z" />
<glyph unicode="B" horiz-adv-x="1159" d="M43 27l162 1316q243 37 393 37q85 0 154.5 -9.5t133.5 -34.5t105.5 -65t61.5 -105q13 -43 13 -96q0 -26 -3 -54q-21 -178 -150 -264q167 -76 167 -268q0 -27 -3 -56q-11 -95 -44.5 -166.5t-100.5 -136.5q-138 -135 -488 -135q-176 0 -401 37zM430 272q32 -4 84 -4 q198 0 219 168q2 17 2 32q0 62 -36 94q-45 40 -154 40h-74zM489 846h54q156 0 174 147q1 12 1 23q0 48 -26 74q-32 32 -106 32q-24 0 -64 -6z" />
<glyph unicode="C" horiz-adv-x="1153" d="M172 692q23 181 91 319.5t169 219.5q195 160 465 160q186 0 383 -78l-90 -281q-157 80 -295 80q-298 0 -350 -418q-7 -68 -8 -123q0 -5 -1 -10q0 -49 10 -89q10 -44 23.5 -76.5t36.5 -57t48.5 -40.5t59 -26t67.5 -14t75 -4q77 0 256 20l-16 -264q-197 -37 -348 -37 q-587 0 -587 559q0 75 11 160z" />
<glyph unicode="D" horiz-adv-x="1277" d="M43 25l162 1310q258 43 469 43q53 0 100 -3.5t94 -12.5t86.5 -25t76.5 -38t66.5 -53.5t54 -71t40.5 -90.5q16 -52 24 -113q8 -55 7 -121v-16q-1 -76 -11 -162q-52 -411 -272 -561q-102 -68 -207 -96.5t-239 -28.5q-223 0 -451 39zM432 276q18 -2 78 -2q167 0 245 96.5 t105 313.5q10 75 10 140q0 16 -1 32q-3 78 -22.5 133t-71 86t-136.5 31q-51 0 -107 -6z" />
<glyph unicode="E" horiz-adv-x="1130" d="M41 0l168 1368h921l-34 -276h-564l-30 -248h532l-33 -271h-532l-37 -294h582l-33 -279h-940z" />
<glyph unicode="F" horiz-adv-x="1087" d="M41 0l168 1368h921l-34 -274h-564l-30 -250h516l-33 -271h-516l-70 -573h-358z" />
<glyph unicode="G" horiz-adv-x="1241" d="M166 688q18 148 67 268t118 200t157.5 134.5t183.5 78.5t199 24q223 0 414 -84l-82 -279q-173 84 -314 84q-154 0 -253 -103t-124 -317q-8 -68 -8 -125q0 -315 246 -315q50 0 102 6l54 436h331l-77 -645q-219 -71 -459 -71q-565 0 -565 552q0 73 10 156z" />
<glyph unicode="H" horiz-adv-x="1323" d="M41 0l168 1368h356l-65 -520h381l65 520h357l-168 -1368h-357l70 569h-381l-70 -569h-356z" />
<glyph unicode="I" horiz-adv-x="587" d="M41 0l168 1368h358l-168 -1368h-358z" />
<glyph unicode="J" horiz-adv-x="561" d="M-283 -293l39 254q77 -12 131 -12q89 0 115 51q30 57 47 203l144 1165h354l-150 -1202q-30 -254 -146.5 -373t-316.5 -119q-96 0 -217 33z" />
<glyph unicode="K" horiz-adv-x="1347" d="M41 0l168 1368h358l-67 -543h86l364 543h410l-479 -672l397 -696h-422l-299 561h-90l-68 -561h-358z" />
<glyph unicode="L" horiz-adv-x="1011" d="M41 0l168 1368h358l-135 -1089h520l-32 -279h-879z" />
<glyph unicode="M" horiz-adv-x="1622" d="M10 0l250 1368h383l172 -745l352 745h381l-84 -1368h-340l60 762l-281 -594h-297l-135 596l-125 -764h-336z" />
<glyph unicode="N" horiz-adv-x="1415" d="M41 0l168 1368h356l383 -809l101 809h344l-168 -1368h-359l-387 811l-98 -811h-340z" />
<glyph unicode="O" horiz-adv-x="1310" d="M70 532q2 71 14 152q27 237 115 403q161 306 557 306q102 0 183.5 -21t136.5 -56.5t93.5 -88.5t59 -112t28.5 -133q6 -59 7 -116q0 -14 -1 -28q-2 -70 -12 -154q-19 -152 -58.5 -267t-111.5 -218q-73 -106 -202.5 -164t-303.5 -58q-101 0 -181.5 20.5t-135.5 56.5 t-93.5 89t-58.5 112q-22 59 -30 133q-7 57 -6 112q-1 16 0 32zM420 550q-1 -14 -1 -28q-1 -43 5 -85q8 -56 29 -91.5t61.5 -57.5t99.5 -22q97 0 160 60q58 57 84 135t45 223q8 65 11 115q2 27 2 55q0 22 -2 46q-2 52 -14.5 88.5t-34.5 66t-58.5 44.5t-87.5 15 q-148 0 -211 -129q-53 -108 -76 -301q-10 -76 -12 -134z" />
<glyph unicode="P" horiz-adv-x="1140" d="M41 0l164 1335q214 47 452 47q120 0 204 -19t157 -67q76 -48 108 -145q21 -62 21 -142q0 -44 -6 -94q-29 -222 -169 -336t-360 -114q-86 0 -155 14l-58 -479h-358zM487 721q36 -4 88 -4q98 0 153.5 43t68.5 147q3 26 3 49q0 168 -173 168q-56 0 -92 -8z" />
<glyph unicode="Q" horiz-adv-x="1261" d="M72 532q2 70 12 152q27 237 115 403q161 306 557 306q102 0 183.5 -21t136.5 -56.5t93.5 -88.5t59 -112t28.5 -133q6 -59 6 -116v-28q-2 -71 -12 -154q-24 -189 -102 -345.5t-199 -240.5q193 -40 350 -149l-204 -252q-51 51 -88 82q-56 46 -107 76q-59 37 -149 71 t-183 51q-101 0 -180.5 21t-134 57t-92.5 89t-58 112t-28 132q-5 55 -5 108q0 18 1 36zM420 550q-1 -14 -1 -28q0 -43 5 -85q8 -56 29 -91.5t61.5 -57.5t99.5 -22q97 0 160 60q58 57 84 135t45 223q8 65 11 115q2 27 2 55q0 23 -2 46q-2 52 -14.5 88.5t-34.5 66t-58.5 44.5 t-87.5 15q-148 0 -211 -129q-53 -108 -76 -301q-10 -76 -12 -134z" />
<glyph unicode="R" horiz-adv-x="1200" d="M41 0l164 1337q208 45 452 45q120 0 204 -19t157 -67q76 -48 108 -145q21 -62 21 -142q0 -44 -6 -94q-37 -316 -295 -421l258 -494h-385l-209 457q-38 4 -55 8l-56 -465h-358zM485 705q25 -2 46.5 -3.5t31 -2.5t10.5 -1q98 0 153 46.5t71 162.5q3 26 3 49q0 168 -173 168 q-54 0 -90 -4z" />
<glyph unicode="S" horiz-adv-x="1052" d="M-10 84l82 281q198 -121 393 -121q72 0 118 36.5t54 96.5q1 12 1 24q0 55 -28 85q-34 38 -129 75l-108 43l-92 45q-48 22 -84 58q-99 96 -99 223q0 32 6 65q24 194 175 297t344 103q247 0 401 -115l-88 -274q-45 36 -143 69q-98 37 -185 37q-147 0 -162 -117 q-1 -7 -1 -13q0 -46 37 -77q42 -35 155 -78q343 -129 343 -383q0 -23 -3 -47q-21 -188 -170 -307q-145 -115 -352 -115q-282 0 -465 109z" />
<glyph unicode="T" horiz-adv-x="1107" d="M78 1094l35 274h1073l-35 -274h-363l-133 -1094h-358l133 1094h-352z" />
<glyph unicode="U" horiz-adv-x="1275" d="M129 510l107 858h362l-104 -848q-8 -69 -8 -120v-17q2 -57 36.5 -89t108.5 -32q101 0 140.5 55.5t59.5 202.5l105 848h360l-106 -858q-35 -280 -170 -406q-136 -127 -428 -127q-282 0 -390 127q-82 96 -82 279q0 59 9 127z" />
<glyph unicode="V" horiz-adv-x="1212" d="M86 1368h356l150 -872l364 872h359l-615 -1368h-338z" />
<glyph unicode="W" horiz-adv-x="1677" d="M133 0l27 1368h327l-36 -819l317 708h295l145 -706l166 817h332l-311 -1368h-383l-156 788l-340 -788h-383z" />
<glyph unicode="X" horiz-adv-x="1325" d="M-55 0l538 684l-350 684h385l184 -403l287 403h391l-526 -672l379 -696h-399l-203 412l-303 -412h-383z" />
<glyph unicode="Y" horiz-adv-x="1214" d="M78 1368h368l193 -504l319 504h365l-545 -823l-65 -545h-357l66 545z" />
<glyph unicode="Z" horiz-adv-x="1122" d="M-12 0l24 203l672 889h-559l35 276h964l-26 -211l-664 -876h594l-33 -281h-1007z" />
<glyph unicode="[" horiz-adv-x="722" d="M-2 -258l219 1786h569l-30 -244l-244 -16l-156 -1268l242 -12l-31 -246h-569z" />
<glyph unicode="\" horiz-adv-x="890" d="M141 1483l281 84l338 -1731l-287 -80z" />
<glyph unicode="]" horiz-adv-x="722" d="M-57 -258l30 246l246 12l156 1268l-244 16l31 244h569l-219 -1786h-569z" />
<glyph unicode="^" horiz-adv-x="1034" d="M47 584l442 735h226l262 -735h-309l-115 331l-199 -331h-307z" />
<glyph unicode="_" horiz-adv-x="1071" d="M18 0l31 264h887l-31 -264h-887z" />
<glyph unicode="`" horiz-adv-x="731" d="M195 1346l157 276l385 -256l-106 -199z" />
<glyph unicode="a" d="M66 512q28 225 161 383q73 85 190 131.5t265 46.5q186 0 383 -90l-84 -690q-10 -84 -10 -155q0 -84 14 -148h-301l-25 86q-91 -99 -243 -99q-150 0 -240 78q-82 75 -106 185q-13 60 -13 136q0 63 9 136zM412 494q-4 -36 -4 -68q0 -70 21 -120q31 -72 106 -73q59 0 100 27 l67 543q-34 12 -69 12q-181 0 -221 -321z" />
<glyph unicode="b" horiz-adv-x="1140" d="M27 55l168 1379h340l-48 -383q124 28 220 28q205 1 303 -121q74 -92 75 -262q0 -54 -8 -116q-71 -605 -604 -605q-109 0 -246 25q-124 22 -200 55zM389 250q44 -8 76 -8q118 0 178 75t78 222q6 47 6 86q0 192 -139 192q-64 0 -131 -24z" />
<glyph unicode="c" horiz-adv-x="944" d="M82 520q35 274 192 414q164 141 381 141q189 0 322 -86l-82 -246q-115 56 -213 56q-225 0 -260 -281q-5 -42 -5 -79q0 -212 185 -212q157 0 270 43l-14 -243q-208 -54 -323 -54q-226 0 -359 136q-101 109 -101 301q0 52 7 110z" />
<glyph unicode="d" horiz-adv-x="1128" d="M68 512q11 87 35 165t69 152.5t105.5 128.5t149 86.5t196.5 32.5q75 0 135 -14l45 371h342l-139 -1141q-9 -78 -9 -146q0 -87 15 -157h-314l-28 84q-105 -97 -252 -97q-150 0 -240 78q-82 75 -106 185q-13 60 -13 136q0 63 9 136zM416 510q-6 -49 -6 -89q0 -188 135 -188 q61 0 114 27l68 557q-31 8 -74 8q-108 0 -162.5 -79t-74.5 -236z" />
<glyph unicode="e" horiz-adv-x="1062" d="M72 496q30 240 184 405q153 164 430 164q182 0 276 -82q79 -69 79 -186q0 -22 -3 -47q-21 -177 -159 -279q-135 -100 -312 -100q-110 0 -184 39q1 -88 74.5 -131t195.5 -43q148 0 273 49l2 -242q-162 -61 -404 -61q-258 0 -368 143q-89 116 -89 285q0 42 5 86zM389 584 q37 -13 90 -13q108 0 186.5 47t88.5 130q1 7 1 13q0 28 -21 47q-26 23 -70 23q-104 0 -177.5 -68t-97.5 -179z" />
<glyph unicode="f" horiz-adv-x="880" d="M53 813l29 238h190l7 43q27 212 178 315q153 102 364 102q180 0 295 -75l-72 -234q-86 45 -221 45q-179 0 -200 -196h311l-37 -238h-303l-145 -1182h-353l146 1182h-189z" />
<glyph unicode="g" horiz-adv-x="1122" d="M-37 -412l74 262q195 -77 336 -77q191 0 237 260q-76 -58 -215 -58q-211 0 -295 146q-62 108 -62 266q0 52 7 109q26 226 164 395q73 87 192 134.5t273 47.5q196 0 397 -92l-119 -975q-13 -109 -52 -195.5t-94 -142.5t-126 -93.5t-144.5 -53t-154.5 -15.5q-202 0 -418 82 zM393 504q-5 -38 -5 -72q0 -77 27 -130q39 -77 124 -77q55 0 102 27l68 551q-45 10 -84 10q-109 0 -161 -79.5t-71 -229.5z" />
<glyph unicode="h" horiz-adv-x="1153" d="M23 0l174 1423l350 23l-49 -399q129 38 270 38q314 0 313 -287q0 -35 -4 -75l-88 -723h-362l82 674q3 25 3 44q0 42 -14 62q-21 30 -73 29q-59 0 -160 -29l-94 -780h-348z" />
<glyph unicode="i" horiz-adv-x="524" d="M14 0l127 1051h348l-127 -1051h-348zM158 1171l41 340h348l-41 -340h-348z" />
<glyph unicode="j" horiz-adv-x="466" d="M-377 -340l64 262q81 -35 155 -35q119 0 140 185l118 979h351l-119 -977q-35 -264 -156 -365q-121 -100 -307 -100q-132 0 -246 51zM117 1171l41 340h350l-41 -340h-350z" />
<glyph unicode="k" horiz-adv-x="1128" d="M23 0l174 1430l354 26l-94 -770q8 -2 35 -2q210 0 245 264q7 44 7 87q0 14 -1 28h330q2 -18 3 -39q0 -35 -7 -78q-14 -130 -79 -241.5t-163 -161.5l228 -543h-367l-166 430q-29 -3 -60 -3q-19 0 -38 1l-51 -428h-350z" />
<glyph unicode="l" horiz-adv-x="663" d="M84 332l135 1100h348l-133 -1082q-2 -14 -1 -25q0 -85 93 -85q41 0 97 20v-221q-116 -64 -275 -64q-163 0 -224 89q-45 66 -45 182q0 40 5 86z" />
<glyph unicode="m" horiz-adv-x="1710" d="M23 0l116 954q98 48 242 88q152 41 293 41q200 0 270 -94q149 94 352 94q343 0 342 -300q0 -36 -4 -76l-86 -707h-340l82 678q2 20 2 37q0 110 -98 110q-75 0 -150 -34q0 -41 -6 -84l-86 -707h-334l82 678q2 19 2 36q0 111 -104 111q-68 0 -139 -30l-97 -795h-339z" />
<glyph unicode="n" horiz-adv-x="1132" d="M23 0l116 963q78 36 248 81q150 39 299 39q174 0 277 -69q97 -60 97 -226q0 -38 -5 -81l-86 -707h-342l82 682q2 20 2 38q0 111 -99 111q-80 0 -151 -30l-99 -801h-339z" />
<glyph unicode="o" horiz-adv-x="1089" d="M84 526q35 290 171 421.5t382 131.5q254 1 353 -127q73 -94 72 -278q0 -67 -9 -146q-35 -291 -171 -422t-390 -131q-243 -1 -343 129q-74 96 -74 282q0 64 9 140zM414 526q-8 -58 -7 -105q0 -188 123 -188q153 0 191 293q9 65 9 113q0 37 -5 65q-12 65 -40 90t-79 25 q-80 0 -126.5 -64.5t-65.5 -228.5z" />
<glyph unicode="p" horiz-adv-x="1134" d="M-31 -420l174 1415q247 84 486 84q445 0 445 -419q0 -54 -7 -115q-12 -95 -36.5 -176t-70 -155t-107.5 -126t-153.5 -82.5t-203.5 -30.5q-61 0 -134 13l-51 -408h-342zM395 256q49 -12 90 -12q97 0 158 79.5t78 223.5q6 43 6 79q0 191 -156 191q-59 0 -108 -12z" />
<glyph unicode="q" horiz-adv-x="1124" d="M78 496q36 286 183 435.5t403 149.5q189 0 442 -86l-176 -1431l-342 18l55 447q-85 -54 -215 -54q-211 0 -295 146q-62 108 -62 266q0 52 7 109zM426 504q-5 -39 -5 -73q0 -76 27 -129q38 -77 123 -77q53 0 101 23l69 555q-45 10 -84 10q-109 0 -160.5 -79.5 t-70.5 -229.5z" />
<glyph unicode="r" horiz-adv-x="798" d="M23 0l129 1063h305l-8 -115q115 133 286 133q50 0 109 -16l-72 -270q-88 16 -129 16q-114 0 -184 -37l-94 -774h-342z" />
<glyph unicode="s" horiz-adv-x="899" d="M-27 59l82 246q51 -27 144 -49q103 -25 168 -25q99 0 108 68q3 28 -16 47q-7 9 -14 15.5t-18.5 14t-17.5 11t-27 14t-30 15.5l-106 53q-46 28 -84 59q-80 66 -80 172q0 17 2 35q21 168 147 254q127 86 299 86q214 0 340 -108l-84 -238q-31 28 -114 55q-89 29 -150 29 q-99 0 -108 -68q-3 -27 20 -53q23 -23 44 -34t81 -33q15 -6 37 -15.5t31 -13.5t23.5 -11t27 -15t29.5 -19q61 -35 85 -85q22 -47 21 -125v-13q-41 -355 -481 -355q-98 0 -203 27q-102 23 -156 59z" />
<glyph unicode="t" horiz-adv-x="835" d="M53 811l29 240h172l29 225l348 31l-33 -256h274l-47 -240h-258l-55 -457q-2 -16 -2 -29q0 -89 86 -89q55 0 111 20l4 -225q-124 -56 -258 -56h-11q-187 0 -256 97q-16 21 -34 100q-3 20 0 59q2 43 10 119l57 461h-166z" />
<glyph unicode="u" d="M82 334l86 717h340l-78 -650q-3 -24 -3 -45q0 -116 101 -116q68 0 117 30l94 781h342l-92 -758q-10 -84 -10 -155q0 -84 14 -148h-301l-26 90q-121 -103 -275 -103q-166 1 -249 89q-65 69 -65 194q0 35 5 74z" />
<glyph unicode="v" horiz-adv-x="1091" d="M78 346l86 705h344l-80 -662q-4 -28 -4 -51q0 -42 13 -66q20 -36 79 -36q138 0 178 301q9 109 9 206q0 172 -29 308h342q30 -171 29 -323q0 -87 -9 -169q-34 -260 -174 -422q-137 -162 -411 -162q-211 -1 -303 91q-74 73 -75 209q0 34 5 71z" />
<glyph unicode="w" horiz-adv-x="1472" d="M86 326l88 725h346l-82 -682q-8 -41 -8 -70q0 -18 3 -32q8 -36 42 -36q48 2 74.5 35t36.5 107l82 678h329l-82 -682q-4 -30 -4 -53q0 -85 52 -85q64 0 108 93q43 85 59 223q22 167 22 299q0 116 -17 205h331q14 -112 14 -223.5t-14 -223.5q-13 -101 -39.5 -190 t-73.5 -171.5t-110 -141.5t-154 -94.5t-200 -35.5q-149 0 -217 86q-112 -86 -273 -86q-317 0 -317 285q0 33 4 70z" />
<glyph unicode="x" horiz-adv-x="1171" d="M-61 0l442 543l-277 508h377l131 -287l203 287h369l-400 -512l299 -539h-374l-156 324l-236 -324h-378z" />
<glyph unicode="y" horiz-adv-x="1116" d="M-33 -416l72 262q195 -77 338 -77q95 0 153 59.5t84 196.5q-76 -58 -192 -58q-81 0 -143 17t-103 45t-68.5 72.5t-40.5 91t-17 109.5q-1 31 -1 60.5t1 57.5q4 56 13 127q35 272 127 504h334q-105 -293 -129 -492q-11 -78 -11 -137q0 -75 17 -120q30 -83 127 -83 q58 0 111 27l98 805h346l-127 -1049q-13 -109 -52 -195.5t-94 -142.5t-126 -93.5t-144.5 -53t-154.5 -15.5q-205 0 -418 82z" />
<glyph unicode="z" horiz-adv-x="978" d="M-8 168l516 643h-393l2 238h796l9 -183l-521 -639q300 -3 500 -129l-117 -258q-296 152 -634 152h-152z" />
<glyph unicode="{" horiz-adv-x="772" d="M23 532l26 213h92q32 0 43 31q10 28 23 105l49 309q26 166 123.5 260t243.5 94h217l-29 -241h-168q-82 0 -100 -164l-31 -217q-30 -206 -125 -283q73 -76 55 -283l-22 -213q-18 -161 59 -161h168l-29 -248h-217q-146 0 -220 94t-60 260l26 309q21 135 -32 135h-92z" />
<glyph unicode="|" horiz-adv-x="512" d="M20 -84l187 1503h299l-187 -1503h-299z" />
<glyph unicode="}" horiz-adv-x="772" d="M-59 -266l28 248h170q83 0 101 161l28 213q27 205 125 283q-76 76 -55 283l24 217q18 164 -59 164h-170l29 241h217q146 0 220 -94t60 -260l-28 -309q-22 -136 33 -136h92l-27 -213h-92q-33 0 -43 -30q-10 -28 -23 -105l-47 -309q-26 -166 -123 -260t-243 -94h-217z" />
<glyph unicode="~" horiz-adv-x="1134" d="M59 588q144 217 303 217q109 0 252 -76q129 -63 193 -63q75 0 151 98l117 -158q-144 -215 -319 -215q-93 0 -238 74q-111 63 -192 63q-82 0 -160 -96z" />
<glyph horiz-adv-x="0" />
<glyph unicode="&#xa1;" horiz-adv-x="505" d="M-49 -350l160 1007h299l-93 -1007h-366zM96 754l41 329h350l-38 -329h-353z" />
<glyph unicode="&#xa2;" horiz-adv-x="899" d="M70 684q29 229 152 370.5t308 174.5l11 241h250l-52 -237q117 -12 226 -80l-82 -246q-115 56 -215 56q-224 0 -262 -281q-34 -291 182 -291q157 0 270 43l-12 -244q-154 -41 -252 -51l-10 -213h-244l49 226q-177 38 -262 172t-57 360z" />
<glyph unicode="&#xa3;" horiz-adv-x="1054" d="M41 0l27 231q138 71 165 291q5 45 5 80h-172l28 246h101q-6 94 2 160q21 181 141.5 286t320.5 105q197 0 345 -86l-89 -246q-38 32 -106 56t-129 24q-159 0 -174 -141q-10 -84 2 -158h307l-14 -246h-256q3 -31 -6 -96q-15 -119 -78 -230h495l-32 -276h-883z" />
<glyph unicode="&#xa4;" horiz-adv-x="1089" d="M-12 63l176 203q-62 119 -47 252q15 140 123 266l-123 191l200 147l123 -200q80 24 156 24q75 0 131 -20l170 196l162 -147l-154 -182q79 -125 64 -275q-22 -148 -125 -266l114 -189l-200 -149l-119 201q-59 -21 -147 -21q-91 0 -160 29l-180 -207zM375 518 q-11 -85 29.5 -139.5t115.5 -54.5q72 0 127.5 55t65.5 139q7 86 -33.5 140.5t-112.5 54.5q-76 0 -130.5 -54.5t-61.5 -140.5z" />
<glyph unicode="&#xa5;" horiz-adv-x="1232" d="M119 217l24 205h275l10 80h-274l24 200h199l-246 666h356l164 -494l283 494h356l-407 -666h198l-24 -200h-277l-10 -80h277l-25 -205h-277l-26 -217h-352l26 217h-274z" />
<glyph unicode="&#xa6;" horiz-adv-x="512" d="M20 -84l76 610h299l-76 -610h-299zM131 805l76 614h299l-76 -614h-299z" />
<glyph unicode="&#xa7;" horiz-adv-x="817" d="M51 588q9 85 55 157q43 69 136 129l-4 17q-16 74 -7 133q37 309 465 401l52 -223l-97 -33q-116 -41 -125 -125q-2 -14 9 -63q22 -80 104 -229q84 -161 106 -228q20 -71 11 -145q-9 -86 -58 -164q-51 -75 -135 -127l2 -8q20 -61 10 -137q-9 -88 -55 -166 q-57 -97 -180 -154q-125 -58 -248 -61l-33 198l97 31q114 41 123 125q8 30 -9 64q-8 35 -24 71q-18 41 -41 86l-35 70q-8 17 -35 66.5t-47.5 92.5t-26.5 72q-19 54 -10 150zM309 608q-3 -45 4 -67q28 -94 109 -236l24 -43q42 42 48 90q3 21 -7 70q-23 90 -133 274 q-39 -33 -45 -88z" />
<glyph unicode="&#xa8;" horiz-adv-x="739" d="M111 1239l34 287h287l-35 -287h-286zM494 1239l34 287h287l-35 -287h-286z" />
<glyph unicode="&#xa9;" horiz-adv-x="1413" d="M104 621q35 275 242 464q209 191 475 191q264 0 428 -191t129 -464q-35 -278 -243 -465q-209 -191 -476 -191q-264 0 -428 191q-161 193 -127 465zM291 616q-27 -215 82 -360q111 -141 305 -141q193 0 336 143q147 147 174 363q27 218 -84 356q-108 141 -301 141 q-197 0 -340 -143q-145 -142 -172 -359zM412 614q18 135 86 224q64 83 146 117t192 34q79 0 194 -33l-45 -137q-102 27 -154 27q-179 0 -206 -228q-16 -123 27.5 -175t140.5 -52q42 0 155 10l-18 -141q-111 -20 -193 -20q-368 0 -325 374z" />
<glyph unicode="&#xaa;" horiz-adv-x="669" d="M121 993q12 95 84.5 143t183.5 48q39 0 94 -8l4 30q6 43 -12.5 61.5t-62.5 18.5q-53 0 -168 -31l-21 138q168 49 258 49q244 0 217 -234l-43 -348q-130 -53 -276 -53q-131 0 -200 44t-58 142zM326 995q-4 -34 14.5 -48.5t56.5 -14.5q34 0 58 8l14 123q-24 8 -53 8 q-81 0 -90 -76z" />
<glyph unicode="&#xab;" horiz-adv-x="1208" d="M53 508l15 125l415 407l181 -182l-297 -289l227 -280l-225 -191zM563 508l15 125l417 407l181 -182l-295 -289l225 -280l-227 -191z" />
<glyph unicode="&#xac;" horiz-adv-x="1130" d="M98 659l33 263h934l-59 -478h-287l26 215h-647z" />
<glyph unicode="&#xad;" horiz-adv-x="1011" />
<glyph unicode="&#xae;" horiz-adv-x="1413" d="M104 621q35 275 242 464q209 191 475 191q264 0 428 -191t129 -464q-35 -278 -243 -465q-209 -191 -476 -191q-264 0 -428 191q-161 193 -127 465zM291 616q-27 -215 82 -360q111 -141 305 -141q193 0 336 143q147 147 174 363q27 218 -84 356q-108 141 -301 141 q-197 0 -340 -143q-145 -142 -172 -359zM426 270l84 682q145 23 252 23q143 0 212.5 -56t53.5 -186q-15 -158 -158 -217l134 -246h-218l-106 224l-23 4l-26 -228h-205zM674 625q10 -2 45 -2q100 0 112 106q15 111 -86 111q-35 0 -45 -2z" />
<glyph unicode="&#xaf;" horiz-adv-x="1069" d="M139 1069l31 264h905l-31 -264h-905z" />
<glyph unicode="&#xb0;" horiz-adv-x="659" d="M141 1139q12 112 92.5 186t204.5 74q125 0 186.5 -72.5t49.5 -185.5q-15 -108 -94 -187q-80 -77 -207 -77q-123 0 -183.5 73.5t-48.5 188.5zM352 1135q-12 -84 43 -84q58 0 70 88q9 84 -47 84q-57 0 -66 -88z" />
<glyph unicode="&#xb1;" horiz-adv-x="1026" d="M20 2l31 264h840l-31 -264h-840zM98 659l33 265h277l34 286h291l-35 -286h277l-33 -265h-276l-35 -288h-291l35 288h-277z" />
<glyph unicode="&#xb2;" horiz-adv-x="796" d="M72 504l16 135l64 51q80 58 147 115q61 49 123 129q63 77 72 147q7 60 -17.5 85.5t-83.5 25.5q-54 0 -172 -68l-26 170q121 74 274 74q130 0 202.5 -65t55.5 -193q-13 -99 -91.5 -215t-213.5 -217h283l-21 -174h-612z" />
<glyph unicode="&#xb3;" horiz-adv-x="761" d="M55 547l66 178q121 -53 213 -53q91 0 106 106q6 45 -18 74t-70 29h-129l19 149h90q103 0 112 88q4 36 -15.5 51t-63.5 15q-61 0 -183 -49l-24 172q126 63 282 63q126 0 187 -62t49 -169q-12 -102 -105 -168q112 -68 97 -197q-17 -130 -109 -206t-233 -76q-137 0 -271 55z " />
<glyph unicode="&#xb4;" horiz-adv-x="724" d="M182 1366l449 256l88 -274l-481 -181z" />
<glyph unicode="&#xb6;" horiz-adv-x="1024" d="M102 1032q18 144 129 238q113 98 252 98h596l-22 -174h-133l-187 -1513h-219l187 1513h-56l-186 -1513h-227l124 1015q-125 15 -200 111q-73 98 -58 225z" />
<glyph unicode="&#xb7;" horiz-adv-x="499" d="M47 375l41 330h350l-41 -330h-350z" />
<glyph unicode="&#xb8;" horiz-adv-x="591" d="M-31 -428q123 99 135 182q6 41 -24 183h317q22 -91 11 -175q-24 -204 -332 -360z" />
<glyph unicode="&#xb9;" horiz-adv-x="657" d="M98 1227l322 129h170l-105 -850h-231l78 635l-201 -66z" />
<glyph unicode="&#xba;" horiz-adv-x="700" d="M152 1122q20 167 99 242.5t224 75.5q149 0 205.5 -72.5t36.5 -243.5q-20 -166 -98.5 -240.5t-227.5 -74.5q-145 0 -202 72.5t-37 240.5zM356 1122q-12 -89 3 -125t55 -36t63 36t35 125q12 93 -1.5 128.5t-53.5 35.5q-43 0 -66 -35.5t-35 -128.5z" />
<glyph unicode="&#xbb;" horiz-adv-x="1210" d="M29 293l295 280l-226 289l226 182l313 -407l-16 -125l-414 -410zM541 293l297 280l-228 289l224 182l317 -407l-16 -125l-416 -410z" />
<glyph unicode="&#xbc;" horiz-adv-x="1691" d="M117 1270l321 131h170l-104 -852h-234l80 637l-198 -66zM211 -84l975 1645l186 -97l-969 -1640zM854 213l14 111l410 528h266l-59 -483h129l-21 -156h-129l-24 -213h-232l25 213h-379zM1104 369h149l27 231z" />
<glyph unicode="&#xbd;" horiz-adv-x="1665" d="M117 1270l321 131h170l-104 -852h-234l80 637l-198 -66zM211 -84l975 1645l186 -97l-969 -1640zM922 0l16 137l66 49q91 67 110 84q50 39 103 90q119 113 131 218q15 108 -82 108q-82 0 -193 -63l-26 168q121 75 272 75q130 0 203 -65.5t57 -194.5q-13 -98 -92 -212.5 t-215 -219.5h284l-20 -174h-614z" />
<glyph unicode="&#xbe;" horiz-adv-x="1730" d="M43 588l68 176q119 -51 200 -51q102 0 117 106q9 101 -88 101h-129l18 151h93q44 -2 71.5 15t38.5 73q4 36 -17 54t-63 18q-77 0 -182 -51l-25 168q129 63 281 63q128 0 188 -63q62 -65 50 -168t-107 -168q114 -71 96 -197q-15 -131 -106 -207t-234 -76q-140 0 -270 56z M272 -84l973 1645l187 -97l-967 -1640zM905 213l15 111l407 528h266l-59 -483h129l-21 -156h-129l-24 -213h-232l25 213h-377zM1153 369h150l26 231z" />
<glyph unicode="&#xbf;" horiz-adv-x="737" d="M-23 -35q22 160 211 309q41 33 72 64q30 30 57.5 78t38.5 100q0 4 5 25.5t6 27.5q3 8 6.5 38t3.5 38h291q0 -48 -11 -156q-6 -65 -45 -127q-36 -62 -71 -100q-27 -27 -95 -88l-14 -12h-2l-57 -51q-21 -21 -43.5 -60t-26.5 -74q-8 -72 65 -116.5t224 -57.5l-86 -227 q-254 15 -402 119q-148 106 -127 270zM367 778l41 332h350l-41 -332h-350z" />
<glyph unicode="&#xc0;" horiz-adv-x="1239" d="M-82 0l614 1368h373l264 -1368h-354l-59 313h-344l-129 -313h-365zM465 1642l156 277l387 -256l-107 -199zM520 575h193l-49 371z" />
<glyph unicode="&#xc1;" horiz-adv-x="1239" d="M-82 0l614 1368h373l264 -1368h-354l-59 313h-344l-129 -313h-365zM520 575h193l-49 371zM535 1669l448 256l86 -274l-477 -181z" />
<glyph unicode="&#xc2;" horiz-adv-x="1239" d="M-82 0l614 1368h373l264 -1368h-354l-59 313h-344l-129 -313h-365zM430 1602l260 260h184l199 -260l-188 -146l-131 164l-174 -164zM520 575h193l-49 371z" />
<glyph unicode="&#xc3;" horiz-adv-x="1239" d="M-82 0l614 1368h373l264 -1368h-354l-59 313h-344l-129 -313h-365zM383 1640q45 73 113 126t133 53q67 0 141 -45q76 -43 115 -43q53 0 112 65l107 -135q-38 -64 -111 -112t-143 -48q-61 0 -135 45t-113 45q-50 0 -123 -82zM520 575h193l-49 371z" />
<glyph unicode="&#xc4;" horiz-adv-x="1239" d="M-82 0l614 1368h373l264 -1368h-354l-59 313h-344l-129 -313h-365zM397 1503l35 287h287l-35 -287h-287zM520 575h193l-49 371zM780 1503l35 287h289l-35 -287h-289z" />
<glyph unicode="&#xc5;" horiz-adv-x="1239" d="M-82 0l614 1368h373l264 -1368h-354l-59 313h-344l-129 -313h-365zM520 575h193l-49 371zM522 1683q12 95 80 160q72 66 182 66t164 -66q40 -45 42 -114t-27 -130.5t-92.5 -104t-143.5 -38.5q-112 0 -164.5 63t-40.5 164zM715 1683q-3 -59 35 -59q40 0 49 62q3 57 -35 57 q-40 0 -49 -60z" />
<glyph unicode="&#xc6;" horiz-adv-x="1611" d="M-88 0l725 1368h977l-35 -276h-516l-31 -250h488l-33 -271h-488l-36 -295h532l-35 -278h-837l39 315h-242l-154 -313h-354zM551 575h129l43 353z" />
<glyph unicode="&#xc7;" horiz-adv-x="1153" d="M172 692q23 181 91 319.5t169 219.5q195 160 465 160q186 0 383 -78l-90 -281q-157 80 -295 80q-298 0 -350 -418q-7 -68 -8 -123t8.5 -98.5t23.5 -76.5t37 -57.5t48.5 -40.5t59 -26t67.5 -14t75 -4q77 0 256 20l-16 -264q-197 -37 -348 -37q-665 0 -576 719zM469 -449 q125 98 137 183q4 67 -28 182h319q24 -83 12 -174q-24 -203 -336 -360z" />
<glyph unicode="&#xc8;" horiz-adv-x="1130" d="M41 0l168 1368h921l-34 -276h-564l-30 -248h532l-33 -271h-532l-37 -294h582l-33 -279h-940zM406 1642l155 277l387 -256l-106 -199z" />
<glyph unicode="&#xc9;" horiz-adv-x="1130" d="M41 0l168 1368h921l-34 -276h-564l-30 -248h532l-33 -271h-532l-37 -294h582l-33 -279h-940zM467 1667l451 256l86 -274l-478 -181z" />
<glyph unicode="&#xca;" horiz-adv-x="1130" d="M41 0l168 1368h921l-34 -276h-564l-30 -248h532l-33 -271h-532l-37 -294h582l-33 -279h-940zM387 1602l260 260h184l197 -260l-186 -146l-133 164l-174 -164z" />
<glyph unicode="&#xcb;" horiz-adv-x="1130" d="M41 0l168 1368h921l-34 -276h-564l-30 -248h532l-33 -271h-532l-37 -294h582l-33 -279h-940zM350 1503l35 287h289l-35 -287h-289zM735 1503l35 287h287l-35 -287h-287z" />
<glyph unicode="&#xcc;" horiz-adv-x="595" d="M63 0l168 1368h359l-168 -1368h-359zM92 1636l154 277l387 -256l-105 -199z" />
<glyph unicode="&#xcd;" horiz-adv-x="595" d="M47 0l168 1368h358l-167 -1368h-359zM217 1669l447 256l88 -274l-480 -181z" />
<glyph unicode="&#xce;" horiz-adv-x="589" d="M53 0l168 1368h359l-168 -1368h-359zM94 1599l262 261h185l196 -261l-186 -145l-133 164l-172 -164z" />
<glyph unicode="&#xcf;" horiz-adv-x="563" d="M45 0l168 1368h358l-168 -1368h-358zM66 1503l34 287h287l-35 -287h-286zM449 1503l34 287h289l-35 -287h-288z" />
<glyph unicode="&#xd0;" horiz-adv-x="1382" d="M33 573l28 230h185l65 532q255 43 469 43q53 0 100 -4t94 -13t86.5 -24.5t77 -38t66.5 -54t53.5 -71t40 -90.5t24 -112.5t7.5 -136.5t-12 -162q-20 -160 -71.5 -288t-121.5 -204q-66 -72 -159 -119q-87 -42 -171.5 -58.5t-193.5 -16.5q-225 0 -450 39l67 548h-184z M537 276q18 -2 77 -2q169 0 247.5 96.5t105.5 313.5q26 220 -21.5 321t-200.5 101q-49 0 -108 -6l-35 -297h162l-29 -230h-162z" />
<glyph unicode="&#xd1;" horiz-adv-x="1415" d="M51 0l168 1368h356l381 -809l101 809h346l-168 -1368h-358l-388 811l-98 -811h-340zM479 1622q41 72 108.5 125t133.5 53q67 0 141 -45q79 -43 117 -43q55 0 115 66l106 -136q-43 -66 -115.5 -112.5t-142.5 -46.5q-64 0 -135 45t-111 45q-54 0 -121 -82z" />
<glyph unicode="&#xd2;" horiz-adv-x="1310" d="M70.5 532q2.5 71 13.5 152q27 237 115 403q161 306 557 306q102 0 183.5 -21t136.5 -56.5t93.5 -88.5t59 -112t28.5 -133t6 -144.5t-12 -153.5q-19 -152 -58.5 -267t-111.5 -218q-73 -106 -202.5 -164t-303.5 -58q-101 0 -181.5 20.5t-135.5 56.5t-93.5 89t-59 112 t-29 132.5t-6 144.5zM419.5 550.5q-2.5 -57.5 5 -113.5t28.5 -91.5t61.5 -57.5t99.5 -22q97 0 160 60q58 57 84 135t45 223q8 65 11 115t0.5 101.5t-15 88t-34.5 66t-58.5 44.5t-87.5 15q-148 0 -211 -129q-53 -108 -76 -301q-10 -76 -12.5 -133.5zM530 1636l154 277 l389 -256l-106 -199z" />
<glyph unicode="&#xd3;" horiz-adv-x="1310" d="M70.5 532q2.5 71 13.5 152q27 237 115 403q161 306 557 306q102 0 183.5 -21t136.5 -56.5t93.5 -88.5t59 -112t28.5 -133t6 -144.5t-12 -153.5q-19 -152 -58.5 -267t-111.5 -218q-73 -106 -202.5 -164t-303.5 -58q-101 0 -181.5 20.5t-135.5 56.5t-93.5 89t-59 112 t-29 132.5t-6 144.5zM419.5 550.5q-2.5 -57.5 5 -113.5t28.5 -91.5t61.5 -57.5t99.5 -22q97 0 160 60q58 57 84 135t45 223q8 65 11 115t0.5 101.5t-15 88t-34.5 66t-58.5 44.5t-87.5 15q-148 0 -211 -129q-53 -108 -76 -301q-10 -76 -12.5 -133.5zM559 1669l447 256 l86 -274l-478 -181z" />
<glyph unicode="&#xd4;" horiz-adv-x="1310" d="M70.5 532q2.5 71 13.5 152q27 237 115 403q161 306 557 306q102 0 183.5 -21t136.5 -56.5t93.5 -88.5t59 -112t28.5 -133t6 -144.5t-12 -153.5q-19 -152 -58.5 -267t-111.5 -218q-73 -106 -202.5 -164t-303.5 -58q-101 0 -181.5 20.5t-135.5 56.5t-93.5 89t-59 112 t-29 132.5t-6 144.5zM419.5 550.5q-2.5 -57.5 5 -113.5t28.5 -91.5t61.5 -57.5t99.5 -22q97 0 160 60q58 57 84 135t45 223q8 65 11 115t0.5 101.5t-15 88t-34.5 66t-58.5 44.5t-87.5 15q-148 0 -211 -129q-53 -108 -76 -301q-10 -76 -12.5 -133.5zM453 1599l262 261h184 l195 -261l-185 -145l-135 164l-170 -164z" />
<glyph unicode="&#xd5;" horiz-adv-x="1310" d="M70.5 532q2.5 71 13.5 152q27 237 115 403q161 306 557 306q102 0 183.5 -21t136.5 -56.5t93.5 -88.5t59 -112t28.5 -133t6 -144.5t-12 -153.5q-19 -152 -58.5 -267t-111.5 -218q-73 -106 -202.5 -164t-303.5 -58q-101 0 -181.5 20.5t-135.5 56.5t-93.5 89t-59 112 t-29 132.5t-6 144.5zM419.5 550.5q-2.5 -57.5 5 -113.5t28.5 -91.5t61.5 -57.5t99.5 -22q97 0 160 60q58 57 84 135t45 223q8 65 11 115t0.5 101.5t-15 88t-34.5 66t-58.5 44.5t-87.5 15q-148 0 -211 -129q-53 -108 -76 -301q-10 -76 -12.5 -133.5zM422 1616 q46 73 114 125.5t132 52.5q67 0 141 -45q79 -43 117 -43q54 0 114 66l107 -136q-43 -66 -115.5 -112.5t-142.5 -46.5q-61 0 -135 45t-113 45q-52 0 -119 -82z" />
<glyph unicode="&#xd6;" horiz-adv-x="1310" d="M70.5 532q2.5 71 13.5 152q27 237 115 403q161 306 557 306q102 0 183.5 -21t136.5 -56.5t93.5 -88.5t59 -112t28.5 -133t6 -144.5t-12 -153.5q-19 -152 -58.5 -267t-111.5 -218q-73 -106 -202.5 -164t-303.5 -58q-101 0 -181.5 20.5t-135.5 56.5t-93.5 89t-59 112 t-29 132.5t-6 144.5zM419.5 550.5q-2.5 -57.5 5 -113.5t28.5 -91.5t61.5 -57.5t99.5 -22q97 0 160 60q58 57 84 135t45 223q8 65 11 115t0.5 101.5t-15 88t-34.5 66t-58.5 44.5t-87.5 15q-148 0 -211 -129q-53 -108 -76 -301q-10 -76 -12.5 -133.5zM428 1503l35 287h289 l-35 -287h-289zM811 1503l35 287h289l-35 -287h-289z" />
<glyph unicode="&#xd7;" horiz-adv-x="1048" d="M37 322l295 276l-223 270l217 205l221 -272l291 270l170 -201l-289 -268l223 -276l-213 -199l-229 272l-293 -276z" />
<glyph unicode="&#xd8;" horiz-adv-x="1308" d="M147 686q27 238 115 404q161 305 557 305q47 0 90 -6l82 182l221 -70l-79 -180q240 -150 182 -635q-19 -152 -58.5 -267t-111.5 -218q-73 -106 -202.5 -163.5t-303.5 -57.5q-57 0 -100 6l-103 -232l-227 72l104 235q-228 153 -166 625zM485 444l297 672q-148 0 -211 -129 q-30 -61 -46 -129t-29 -172q-20 -149 -11 -242zM664 268h16q97 0 160 60q58 56 83 133.5t44 224.5q20 164 4 270z" />
<glyph unicode="&#xd9;" horiz-adv-x="1275" d="M129 510l107 858h362l-104 -848q-9 -80 -7.5 -137t36 -89t108.5 -32q101 0 140.5 55.5t59.5 202.5l105 848h360l-106 -858q-35 -280 -170 -406q-136 -127 -428 -127q-281 0 -389.5 127t-73.5 406zM475 1636l154 277l389 -256l-107 -199z" />
<glyph unicode="&#xda;" horiz-adv-x="1275" d="M129 510l107 858h362l-104 -848q-9 -80 -7.5 -137t36 -89t108.5 -32q101 0 140.5 55.5t59.5 202.5l105 848h360l-106 -858q-35 -280 -170 -406q-136 -127 -428 -127q-281 0 -389.5 127t-73.5 406zM561 1665l451 256l86 -274l-480 -181z" />
<glyph unicode="&#xdb;" horiz-adv-x="1275" d="M129 510l107 858h362l-104 -848q-9 -80 -7.5 -137t36 -89t108.5 -32q101 0 140.5 55.5t59.5 202.5l105 848h360l-106 -858q-35 -280 -170 -406q-136 -127 -428 -127q-281 0 -389.5 127t-73.5 406zM475 1604l260 260h185l198 -260l-188 -146l-133 164l-172 -164z" />
<glyph unicode="&#xdc;" horiz-adv-x="1275" d="M129 510l107 858h362l-104 -848q-9 -80 -7.5 -137t36 -89t108.5 -32q101 0 140.5 55.5t59.5 202.5l105 848h360l-106 -858q-35 -280 -170 -406q-136 -127 -428 -127q-281 0 -389.5 127t-73.5 406zM446 1501l35 287h289l-35 -287h-289zM831 1501l35 287h287l-35 -287h-287 z" />
<glyph unicode="&#xdd;" horiz-adv-x="1214" d="M78 1368h368l193 -504l319 504h365l-545 -823l-65 -545h-357l66 545zM496 1669l446 256l86 -274l-477 -181z" />
<glyph unicode="&#xde;" horiz-adv-x="1015" d="M41 0l174 1425h274l-24 -196h63q157 0 242.5 -25.5t147.5 -89.5q110 -116 86 -309q-27 -227 -181 -338l2 2q-74 -59 -175 -83t-273 -24h-19l-43 -362h-274zM387 594h39q165 0 227 41h-2q57 39 72 160q15 101 -27 149h2q-44 53 -196 53h-66z" />
<glyph unicode="&#xdf;" horiz-adv-x="1224" d="M-10 -254l155 1258q29 229 176.5 349t383.5 120q204 0 299.5 -94.5t74.5 -254.5q-7 -67 -43.5 -122.5t-83.5 -88.5q-108 -76 -118 -151q-3 -26 10 -49q12 -20 22.5 -28.5t46.5 -29.5q69 -34 103 -55t74 -57q83 -74 67 -215q-20 -164 -134.5 -258.5t-293.5 -94.5 q-76 0 -174 25q-100 25 -160 63l109 259q30 -21 106 -58q76 -31 131 -31q88 0 97 78q4 31 -18.5 53.5t-82.5 53.5q-62 32 -93 52.5t-73 57.5q-81 72 -65 217q7 62 42 114.5t79 82.5q107 76 118 166q6 48 -18 75t-68 27q-151 0 -178 -211l-153 -1253h-338z" />
<glyph unicode="&#xe0;" d="M66 512q28 225 161 383q73 85 190 131.5t265 46.5q186 0 383 -90l-84 -690q-22 -184 4 -303h-301l-25 86q-91 -99 -243 -99q-150 0 -240 78q-82 75 -106 185.5t-4 271.5zM401 1346l156 276l385 -256l-104 -199zM412 494q-14 -116 17 -188.5t106 -72.5q59 0 100 27l67 543 q-34 12 -69 12q-181 0 -221 -321z" />
<glyph unicode="&#xe1;" d="M66 512q28 225 161 383q73 85 190 131.5t265 46.5q186 0 383 -90l-84 -690q-22 -184 4 -303h-301l-25 86q-91 -99 -243 -99q-150 0 -240 78q-82 75 -106 185.5t-4 271.5zM412 494q-14 -116 17 -188.5t106 -72.5q59 0 100 27l67 543q-34 12 -69 12q-181 0 -221 -321z M442 1366l451 256l86 -274l-479 -181z" />
<glyph unicode="&#xe2;" d="M66 512q28 225 161 383q73 85 190 131.5t265 46.5q186 0 383 -90l-84 -690q-22 -184 4 -303h-301l-25 86q-91 -99 -243 -99q-150 0 -240 78q-82 75 -106 185.5t-4 271.5zM358 1315l263 260h184l194 -260l-184 -146l-135 164l-170 -164zM412 494q-14 -116 17 -188.5 t106 -72.5q59 0 100 27l67 543q-34 12 -69 12q-181 0 -221 -321z" />
<glyph unicode="&#xe3;" d="M66 512q28 225 161 383q73 85 190 131.5t265 46.5q186 0 383 -90l-84 -690q-22 -184 4 -303h-301l-25 86q-91 -99 -243 -99q-150 0 -240 78q-82 75 -106 185.5t-4 271.5zM332 1329q45 74 111.5 126t131.5 52q68 0 142 -45q79 -43 117 -43q54 0 114 66l105 -135 q-40 -64 -113.5 -112t-142.5 -48q-64 0 -138 45t-110 45q-51 0 -121 -82zM412 494q-14 -116 17 -188.5t106 -72.5q59 0 100 27l67 543q-34 12 -69 12q-181 0 -221 -321z" />
<glyph unicode="&#xe4;" d="M66 512q28 225 161 383q73 85 190 131.5t265 46.5q186 0 383 -90l-84 -690q-22 -184 4 -303h-301l-25 86q-91 -99 -243 -99q-150 0 -240 78q-82 75 -106 185.5t-4 271.5zM350 1260l35 286h289l-35 -286h-289zM412 494q-14 -116 17 -188.5t106 -72.5q59 0 100 27l67 543 q-34 12 -69 12q-181 0 -221 -321zM733 1260l35 286h289l-35 -286h-289z" />
<glyph unicode="&#xe5;" d="M66 512q28 225 161 383q73 85 190 131.5t265 46.5q186 0 383 -90l-84 -690q-22 -184 4 -303h-301l-25 86q-91 -99 -243 -99q-150 0 -240 78q-82 75 -106 185.5t-4 271.5zM412 494q-14 -116 17 -188.5t106 -72.5q59 0 100 27l67 543q-34 12 -69 12q-181 0 -221 -321z M467 1409q12 97 81.5 161t176.5 64q112 0 165.5 -62.5t41.5 -160.5q-12 -101 -82 -165t-182 -64q-109 0 -161 63.5t-40 163.5zM659 1409q-9 -59 31 -59q42 0 51 61q9 57 -34 57q-39 0 -48 -59z" />
<glyph unicode="&#xe6;" horiz-adv-x="1572" d="M18 295q21 175 146 254q127 80 305 80q87 0 158 -15l8 58q10 77 -22.5 107t-110.5 30q-110 0 -275 -51l-30 237q219 86 426 86q94 0 149.5 -18t89.5 -66q107 82 295 82q219 0 315 -108t72 -299q-10 -77 -49 -199h-567v-4q-13 -114 40 -172.5t160 -58.5q142 0 316 59 l-4 -260q-210 -64 -379 -64q-162 0 -289 74q-147 -78 -328 -78q-201 0 -325 74q-122 78 -101 252zM350 303q-7 -60 27.5 -88.5t99.5 -28.5q87 0 150 29q-32 100 -23 205q-63 14 -98 14q-141 0 -156 -131zM963 680h280q5 73 -22.5 115.5t-83.5 42.5q-130 0 -174 -158z" />
<glyph unicode="&#xe7;" horiz-adv-x="944" d="M82 520q35 274 192 414q164 141 381 141q189 0 322 -86l-82 -246q-115 56 -213 56q-225 0 -260 -281q-37 -291 180 -291q157 0 270 43l-14 -243q-208 -54 -323 -54q-226 0 -359 136q-129 138 -94 411zM238 -428q123 94 135 182q6 49 -25 183h318q24 -84 12 -175 q-24 -201 -334 -360z" />
<glyph unicode="&#xe8;" horiz-adv-x="1062" d="M72 496q30 240 184 405q153 164 430 164q181 0 275.5 -82t76.5 -233q-21 -177 -159 -279q-135 -100 -312 -100q-110 0 -184 39q1 -88 74.5 -131t195.5 -43q148 0 273 49l2 -242q-162 -61 -404 -61q-258 0 -368 143q-111 144 -84 371zM389 584q37 -13 90 -13 q108 0 186.5 47t88.5 130q6 37 -20 60t-70 23q-104 0 -177.5 -68t-97.5 -179zM391 1346l156 276l387 -256l-107 -199z" />
<glyph unicode="&#xe9;" horiz-adv-x="1062" d="M72 496q30 240 184 405q153 164 430 164q181 0 275.5 -82t76.5 -233q-21 -177 -159 -279q-135 -100 -312 -100q-110 0 -184 39q1 -88 74.5 -131t195.5 -43q148 0 273 49l2 -242q-162 -61 -404 -61q-258 0 -368 143q-111 144 -84 371zM389 584q37 -13 90 -13 q108 0 186.5 47t88.5 130q6 37 -20 60t-70 23q-104 0 -177.5 -68t-97.5 -179zM432 1366l451 256l86 -274l-480 -181z" />
<glyph unicode="&#xea;" horiz-adv-x="1062" d="M72 496q30 240 184 405q153 164 430 164q181 0 275.5 -82t76.5 -233q-21 -177 -159 -279q-135 -100 -312 -100q-110 0 -184 39q1 -88 74.5 -131t195.5 -43q148 0 273 49l2 -242q-162 -61 -404 -61q-258 0 -368 143q-111 144 -84 371zM369 1315l262 260h184l195 -260 l-185 -146l-135 164l-170 -164zM389 584q37 -13 90 -13q108 0 186.5 47t88.5 130q6 37 -20 60t-70 23q-104 0 -177.5 -68t-97.5 -179z" />
<glyph unicode="&#xeb;" horiz-adv-x="1062" d="M72 496q30 240 184 405q153 164 430 164q181 0 275.5 -82t76.5 -233q-21 -177 -159 -279q-135 -100 -312 -100q-110 0 -184 39q1 -88 74.5 -131t195.5 -43q148 0 273 49l2 -242q-162 -61 -404 -61q-258 0 -368 143q-111 144 -84 371zM346 1239l35 287h289l-35 -287h-289z M389 584q37 -13 90 -13q108 0 186.5 47t88.5 130q6 37 -20 60t-70 23q-104 0 -177.5 -68t-97.5 -179zM731 1239l35 287h287l-35 -287h-287z" />
<glyph unicode="&#xec;" horiz-adv-x="487" d="M-4 1346l158 276l385 -256l-107 -199zM14 0l129 1063h351l-132 -1063h-348z" />
<glyph unicode="&#xed;" horiz-adv-x="536" d="M14 0l129 1063h351l-132 -1063h-348zM137 1366l451 256l86 -274l-479 -181z" />
<glyph unicode="&#xee;" horiz-adv-x="518" d="M14 0l129 1063h351l-132 -1063h-348zM33 1315l260 260h186l195 -260l-185 -146l-135 164l-172 -164z" />
<glyph unicode="&#xef;" horiz-adv-x="471" d="M12 1239l35 287h289l-35 -287h-289zM14 0l129 1063h351l-132 -1063h-348zM395 1239l35 287h289l-35 -287h-289z" />
<glyph unicode="&#xf0;" horiz-adv-x="1050" d="M80 506q26 222 148 335t321 113q61 0 131 -18q-12 104 -51 166l-150 -127l-137 160l98 84q-72 23 -217 32l70 215q235 0 371 -43l161 156l136 -166l-99 -94q109 -99 145.5 -266t4.5 -424q-18 -148 -53.5 -261.5t-82.5 -187t-109 -119.5t-128.5 -65t-146.5 -19 q-237 0 -340 148q-99 143 -72 381zM422 506q-30 -252 96 -252q55 0 90 86q33 82 68 334q-50 18 -115 18q-118 -3 -139 -186z" />
<glyph unicode="&#xf1;" horiz-adv-x="1132" d="M23 0l116 963q78 36 248 81q150 39 299 39q174 0 277 -69q119 -73 92 -307l-86 -707h-342l82 682q18 149 -97 149q-80 0 -151 -30l-99 -801h-339zM291 1329q45 73 113 125.5t133 52.5q67 0 141 -45q79 -43 117 -43q52 0 112 66l105 -135q-38 -64 -111 -112t-143 -48 q-63 0 -137 45t-111 45q-50 0 -123 -82z" />
<glyph unicode="&#xf2;" horiz-adv-x="1089" d="M84 526q35 290 171 421.5t382 131.5q254 0 353 -127.5t63 -423.5q-35 -291 -171 -422t-390 -131q-243 0 -343 129.5t-65 421.5zM389 1346l156 276l387 -256l-107 -199zM414 526q-38 -293 116 -293q153 0 191 293q16 113 4 178t-40 90t-79 25q-80 0 -126.5 -64.5 t-65.5 -228.5z" />
<glyph unicode="&#xf3;" horiz-adv-x="1089" d="M84 526q35 290 171 421.5t382 131.5q254 0 353 -127.5t63 -423.5q-35 -291 -171 -422t-390 -131q-243 0 -343 129.5t-65 421.5zM412 1366l448 256l88 -274l-481 -181zM414 526q-38 -293 116 -293q153 0 191 293q16 113 4 178t-40 90t-79 25q-80 0 -126.5 -64.5 t-65.5 -228.5z" />
<glyph unicode="&#xf4;" horiz-adv-x="1089" d="M84 526q35 290 171 421.5t382 131.5q254 0 353 -127.5t63 -423.5q-35 -291 -171 -422t-390 -131q-243 0 -343 129.5t-65 421.5zM344 1315l260 260h184l197 -260l-184 -146l-135 164l-172 -164zM414 526q-38 -293 116 -293q153 0 191 293q16 113 4 178t-40 90t-79 25 q-80 0 -126.5 -64.5t-65.5 -228.5z" />
<glyph unicode="&#xf5;" horiz-adv-x="1089" d="M84 526q35 290 171 421.5t382 131.5q254 0 353 -127.5t63 -423.5q-35 -291 -171 -422t-390 -131q-243 0 -343 129.5t-65 421.5zM311 1329q46 74 113.5 126t132.5 52q67 0 141 -45q79 -43 117 -43q53 0 113 66l104 -135q-38 -64 -111 -112t-143 -48q-61 0 -135 45t-113 45 q-49 0 -122 -82zM414 526q-38 -293 116 -293q153 0 191 293q16 113 4 178t-40 90t-79 25q-80 0 -126.5 -64.5t-65.5 -228.5z" />
<glyph unicode="&#xf6;" horiz-adv-x="1089" d="M84 526q35 290 171 421.5t382 131.5q254 0 353 -127.5t63 -423.5q-35 -291 -171 -422t-390 -131q-243 0 -343 129.5t-65 421.5zM324 1239l34 287h287l-35 -287h-286zM414 526q-38 -293 116 -293q153 0 191 293q16 113 4 178t-40 90t-79 25q-80 0 -126.5 -64.5 t-65.5 -228.5zM707 1239l34 287h289l-35 -287h-288z" />
<glyph unicode="&#xf7;" horiz-adv-x="1077" d="M51 442l33 263h934l-33 -263h-934zM336 217q8 69 59.5 117.5t118.5 48.5q66 0 107 -48.5t34 -117.5q-7 -68 -60 -116t-120 -48t-107 47.5t-32 116.5zM422 932q11 70 62 118t118 48q66 0 106.5 -48.5t32.5 -117.5q-7 -69 -59.5 -116.5t-118.5 -47.5q-67 0 -108 47.5 t-33 116.5z" />
<glyph unicode="&#xf8;" horiz-adv-x="1089" d="M96 526q35 290 171 421.5t382 131.5q82 0 146 -12l102 168l145 -78l-92 -156q161 -122 115 -473q-35 -291 -171 -422t-390 -131q-92 0 -150 15l-90 -156l-151 80l88 147q-146 127 -105 465zM418 430l229 387q-6 2 -29 2q-80 0 -126.5 -64.5t-65.5 -228.5q-8 -65 -8 -96z M502 240q21 -7 41 -7q152 0 190 293q2 9 8 121z" />
<glyph unicode="&#xf9;" d="M82 334l86 717h340l-78 -650q-21 -161 98 -161q68 0 117 30l94 781h342l-92 -758q-22 -184 4 -303h-301l-26 90q-121 -103 -275 -103q-166 0 -249 88.5t-60 268.5zM373 1346l155 276l387 -256l-106 -199z" />
<glyph unicode="&#xfa;" d="M82 334l86 717h340l-78 -650q-21 -161 98 -161q68 0 117 30l94 781h342l-92 -758q-22 -184 4 -303h-301l-26 90q-121 -103 -275 -103q-166 0 -249 88.5t-60 268.5zM422 1366l450 256l86 -274l-479 -181z" />
<glyph unicode="&#xfb;" d="M82 334l86 717h340l-78 -650q-21 -161 98 -161q68 0 117 30l94 781h342l-92 -758q-22 -184 4 -303h-301l-26 90q-121 -103 -275 -103q-166 0 -249 88.5t-60 268.5zM342 1315l262 260h184l197 -260l-186 -146l-133 164l-172 -164z" />
<glyph unicode="&#xfc;" d="M82 334l86 717h340l-78 -650q-21 -161 98 -161q68 0 117 30l94 781h342l-92 -758q-22 -184 4 -303h-301l-26 90q-121 -103 -275 -103q-166 0 -249 88.5t-60 268.5zM307 1239l35 287h289l-35 -287h-289zM690 1239l35 287h289l-35 -287h-289z" />
<glyph unicode="&#xfd;" horiz-adv-x="1116" d="M-33 -416l72 262q195 -77 338 -77q95 0 153 59.5t84 196.5q-76 -58 -192 -58q-81 0 -143 17t-103 45t-68.5 72.5t-40.5 91t-16.5 109t0 118.5t12.5 127q35 272 127 504h334q-105 -293 -129 -492q-24 -175 6 -257.5t127 -82.5q58 0 111 27l98 805h346l-127 -1049 q-13 -109 -52 -195.5t-94 -142.5t-126 -93.5t-144.5 -53t-154.5 -15.5q-205 0 -418 82zM385 1366l449 256l86 -274l-480 -181z" />
<glyph unicode="&#xfe;" horiz-adv-x="1148" d="M-31 -416l226 1850h348l-47 -383q124 28 221 28q205 0 302 -121.5t66 -377.5q-71 -605 -602 -605q-69 0 -116 7l-48 -398h-350zM397 250q44 -8 76 -8q118 0 178 74.5t78 222.5q34 278 -133 278q-60 0 -131 -24z" />
<glyph unicode="&#xff;" horiz-adv-x="1116" d="M-33 -416l72 262q195 -77 338 -77q95 0 153 59.5t84 196.5q-76 -58 -192 -58q-81 0 -143 17t-103 45t-68.5 72.5t-40.5 91t-16.5 109t0 118.5t12.5 127q35 272 127 504h334q-105 -293 -129 -492q-24 -175 6 -257.5t127 -82.5q58 0 111 27l98 805h346l-127 -1049 q-13 -109 -52 -195.5t-94 -142.5t-126 -93.5t-144.5 -53t-154.5 -15.5q-205 0 -418 82zM319 1239l35 287h289l-35 -287h-289zM705 1239l34 287h287l-35 -287h-286z" />
<glyph unicode="&#x152;" horiz-adv-x="1906" d="M70.5 532q2.5 71 13.5 152q27 237 115 403q161 306 557 306q138 0 291 -25h864l-35 -274h-567l-31 -250h534l-32 -271h-535l-37 -294h584l-33 -279h-885q-151 -23 -299 -23q-101 0 -181.5 20.5t-135.5 56.5t-93.5 89t-59 112t-29 132.5t-6 144.5zM432 684 q-29 -228 25 -336t202 -108q113 0 230 30l102 836q-82 27 -221 27q-151 0 -231 -109t-107 -340z" />
<glyph unicode="&#x153;" horiz-adv-x="1671" d="M84 526q35 290 171 421.5t382 131.5q218 0 307 -121q127 121 326 121q219 0 315 -108t72 -299q-16 -101 -51 -199h-564v-4q-13 -115 38.5 -173t158.5 -58q143 0 317 59l-4 -260q-210 -64 -378 -64q-226 0 -336 131q-123 -129 -346 -129q-243 0 -343 129.5t-65 421.5z M422 526q-20 -158 8 -225.5t100 -67.5q75 0 120 67t65 226q20 166 -7 229.5t-102 63.5q-74 0 -121 -59q-42 -56 -63 -234zM1073 680h283q9 158 -109 158q-68 0 -111.5 -44.5t-62.5 -113.5z" />
<glyph unicode="&#x178;" horiz-adv-x="1214" d="M78 1368h368l193 -504l319 504h365l-545 -823l-65 -545h-357l66 545zM379 1483l37 286h289l-37 -286h-289zM762 1483l37 286h288l-36 -286h-289z" />
<glyph unicode="&#x2c6;" horiz-adv-x="792" d="M162 1315l260 260h186l195 -260l-185 -146l-135 164l-172 -164z" />
<glyph unicode="&#x2dc;" horiz-adv-x="952" d="M207 1329q46 74 113.5 126t132.5 52q67 0 141 -45q79 -43 117 -43q52 0 112 66l105 -135q-38 -64 -111 -112t-143 -48q-61 0 -135 45t-113 45q-50 0 -123 -82z" />
<glyph unicode="&#x2000;" horiz-adv-x="962" />
<glyph unicode="&#x2001;" horiz-adv-x="1925" />
<glyph unicode="&#x2002;" horiz-adv-x="962" />
<glyph unicode="&#x2003;" horiz-adv-x="1925" />
<glyph unicode="&#x2004;" horiz-adv-x="641" />
<glyph unicode="&#x2005;" horiz-adv-x="481" />
<glyph unicode="&#x2006;" horiz-adv-x="320" />
<glyph unicode="&#x2007;" horiz-adv-x="320" />
<glyph unicode="&#x2008;" horiz-adv-x="240" />
<glyph unicode="&#x2009;" horiz-adv-x="385" />
<glyph unicode="&#x200a;" horiz-adv-x="106" />
<glyph unicode="&#x2010;" horiz-adv-x="1026" d="M72 442l32 263h842l-33 -263h-841z" />
<glyph unicode="&#x2011;" horiz-adv-x="1026" d="M72 442l32 263h842l-33 -263h-841z" />
<glyph unicode="&#x2012;" horiz-adv-x="1026" d="M72 442l32 263h842l-33 -263h-841z" />
<glyph unicode="&#x2013;" horiz-adv-x="1116" d="M72 442l32 263h934l-32 -263h-934z" />
<glyph unicode="&#x2014;" horiz-adv-x="1396" d="M72 442l32 263h1213l-33 -263h-1212z" />
<glyph unicode="&#x2018;" horiz-adv-x="509" d="M137 1077q27 213 234 396h278q-203 -218 -221 -365q-10 -69 23 -166h-299q-21 76 -15 135z" />
<glyph unicode="&#x2019;" horiz-adv-x="573" d="M92 899q206 218 221 365q10 71 -22 166h299q20 -74 14 -136q-27 -214 -235 -395h-277z" />
<glyph unicode="&#x201a;" horiz-adv-x="501" d="M-147 -252q204 222 219 363q8 50 -23 168h297q22 -73 16 -138q-27 -212 -235 -393h-274z" />
<glyph unicode="&#x201c;" horiz-adv-x="864" d="M137 1077q27 213 234 396h278q-203 -218 -221 -365q-10 -69 23 -166h-299q-21 76 -15 135zM492 1077q27 218 235 396h277q-204 -216 -222 -365q-10 -69 23 -166h-297q-22 73 -16 135z" />
<glyph unicode="&#x201d;" horiz-adv-x="927" d="M92 899q206 218 221 365q10 71 -22 166h299q20 -74 14 -136q-27 -214 -235 -395h-277zM449 899q204 216 219 365q8 45 -21 166h295q25 -73 16 -136q-27 -213 -233 -395h-276z" />
<glyph unicode="&#x201e;" horiz-adv-x="856" d="M-147 -252q204 222 219 363q8 50 -23 168h297q22 -73 16 -138q-27 -212 -235 -393h-274zM211 -252q206 215 221 363q10 71 -22 168h297q20 -74 14 -138q-27 -210 -234 -393h-276z" />
<glyph unicode="&#x2022;" horiz-adv-x="737" d="M127 645q15 108 98 182t191 74q111 0 176 -74q66 -75 51 -182q-12 -107 -96 -182q-83 -74 -195 -74q-107 0 -172 74t-53 182z" />
<glyph unicode="&#x2026;" horiz-adv-x="1353" d="M-2 0l39 332h350l-39 -332h-350zM432 0l39 332h350l-39 -332h-350zM860 0l39 332h350l-39 -332h-350z" />
<glyph unicode="&#x202f;" horiz-adv-x="385" />
<glyph unicode="&#x2039;" horiz-adv-x="698" d="M51 512l17 125l415 407l179 -182l-297 -289l227 -280l-223 -191z" />
<glyph unicode="&#x203a;" horiz-adv-x="696" d="M29 293l297 280l-228 289l226 182l313 -407l-16 -125l-414 -410z" />
<glyph unicode="&#x205f;" horiz-adv-x="481" />
<glyph unicode="&#x20ac;" horiz-adv-x="1202" d="M4 457l25 194h125l2 27q8 59 10 67h-129l24 195h160q85 203 251 306.5t380 103.5q185 0 371 -76l-86 -268q-157 77 -287 77q-166 0 -254 -143h272l-24 -195h-320l-10 -65l-2 -29h322l-25 -194h-291q22 -109 94.5 -155t200.5 -46q80 0 244 20l-15 -251q-185 -37 -333 -37 q-522 0 -562 469h-143z" />
<glyph unicode="&#x2122;" horiz-adv-x="1558" d="M154 1217l20 151h578l-21 -151h-190l-76 -629h-201l76 629h-186zM684 588l137 780h211l86 -426l189 426h211l-54 -780h-190l37 426l-152 -332h-149l-70 334l-66 -428h-190z" />
<glyph unicode="&#x25fc;" horiz-adv-x="1054" d="M0 0v1055h1055v-1055h-1055z" />
</font>
</defs>
</svg>
