<?xml version="1.0" standalone="no"?>
<!DOCTYPE svg PUBLIC "-//W3C//DTD SVG 1.1//EN" "http://www.w3.org/Graphics/SVG/1.1/DTD/svg11.dtd" >
<svg xmlns="http://www.w3.org/2000/svg">
<metadata></metadata>
<defs>
<font id="marinelight_italic" horiz-adv-x="1081" >
<font-face units-per-em="2048" ascent="1559" descent="-489" />
<missing-glyph horiz-adv-x="436" />
<glyph unicode="&#xfb01;" horiz-adv-x="1118" d="M88 922l12 106h203l10 80q22 184 133.5 271t290.5 87q169 0 262 -34l-34 -115q-93 37 -232 37q-122 0 -200 -60t-95 -180l-10 -86h596l-125 -1028h-125l113 922h-473l-158 -1289h-125l158 1289h-201z" />
<glyph unicode="&#xfb02;" horiz-adv-x="1249" d="M88 922l12 106h199l10 80q43 358 426 358q186 0 375 -65l-147 -1206q-6 -61 15.5 -87t70.5 -26q65 0 133 18l-2 -98q-95 -29 -174 -29q-199 0 -172 220l137 1122q-112 37 -242 37q-123 0 -200.5 -59.5t-94.5 -178.5l-10 -86h305l-12 -106h-303l-160 -1291h-125l160 1291 h-201z" />
<glyph horiz-adv-x="0" />
<glyph horiz-adv-x="682" />
<glyph unicode=" "  horiz-adv-x="436" />
<glyph unicode="&#x09;" horiz-adv-x="436" />
<glyph unicode="&#xa0;" horiz-adv-x="436" />
<glyph unicode="!" horiz-adv-x="430" d="M57 0l21 182h176l-21 -182h-176zM141 350l113 1084h152l-156 -1084h-109z" />
<glyph unicode="&#x22;" horiz-adv-x="653" d="M193 985l30 449h133l-73 -449h-90zM475 985l31 449h133l-76 -449h-88z" />
<glyph unicode="#" horiz-adv-x="1187" d="M80 401l14 117h199l88 305h-242l15 117h262l127 426h131l-127 -426h239l127 426h129l-127 -426h218l-15 -117h-237l-88 -305h280l-14 -117h-301l-131 -430h-129l131 430h-238l-131 -430h-131l129 430h-178zM424 518h240l86 305h-236z" />
<glyph unicode="$" horiz-adv-x="1017" d="M59 98l52 127q171 -80 317 -80q136 0 222.5 57t99.5 175q15 114 -72 174q-41 31 -78 49.5t-108 46.5q-176 70 -251 150t-59 209q37 306 363 344l26 206h117l-24 -200q142 -3 260 -62l-35 -114q-111 63 -260 63q-274 0 -301 -211q-12 -108 67 -170q69 -50 187 -94 q172 -66 250 -153.5t61 -217.5q-20 -159 -124.5 -252.5t-268.5 -117.5l-27 -211h-117l27 204q-168 3 -324 78z" />
<glyph unicode="%" horiz-adv-x="1716" d="M215 1044q27 210 102 285q78 78 211 78q134 0 189 -76t28 -284q-27 -212 -102 -287q-74 -74 -209 -74q-131 0 -190 74q-56 74 -29 284zM317 0l947 1413h125l-943 -1413h-129zM317 1047q-18 -150 12.5 -213.5t116.5 -63.5t132.5 63.5t64.5 213.5q19 148 -12 213t-117 65 q-85 0 -131 -64.5t-66 -213.5zM983 344q27 210 102 285q78 78 211 78q134 0 189 -76t28 -285q-27 -212 -102 -287q-73 -73 -209 -73q-132 0 -190 73q-56 77 -29 285zM1087 346q-19 -150 11 -213t116 -63t132.5 63t64.5 213q19 148 -12 213.5t-117 65.5q-85 0 -130 -63.5 t-65 -215.5z" />
<glyph unicode="&#x26;" horiz-adv-x="1464" d="M94 356q19 154 118.5 259t289.5 194q-60 89 -81 153.5t-11 143.5q17 140 110 219.5t240 79.5q134 0 202.5 -67t55.5 -185q-15 -114 -111 -207q-63 -59 -82 -74q-44 -34 -100 -73l-35 -25l330 -420q180 198 233 449h123q-61 -307 -282 -547q64 -67 149 -129 q91 -66 146 -90l-68 -100q-64 22 -158 86q-108 74 -174 137q-118 -102 -231 -147.5t-258 -45.5q-215 0 -322 100.5t-84 288.5zM231 377q-17 -140 57.5 -213.5t237.5 -73.5q120 0 211 38.5t193 127.5l-367 461q-157 -71 -239 -146q-78 -72 -93 -194zM537 1116 q-12 -116 88 -258q126 84 184 148t68 147q18 154 -136 154q-85 0 -139 -54t-65 -137z" />
<glyph unicode="'" horiz-adv-x="393" d="M188 942l39 492h150l-84 -492h-105z" />
<glyph unicode="(" horiz-adv-x="563" d="M164 639q59 465 418 922l90 -62q-323 -428 -375 -860q-55 -424 164 -858l-105 -62q-250 460 -192 920z" />
<glyph unicode=")" horiz-adv-x="563" d="M-39 -219q324 420 379 858q52 439 -168 860l109 62q250 -460 192 -922q-58 -463 -418 -920z" />
<glyph unicode="*" horiz-adv-x="788" d="M160 999l227 101l-201 104l68 101l172 -138l16 244h109l-45 -244l207 138l45 -101l-228 -98l201 -107l-67 -96l-175 135l-14 -243h-108l45 243l-207 -135z" />
<glyph unicode="+" horiz-adv-x="1011" d="M96 547l17 125h348l39 323h114l-39 -323h349l-17 -125h-348l-39 -328h-114l38 328h-348z" />
<glyph unicode="," horiz-adv-x="425" d="M-98 -268q173 182 188 334q12 73 -8 139h149q13 -58 7 -113q-21 -194 -211 -360h-125z" />
<glyph unicode="-" horiz-adv-x="952" d="M131 547l16 125h682l-16 -125h-682z" />
<glyph unicode="." horiz-adv-x="411" d="M47 0l21 182h178l-21 -182h-178z" />
<glyph unicode="/" horiz-adv-x="860" d="M-33 -31l856 1483l99 -41l-854 -1483z" />
<glyph unicode="0" horiz-adv-x="1132" d="M117.5 434.5q0.5 106.5 17.5 243.5q50 408 174 561q128 158 371 158q238 0 321 -154q84 -156 35 -557q-50 -400 -180 -557q-134 -158 -364 -158q-75 0 -132.5 14t-104.5 46.5t-76.5 86.5t-45.5 132t-15.5 184.5zM276 684q-43 -344 5 -471q49 -123 231 -123q180 0 260 123 q79 123 123 471q16 140 17 239.5t-12.5 169t-45.5 110.5t-78 59t-114 18q-176 0 -261 -129q-85 -130 -125 -467z" />
<glyph unicode="1" horiz-adv-x="698" d="M115 1227l407 151h103l-168 -1378h-129l149 1231l-342 -105z" />
<glyph unicode="2" horiz-adv-x="1028" d="M-8 0l14 127q64 53 176 137q140 105 209 164q77 66 182 166q204 198 228 397q17 137 -55.5 206t-208.5 69q-146 0 -314 -70l-10 109q186 86 369 86q184 0 280 -101t72 -297q-27 -234 -279 -477q-133 -130 -223 -203q-74 -60 -242 -184h701l-14 -129h-885z" />
<glyph unicode="3" horiz-adv-x="964" d="M10 37l37 119q131 -64 287 -64q150 0 248.5 77t117.5 232q17 131 -71 207t-260 76h-101l13 104q218 1 321 68.5t121 206.5q13 113 -48.5 166t-182.5 53q-153 0 -287 -57l-10 106q153 66 321 66q160 0 264 -78q101 -76 80 -246q-27 -242 -250 -319q265 -78 230 -348 q-27 -219 -172 -328q-144 -105 -344 -105q-165 0 -314 64z" />
<glyph unicode="4" horiz-adv-x="1116" d="M33 385l10 92l739 891h136l-109 -870h235l-12 -113h-235l-47 -385h-134l48 385h-631zM205 498h471l82 665z" />
<glyph unicode="5" horiz-adv-x="1003" d="M37 39l53 125q139 -68 283 -68q336 0 377 348q17 142 -49.5 214.5t-192.5 72.5q-112 0 -254 -65l-76 43l82 659h666l-15 -117h-536l-56 -438q121 39 244 39q175 0 264.5 -98.5t65.5 -298.5q-31 -246 -166 -364t-344 -118q-199 0 -346 66z" />
<glyph unicode="6" horiz-adv-x="1054" d="M158 588q15 121 47.5 234t88 217.5t127.5 182t173 123.5t217 46q84 0 190 -29l-30 -109q-76 21 -152 21q-186 0 -308 -127t-179 -365q166 90 336 90q171 0 259 -101.5t64 -301.5q-12 -104 -44 -190t-88 -157t-146.5 -111t-208.5 -40q-214 0 -303 138q-86 139 -43 479z M286 418q-2 -98 10 -164t44 -101.5t75.5 -50t110.5 -14.5q151 0 229.5 95.5t102.5 285.5q17 141 -44 208.5t-183 67.5q-149 0 -326 -86q-17 -143 -19 -241z" />
<glyph unicode="7" horiz-adv-x="911" d="M133 1241l17 127h823l-15 -104q-115 -175 -200 -312q-38 -60 -176 -297q-199 -345 -287 -655h-145q35 176 233 551q203 388 422 690h-672z" />
<glyph unicode="8" d="M98 354q15 124 105 228q86 102 213 153q-192 119 -168 328q20 160 131.5 247t292.5 87q182 0 267.5 -80t68.5 -230q-13 -113 -90.5 -203t-202.5 -145q146 -58 210 -147t46 -232q-21 -165 -140 -278q-117 -111 -333 -111q-224 0 -324 99.5t-76 283.5zM236 354 q-17 -132 51.5 -199t216.5 -67q299 0 334 277q13 112 -63 181t-267 142q-245 -120 -272 -334zM373 1079q-24 -198 237 -297q120 49 192 128.5t83 162.5q13 107 -44.5 159t-181.5 52q-121 0 -197.5 -52t-88.5 -153z" />
<glyph unicode="9" horiz-adv-x="1054" d="M141 0l31 109q76 -21 152 -21q365 0 485 492q-160 -91 -334 -91q-171 0 -259.5 102t-63.5 302q12 104 44 190t88 157t146.5 111t208.5 40q214 0 301 -140q85 -138 45 -477q-12 -100 -37.5 -195.5t-64 -186.5t-93.5 -166.5t-121.5 -133t-153 -89.5t-183.5 -32 q-89 0 -191 29zM287 893q-17 -142 42 -209.5t181 -67.5q151 0 328 86q17 143 18.5 241.5t-10.5 164t-44 101.5t-75.5 50.5t-110.5 14.5q-149 0 -227 -95.5t-102 -285.5z" />
<glyph unicode=":" horiz-adv-x="448" d="M66 0l20 182h176l-20 -182h-176zM145 655l23 183h176l-22 -183h-177z" />
<glyph unicode=";" horiz-adv-x="493" d="M-51 -268q175 175 190 334q12 73 -8 139h150q14 -58 8 -113q-23 -195 -213 -360h-127zM137 420l23 182h176l-23 -182h-176z" />
<glyph unicode="&#x3c;" horiz-adv-x="886" d="M86 549l16 121l705 342l-16 -129l-541 -273l475 -274l-16 -129z" />
<glyph unicode="=" horiz-adv-x="997" d="M113 342l14 125h715l-15 -125h-714zM164 754l14 125h715l-14 -125h-715z" />
<glyph unicode="&#x3e;" horiz-adv-x="886" d="M88 207l16 129l539 274l-473 273l16 129l623 -342l-16 -121z" />
<glyph unicode="?" horiz-adv-x="704" d="M59 0l21 182h176l-20 -182h-177zM133 340q0 32 10 127l4 20q22 93 79.5 167t158.5 153l49 41q1 1 21.5 20t25.5 25q51 62 64 93q11 24 14 50q23 218 -360 254l41 125q217 -9 346 -108t108 -258q-18 -160 -213 -308q-66 -49 -92 -75q-40 -37 -77.5 -93.5t-49.5 -111.5 l-18 -121h-111z" />
<glyph unicode="@" horiz-adv-x="1519" d="M129 604q41 343 274 567q235 226 545 226q291 0 429 -165t102 -452q-65 -510 -371 -510q-75 0 -125 37t-57 105q-37 -61 -105.5 -102.5t-144.5 -41.5q-123 0 -188 82t-46 223q27 209 156 338q131 131 303 131q117 0 234 -57l-86 -418l-13 -73q-15 -140 99 -140 q174 0 227 428q30 239 -77.5 374.5t-354.5 135.5q-250 0 -443 -190q-190 -184 -231 -488q-35 -293 100 -448q140 -158 371 -158q230 0 455 144l41 -93q-248 -161 -527 -161q-106 0 -198.5 27.5t-168.5 85t-127 140t-71 199t-2 254.5zM563 592q-14 -113 23 -173.5t121 -60.5 q81 0 142 66.5t81 175.5l71 334q-55 22 -106 22q-125 0 -219 -104q-95 -106 -113 -260z" />
<glyph unicode="A" horiz-adv-x="1189" d="M-43 0l647 1368h178l312 -1368h-138l-84 369h-604l-172 -369h-139zM322 487h524l-168 777z" />
<glyph unicode="B" horiz-adv-x="1146" d="M104 27l160 1304q246 37 371 37q180 0 285 -65q100 -62 100 -207q0 -29 -4 -62q-12 -100 -67 -176.5t-144 -114.5q225 -68 225 -292q0 -31 -4 -64q-13 -111 -67 -192.5t-140 -124.5q-163 -82 -377 -82q-175 0 -338 39zM250 125q114 -27 229 -27q373 0 410 295q3 24 3 45 q0 112 -78 170q-94 68 -275 68h-222zM332 797h280q116 6 186.5 65.5t82.5 161.5q1 15 1 29q0 49 -14 87q-18 48 -55.5 73t-86.5 35q-41 9 -94 9h-20q-96 0 -225 -20z" />
<glyph unicode="C" horiz-adv-x="1087" d="M164 692q15 117 43.5 214.5t66.5 169t86.5 127.5t101.5 92t114 59.5t120.5 33t124.5 9.5q185 0 312 -56l-33 -116q-131 55 -287 55q-201 0 -334 -133q-127 -130 -168 -453q-12 -114 -12 -203q1 -4 1 -7q0 -91 21.5 -158t52 -112t79.5 -72.5t104.5 -39.5t126.5 -12 q111 0 287 29v-113q-140 -35 -318 -35q-300 0 -415 195q-85 145 -85 362q0 78 11 164z" />
<glyph unicode="D" horiz-adv-x="1290" d="M102 14l164 1336q217 24 359 24q162 0 270.5 -32.5t185.5 -106.5q119 -115 119 -373q0 -82 -12 -180q-50 -405 -266 -561q-103 -74 -218 -106.5t-264 -32.5q-147 0 -338 32zM252 127q125 -23 211 -23q243 0 393 141.5t186 438.5q9 75 9 140q-1 194 -79 298 q-104 140 -358 140q-103 0 -225 -17z" />
<glyph unicode="E" horiz-adv-x="1062" d="M102 0l168 1368h756l-16 -121h-621l-59 -481h588l-15 -121h-588l-63 -524h643l-14 -121h-779z" />
<glyph unicode="F" horiz-adv-x="1017" d="M102 0l168 1368h756l-16 -121h-621l-59 -481h585l-14 -121h-586l-77 -645h-136z" />
<glyph unicode="G" horiz-adv-x="1202" d="M142 447q-2 33 -2 70q0 77 10 169q24 198 92 344.5t166 222.5q189 144 423 144q189 0 318 -60l-35 -120q-111 57 -301 57t-334 -135q-141 -132 -182 -445q-10 -79 -10 -147q0 -451 418 -451q100 0 229 29l61 508h123l-71 -594q-210 -66 -377 -66q-84 0 -156.5 15.5 t-138.5 50t-113 89.5t-80 134.5t-40 184.5z" />
<glyph unicode="H" horiz-adv-x="1300" d="M102 0l168 1368h136l-76 -602h688l76 602h133l-168 -1368h-133l78 645h-689l-77 -645h-136z" />
<glyph unicode="I" horiz-adv-x="481" d="M102 0l168 1368h136l-168 -1368h-136z" />
<glyph unicode="J" horiz-adv-x="483" d="M-180 -313l18 104q86 -4 99 -4q74 0 115 39t52 137l175 1405h133l-174 -1403q-35 -293 -293 -293q-48 0 -125 15z" />
<glyph unicode="K" horiz-adv-x="1187" d="M102 0l168 1368h136l-78 -620h137l555 618h168l-619 -674l521 -692h-183l-458 627h-136l-75 -627h-136z" />
<glyph unicode="L" horiz-adv-x="923" d="M102 0l168 1368h133l-153 -1247h577l-14 -121h-711z" />
<glyph unicode="M" horiz-adv-x="1650" d="M78 0l227 1368h172l326 -1014l567 1014h172l-108 -1368h-134l101 1169l-563 -993h-125l-316 993l-186 -1169h-133z" />
<glyph unicode="N" horiz-adv-x="1392" d="M102 0l168 1368h164l606 -1163l144 1163h135l-168 -1368h-164l-608 1165l-141 -1165h-136z" />
<glyph unicode="O" horiz-adv-x="1306" d="M135 684q83 713 631 713q92 0 165.5 -20t124.5 -54.5t87 -86.5t56 -111t28 -133q6 -59 7 -118q0 -15 -1 -30q-2 -74 -12 -160q-19 -158 -58.5 -277t-109.5 -221q-151 -215 -467 -215q-161 0 -267.5 56.5t-148.5 156.5q-53 136 -53 300q0 95 18 200zM264 377 q12 -137 98 -214t242 -77q238 0 348 172q53 85 83 184.5t48 241.5q11 104 13 195v21q0 79 -17 145q-19 75 -56 129t-105 84q-66 29 -160 28h-6q-239 0 -351 -174q-52 -82 -81.5 -182.5t-47.5 -245.5q-11 -110 -11 -208q0 -51 3 -99z" />
<glyph unicode="P" horiz-adv-x="1105" d="M102 0l164 1343q218 27 342 27q179 0 293 -41q189 -66 188 -287q0 -35 -4 -73q-18 -154 -108 -258q-87 -94 -198.5 -132t-262.5 -38q-112 0 -211 18l-67 -559h-136zM319 670q129 -17 201 -17q388 0 426 305q4 33 4 62q0 138 -94 188q-54 30 -113 41t-149 11 q-91 0 -205 -15z" />
<glyph unicode="Q" horiz-adv-x="1327" d="M125 684q83 713 631 713q92 0 165.5 -20t124.5 -54.5t87 -86.5t55.5 -111t27.5 -133q6 -59 6 -118v-30q-2 -74 -12 -160q-70 -555 -407 -676q285 -46 473 -158l-94 -102q-11 9 -95 53q-83 40 -122 56q-170 68 -410 116q-122 1 -213 40t-143 104q-51 70 -70 157 q-20 91 -20 201q0 97 16 209zM254 377q12 -137 98 -214t242 -77q238 0 348 172q53 85 83 184.5t48 241.5q10 104 13 195v21q0 79 -17 145q-19 75 -56.5 129t-106.5 84q-66 28 -159 28h-6q-238 0 -350 -174q-52 -82 -81.5 -182.5t-47.5 -245.5q-11 -110 -11 -208q0 -51 3 -99 z" />
<glyph unicode="R" horiz-adv-x="1146" d="M102 0l164 1343q187 27 330 27q118 0 199 -15t153 -55q76 -39 110 -124q23 -57 23 -130q0 -37 -6 -77q-44 -339 -381 -412l326 -557h-168l-305 539h-43q-90 0 -199 16l-67 -555h-136zM319 670q115 -23 201 -23q76 0 140.5 14.5t125 47.5t100.5 96.5t50 152.5q4 33 4 61 q0 139 -96 189q-54 30 -113 41t-149 11q-79 0 -193 -15z" />
<glyph unicode="S" horiz-adv-x="1013" d="M25 53l45 127q171 -82 338 -82q147 0 239 62t109 190q2 19 2 36q0 100 -74 155q-45 33 -83 52t-122 50q-181 71 -264 150q-66 66 -66 177q0 25 3 52q24 200 157 283q133 86 328 86q178 0 297 -64l-35 -113q-107 64 -276 64q-299 0 -326 -229q-2 -18 -2 -34q0 -96 74 -151 q69 -50 200 -100q191 -70 271 -159q66 -73 66 -185q0 -24 -3 -49q-27 -202 -174 -301q-151 -97 -350 -97q-194 0 -354 80z" />
<glyph unicode="T" horiz-adv-x="995" d="M117 1247l16 121h926l-17 -121h-397l-151 -1247h-132l152 1247h-397z" />
<glyph unicode="U" horiz-adv-x="1284" d="M186 494l109 874h133l-104 -844q-9 -74 -10 -135q0 -30 3 -57q7 -81 39.5 -134t96 -78.5t163.5 -25.5q196 0 281 99q91 104 117 331l104 844h133l-108 -874q-32 -270 -162.5 -396t-382.5 -127q-244 0 -344 127q-76 96 -76 274q0 57 8 122z" />
<glyph unicode="V" horiz-adv-x="1155" d="M125 1368h151l250 -1208l555 1208h144l-635 -1368h-164z" />
<glyph unicode="W" horiz-adv-x="1669" d="M188 0l11 1368h139l-33 -1221l541 1115h141l275 -1112l266 1218h141l-330 -1368h-182l-260 1092l-518 -1092h-191z" />
<glyph unicode="X" horiz-adv-x="1187" d="M-25 0l547 696l-354 672h156l297 -561l434 561h157l-524 -655l387 -713h-174l-309 594l-457 -594h-160z" />
<glyph unicode="Y" d="M117 1368h153l289 -670l457 670h141l-549 -805l-67 -563h-138l68 563z" />
<glyph unicode="Z" horiz-adv-x="1091" d="M25 0v111l872 1136h-707v121h861l-4 -119l-865 -1128h781l-15 -121h-923z" />
<glyph unicode="[" horiz-adv-x="614" d="M53 -289l230 1858h383l-15 -109l-258 -12l-198 -1618l256 -12l-15 -107h-383z" />
<glyph unicode="\" horiz-adv-x="747" d="M152 1491l116 41l355 -1620l-117 -41z" />
<glyph unicode="]" horiz-adv-x="616" d="M-35 -289l15 109l256 12l198 1618l-254 12l15 107h385l-230 -1858h-385z" />
<glyph unicode="^" horiz-adv-x="954" d="M90 608l418 705h117l245 -705h-129l-194 547l-328 -547h-129z" />
<glyph unicode="_" horiz-adv-x="1034" d="M66 0l14 125h764l-15 -125h-763z" />
<glyph unicode="`" horiz-adv-x="735" d="M272 1376l78 113l330 -221l-55 -84z" />
<glyph unicode="a" horiz-adv-x="1036" d="M150 502q15 122 52 217t88 155.5t118.5 99.5t138 54.5t151.5 15.5q154 0 316 -55l-101 -813q-3 -56 -3 -102t3 -82h-112l-10 86q-133 -103 -291 -103q-360 0 -360 390q0 63 10 137zM281 489q-7 -57 -8 -106q1 -123 47 -195q64 -100 227 -100q109 0 237 84l90 731 q-95 33 -188 33q-167 0 -272 -108.5t-133 -338.5z" />
<glyph unicode="b" horiz-adv-x="1071" d="M80 35l170 1399h123l-54 -447q165 68 304 68q191 1 283 -131q69 -98 68 -266q0 -56 -7 -119q-15 -120 -50 -217t-96.5 -178.5t-161 -127t-229.5 -45.5q-207 0 -350 64zM213 131q82 -43 238 -43q324 0 383 449q6 53 6 99q0 127 -48 200q-66 100 -206 100q-124 0 -281 -68z " />
<glyph unicode="c" horiz-adv-x="915" d="M123 512q35 270 180 406q146 137 346 137q158 0 262 -58l-41 -108q-91 49 -227 49q-140 0 -248 -102t-135 -324q-6 -51 -6 -96q0 -144 62 -226q80 -106 239 -106q126 0 244 41l6 -102q-146 -52 -270 -52q-207 0 -328 133q-92 106 -92 293q0 54 8 115z" />
<glyph unicode="d" horiz-adv-x="1087" d="M115 471q70 571 516 571q169 0 254 -36l53 432h125l-156 -1262q-3 -54 -3 -99.5t3 -82.5h-116l-9 72q-137 -93 -274 -93q-401 0 -401 382q0 54 8 116zM256 473q-6 -51 -6 -96q0 -134 56 -201q76 -90 249 -90q105 0 221 72l90 733q-99 45 -225 45q-159 0 -259 -118.5 t-126 -344.5z" />
<glyph unicode="e" horiz-adv-x="993" d="M119 492q30 241 180 391q151 151 381 151q138 0 210 -78q60 -65 60 -158q0 -18 -2 -38q-12 -101 -69 -177t-136 -115.5t-171 -57.5q-72 -14 -138 -14q-19 0 -37 1q-84 5 -149 27q-1 -21 -1 -40q0 -117 46 -196q58 -94 213 -94q182 0 311 66l8 -109q-179 -78 -346 -78 q-208 -1 -299 139q-68 105 -68 267q0 53 7 113zM262 528q56 -24 142 -26q10 0 20 -1q76 0 151 17q90 21 155 80.5t77 142.5q2 17 2 33q1 61 -33 102q-42 52 -127 52q-86 0 -156.5 -36.5t-116 -97.5t-74 -127.5t-40.5 -138.5z" />
<glyph unicode="f" horiz-adv-x="710" d="M88 922l12 106h201l12 90q24 191 118 275t269 84q118 0 199 -35l-29 -103q-83 25 -192 25q-114 0 -168 -51.5t-72 -188.5l-12 -96h303l-12 -106h-303l-160 -1291h-125l160 1291h-201z" />
<glyph unicode="g" horiz-adv-x="1019" d="M31 -408l28 115q145 -53 328 -53q139 0 215.5 70.5t99.5 238.5l9 60q-91 -46 -246 -46q-94 0 -164.5 20.5t-114 60t-70 89t-35.5 115.5q-8 58 -8 113q0 10 1 19q1 65 12 145q65 508 535 508q122 0 340 -54l-127 -1040q-52 -418 -472 -418q-160 0 -331 57zM219 537 q-9 -70 -9 -129q0 -134 46 -212q68 -112 240 -112q125 0 227 45l96 774q-115 33 -203 33q-172 0 -272 -94.5t-125 -304.5z" />
<glyph unicode="h" horiz-adv-x="1058" d="M82 0l174 1434h125l-53 -449q177 74 325 74q153 0 228 -84q58 -65 58 -184q0 -35 -5 -74l-86 -717h-123l84 684q3 29 3 55q0 201 -206 201q-161 0 -293 -72l-106 -868h-125z" />
<glyph unicode="i" horiz-adv-x="364" d="M49 0l125 1028h125l-125 -1028h-125zM199 1233l22 184h125l-22 -184h-125z" />
<glyph unicode="j" horiz-adv-x="372" d="M-276 -389l28 110q76 -18 129 -18q143 0 158 145l145 1180h125l-141 -1171q-18 -141 -97 -209t-202 -68q-69 0 -145 31zM209 1233l22 184h125l-22 -184h-125z" />
<glyph unicode="k" horiz-adv-x="999" d="M82 0l172 1415l127 19l-102 -836q42 -5 80 -5q371 0 458 435h125q-50 -317 -324 -481l267 -547h-158l-225 506q-79 -21 -174 -21q-30 0 -62 2l-59 -487h-125z" />
<glyph unicode="l" horiz-adv-x="520" d="M131 193l152 1241h129l-152 -1239q-1 -13 -1 -25q1 -42 17 -62q22 -26 70 -26q66 0 133 18l-2 -98q-95 -29 -174 -29q-175 0 -175 171q0 23 3 49z" />
<glyph unicode="m" horiz-adv-x="1691" d="M80 0l117 952q270 103 448 103q184 0 248 -88q175 88 383 88q169 1 243 -77q56 -59 56 -178q0 -38 -6 -83l-86 -717h-125l84 684q4 36 4 67q0 93 -38 133q-52 54 -185 54q-155 0 -289 -61q9 -41 9 -87q0 -35 -5 -73l-86 -717h-123l84 684q4 36 4 66q-1 92 -39 133 q-52 55 -184 55q-167 0 -283 -70l-106 -868h-125z" />
<glyph unicode="n" horiz-adv-x="1073" d="M80 0l117 952q270 103 458 103q169 1 243 -77q56 -59 56 -178q0 -38 -6 -83l-86 -717h-123l84 684q4 36 4 66q-1 92 -39 133q-52 55 -184 55q-177 0 -293 -70l-106 -868h-125z" />
<glyph unicode="o" d="M129 512q34 281 163.5 411t350.5 130q219 1 309 -127q65 -92 66 -266q0 -67 -10 -146q-35 -282 -161.5 -412.5t-346.5 -130.5q-230 -1 -318 125q-63 89 -63 262q0 70 10 154zM262 512q-9 -72 -9 -130q0 -128 43 -196q63 -98 222 -98q304 0 356 424q10 82 10 147 q0 131 -42 189q-66 90 -217 90q-143 0 -238 -92t-125 -334z" />
<glyph unicode="p" horiz-adv-x="1077" d="M25 -449l174 1420q259 76 422 76q195 0 290 -115q71 -86 71 -259q0 -62 -9 -134q-12 -95 -35.5 -175.5t-66 -154t-101 -125.5t-143.5 -82.5t-189 -30.5q-105 0 -233 45l-55 -465h-125zM221 139q89 -51 236 -51q167 0 262 119.5t121 329.5q7 57 7 106q0 297 -261 297 q-136 0 -273 -51z" />
<glyph unicode="q" horiz-adv-x="1075" d="M102 379q-1 18 -1 36q0 49 8 99q37 263 172 401t366 138q193 0 348 -82l-174 -1420l-125 13l58 463q-115 -56 -246 -56q-87 0 -156 21t-114 58.5t-76.5 89t-43.5 112t-16 127.5zM234 382q1 -62 20.5 -115t52 -92.5t87 -63t126.5 -25.5q152 0 244 51l92 760 q-85 43 -225 43q-166 0 -264 -115t-125 -315q-8 -63 -8 -121v-7z" />
<glyph unicode="r" horiz-adv-x="659" d="M80 0l125 1028h110l-2 -94q135 106 303 106q36 0 70 -6l-35 -127q-36 8 -90 8q-150 0 -254 -73l-102 -842h-125z" />
<glyph unicode="s" horiz-adv-x="829" d="M20 43l48 115q134 -70 249 -70q233 0 254 172q2 13 2 24q0 40 -18 70q-23 40 -65 63.5t-93.5 43.5t-103 43t-92.5 53t-63 81q-16 36 -16 81q0 19 3 39q17 141 119 218t270 77q137 0 234 -60l-37 -110q-94 55 -207 55q-221 0 -242 -166q-1 -10 -2 -19q0 -37 20 -67 q24 -37 65.5 -61t93.5 -45t103 -45t92.5 -54t63.5 -80q17 -37 17 -82q0 -16 -2 -34q-19 -146 -126.5 -230t-289.5 -84q-184 0 -277 72z" />
<glyph unicode="t" horiz-adv-x="692" d="M90 922l12 106h140l32 260l129 19l-34 -279h333l-30 -106h-318l-86 -689q-1 -41 -1.5 -73.5t28 -53t92.5 -20.5q85 0 184 27l9 -101q-92 -32 -215 -32q-149 0 -193 59q-30 43 -30 132q0 37 5 83l82 668h-139z" />
<glyph unicode="u" horiz-adv-x="1067" d="M168 334l84 694h125l-84 -682q-4 -32 -4 -59q0 -97 49 -145q63 -60 211 -60q122 0 246 74l106 872h125l-104 -854q-3 -54 -3 -99t3 -81h-117l-8 67q-140 -88 -295 -88q-339 0 -339 286q0 35 5 75z" />
<glyph unicode="v" horiz-adv-x="983" d="M111 301l88 727h127l-80 -657q-9 -50 -10 -95q0 -8 1 -16q2 -52 16 -92t58.5 -63t118.5 -23q159 0 248 127q91 133 115 323q7 59 7 120q0 79 -12 161q-21 140 -73 215h137q78 -137 77 -328q0 -67 -9 -141q-22 -163 -76 -287q-57 -132 -174.5 -216.5t-270.5 -84.5 q-175 1 -243 77q-51 57 -51 170q0 39 6 83z" />
<glyph unicode="w" horiz-adv-x="1492" d="M111 301l88 727h127l-80 -657q-5 -39 -7 -65.5t-1.5 -59.5t6 -55t18.5 -45t33.5 -36t52.5 -21.5t74 -8.5q93 0 163 63t87 179l86 706h129l-80 -657q-5 -39 -7.5 -65.5t-2.5 -59.5t5 -54.5t16 -44t29 -35.5t46 -21.5t65 -8.5q152 0 238 127q89 130 113 323q9 70 9 136 q0 74 -11 145q-18 140 -70 215h131q74 -136 75 -323q0 -70 -11 -146q-11 -92 -35 -175t-65 -159.5t-94 -132t-128 -88.5t-162 -33q-215 0 -262 133q-127 -133 -297 -133q-169 0 -235 77q-49 57 -49 169q0 39 6 84z" />
<glyph unicode="x" horiz-adv-x="995" d="M-31 0l463 551l-289 477h150l221 -379l317 379h142l-408 -479l318 -549h-146l-256 446l-358 -446h-154z" />
<glyph unicode="y" horiz-adv-x="980" d="M-8 -408l31 115q145 -53 327 -53q139 0 216.5 70.5t99.5 238.5l6 51q-130 -43 -217 -43q-245 0 -328 150q-59 107 -59 277q0 69 10 149q37 288 166 481h133q-60 -73 -107 -205q-48 -137 -63 -272q-9 -72 -9 -133q0 -340 279 -340q90 0 211 47l111 903h125l-131 -1075 q-52 -418 -469 -418q-155 0 -332 57z" />
<glyph unicode="z" horiz-adv-x="888" d="M27 102l669 816h-518l-2 110h660v-110l-668 -805h143q291 0 455 -105l-55 -117q-101 52 -209 76q-119 26 -176 29q-86 4 -187 4h-108z" />
<glyph unicode="{" horiz-adv-x="727" d="M70 590l12 104h35q109 9 133 211l55 336q24 145 121 236q101 90 223 90h133l-12 -113h-154q-83 -6 -137 -78q-48 -68 -57 -137l-41 -287q-44 -287 -143 -313q98 -21 63 -334l-27 -270q-7 -25 -0.5 -60t20 -68t46 -57.5t76.5 -27.5h139l-14 -109h-119q-134 0 -206 86 t-60 232l26 329q38 227 -76 230h-36z" />
<glyph unicode="|" horiz-adv-x="450" d="M82 -90l188 1528h125l-188 -1528h-125z" />
<glyph unicode="}" horiz-adv-x="727" d="M-27 -287l15 109h139q84 3 135 76q51 68 60 137l38 270q41 313 146 334q-93 27 -66 313l29 287q9 67 -25 137q-35 72 -116 78h-154l12 113h133q125 0 203 -90q79 -91 64 -236l-27 -336q-24 -202 80 -211h35l-12 -104h-37q-61 -1 -90 -55t-43 -175l-56 -329 q-20 -142 -115 -230t-229 -88h-119z" />
<glyph unicode="~" horiz-adv-x="1173" d="M111 557q126 178 270 178q96 0 235 -71q144 -72 215 -72q74 0 162 110l76 -69q-120 -178 -268 -178q-93 0 -232 71q-138 72 -221 72q-72 0 -160 -111z" />
<glyph horiz-adv-x="0" />
<glyph unicode="&#xa1;" horiz-adv-x="411" d="M23 -391l157 1083h101l-109 -1083h-149zM162 838l22 182h176l-22 -182h-176z" />
<glyph unicode="&#xa2;" horiz-adv-x="956" d="M139 694q30 241 156.5 380.5t312.5 158.5l21 201h114l-26 -199q118 -6 211 -55l-41 -109q-91 49 -225 49q-149 0 -255 -107.5t-131 -318.5q-25 -215 54.5 -321.5t238.5 -106.5q128 0 246 41l6 -102q-131 -48 -241 -51l-21 -193h-115l31 197q-184 26 -275 161.5t-61 374.5 z" />
<glyph unicode="&#xa3;" horiz-adv-x="1034" d="M78 0l14 121q85 43 143 141t72 213q12 108 -18 197h-191l13 102h151q-28 157 -16 248q23 183 145 279t307 96q152 0 289 -64l-35 -110q-108 63 -239 63q-133 0 -224 -66t-104 -186q-12 -89 23 -260h286l-2 -102h-260q15 -117 4 -207q-21 -179 -157 -344h628l-14 -121 h-815z" />
<glyph unicode="&#xa4;" horiz-adv-x="1058" d="M31 31l184 209q-91 111 -70 272q18 162 148 283l-129 198l82 60l125 -203q103 53 208.5 53.5t174.5 -45.5l172 195l65 -60l-166 -188q114 -114 90 -293q-21 -173 -153 -287l125 -194l-80 -60l-125 201q-94 -49 -199 -49q-119 0 -202 59l-185 -211zM254 512 q-15 -126 51 -207q70 -82 191 -82q118 0 206 82q90 84 105 207q17 123 -52 207t-188 84t-209 -84q-89 -83 -104 -207z" />
<glyph unicode="&#xa5;" horiz-adv-x="1191" d="M104 260l13 102h385l22 175h-385l13 102h342l-322 729h156l284 -670l459 670h141l-497 -729h346l-12 -102h-387l-23 -175h387l-12 -102h-387l-31 -260h-137l30 260h-385z" />
<glyph unicode="&#xa6;" horiz-adv-x="450" d="M82 -90l72 586h125l-72 -586h-125zM197 840l71 594h125l-71 -594h-125z" />
<glyph unicode="&#xa7;" horiz-adv-x="772" d="M70 592q24 201 247 295h5q-47 89 -35 194q30 237 295 320q47 15 67 18l15 -102l-50 -14q-189 -59 -204 -199q-6 -38 10 -96q25 -94 131 -258q108 -164 135 -252q23 -66 10.5 -143.5t-55.5 -139.5q-59 -85 -195 -145l23 -62q49 -143 -43 -282q-74 -115 -242 -170 q-47 -15 -67 -19l-15 103l52 14q109 34 166.5 114.5t27.5 180.5q-38 103 -133 256q-94 151 -133 254q-21 64 -12 133zM193 621q-6 -45 10 -103q9 -33 45 -110q33 -62 88 -150l67 -108q225 85 160 288q-39 103 -141 269q-52 84 -60 98h-12q-145 -62 -157 -184z" />
<glyph unicode="&#xa8;" horiz-adv-x="552" d="M131 1239l19 158h153l-18 -158h-154zM426 1239l18 158h154l-18 -158h-154z" />
<glyph unicode="&#xa9;" horiz-adv-x="1478" d="M145 623q35 269 242 458q208 193 471 193q259 0 422 -193q164 -191 129 -458q-34 -267 -244 -461q-206 -191 -467 -191q-260 0 -424 191q-164 194 -129 461zM258 618q-27 -231 102 -387q132 -159 351 -159q218 0 385 161q173 164 200 390q27 230 -104 385 q-132 159 -348 159q-220 0 -389 -159q-170 -160 -197 -390zM436 616q24 194 142 297q116 101 264 101q106 0 196 -35l-30 -78q-89 27 -172 27q-114 0 -193 -78.5t-98 -233.5q-18 -154 43.5 -231.5t181.5 -77.5q96 0 191 29l6 -76q-124 -37 -211 -37q-167 0 -255 100.5 t-65 292.5z" />
<glyph unicode="&#xaa;" horiz-adv-x="675" d="M162 977q21 176 258 176q69 0 145 -12l10 82q8 78 -18.5 110.5t-105.5 32.5q-61 0 -181 -27l-10 62q124 37 217 37q114 0 157.5 -50t29.5 -161l-50 -377q-116 -39 -252 -39q-101 0 -155.5 41.5t-44.5 124.5zM250 981q-6 -54 33.5 -79t113.5 -25q79 0 138 18l22 188 q-102 13 -129 13q-163 0 -178 -115z" />
<glyph unicode="&#xab;" horiz-adv-x="999" d="M104 569l11 82l377 365l79 -76l-348 -330l266 -327l-96 -78zM469 569l10 82l377 365l80 -76l-350 -330l268 -327l-96 -78z" />
<glyph unicode="&#xac;" horiz-adv-x="1132" d="M156 754l14 125h850l-49 -396h-111l35 271h-739z" />
<glyph unicode="&#xad;" horiz-adv-x="811" d="M131 549l16 125h541l-16 -125h-541z" />
<glyph unicode="&#xae;" horiz-adv-x="1478" d="M145 623q35 269 242 458q208 193 471 193q259 0 422 -193q164 -191 129 -458q-34 -267 -244 -461q-206 -191 -467 -191q-260 0 -424 191q-164 194 -129 461zM258 618q-27 -231 102 -387q132 -159 351 -159q218 0 385 161q173 164 200 390q27 230 -104 385 q-132 159 -348 159q-220 0 -389 -159q-170 -160 -197 -390zM485 238l95 766q91 24 204 24q150 0 230 -51q82 -52 67 -186q-24 -196 -223 -242l193 -311h-123l-176 299h-21q-55 0 -108 6l-37 -305h-101zM633 625q72 -11 108 -11q217 0 238 170q10 86 -45 126t-158 40 q-47 0 -104 -8z" />
<glyph unicode="&#xaf;" horiz-adv-x="987" d="M225 1311l17 125h716l-16 -125h-717z" />
<glyph unicode="&#xb0;" horiz-adv-x="679" d="M188 1155q12 106 83.5 174t183.5 68t165.5 -66.5t41.5 -173.5q-13 -104 -85.5 -175t-183.5 -71q-113 0 -166 68.5t-39 175.5zM289 1155q-8 -68 20.5 -111t96.5 -43q84 -2 130 76q40 67 24.5 140t-79.5 87q-17 4 -37 3q-66 0 -107.5 -43.5t-47.5 -108.5z" />
<glyph unicode="&#xb1;" horiz-adv-x="1067" d="M59 0l15 127h809l-15 -127h-809zM135 631l17 127h348l39 321h116l-39 -321h345l-17 -127h-344l-39 -328h-117l39 328h-348z" />
<glyph unicode="&#xb2;" horiz-adv-x="718" d="M63 561l11 84q71 56 108 82q43 31 127 96q243 188 250 330q10 77 -29 115.5t-116 38.5q-79 0 -197 -47l-27 77q111 60 250 60q258 0 228 -242q-27 -213 -435 -500h412l-12 -94h-570z" />
<glyph unicode="&#xb3;" horiz-adv-x="643" d="M57 582l41 92q87 -43 176 -43q88 0 145.5 43.5t69.5 128.5q8 73 -43.5 115.5t-150.5 42.5h-74l10 77q133 1 196.5 39t74.5 115q7 61 -29 91t-102 30q-86 0 -181 -39l-18 80q112 43 217 44.5t171 -50t50 -150.5q-15 -133 -135 -186q146 -53 125 -207q-17 -130 -105.5 -197 t-222.5 -67q-106 0 -215 41z" />
<glyph unicode="&#xb4;" horiz-adv-x="735" d="M238 1268l389 223l41 -115l-400 -192z" />
<glyph unicode="&#xb5;" horiz-adv-x="993" d="M35 -432l178 1460h125l-84 -682q-18 -143 48 -203.5t218 -60.5q122 0 246 74l106 872h125l-104 -854q-5 -94 -2 -180h-115l-10 67q-143 -90 -311 -90q-164 0 -238 80l-59 -483h-123z" />
<glyph unicode="&#xb6;" horiz-adv-x="1036" d="M125 1044q18 148 125 236t252 88h575l-16 -131h-156l-192 -1569h-125l192 1569h-155l-193 -1569h-131l129 1051h-8q-144 0 -229 88q-86 89 -68 237z" />
<glyph unicode="&#xb7;" horiz-adv-x="471" d="M106 420l27 227h221l-26 -227h-222z" />
<glyph unicode="&#xb8;" horiz-adv-x="546" d="M41 -416q139 95 154 201q6 53 -21 115h127q25 -70 16 -121q-15 -151 -227 -268z" />
<glyph unicode="&#xb9;" horiz-adv-x="458" d="M96 1255l264 103h80l-102 -830h-107l88 719l-206 -69z" />
<glyph unicode="&#xba;" horiz-adv-x="759" d="M197 1120q20 164 98.5 241t214.5 77q137 0 192 -74t35 -242q-20 -167 -96.5 -242t-214.5 -75q-142 0 -195.5 72.5t-33.5 242.5zM287 1120q-17 -131 19 -187t130 -56q183 0 213 243q18 137 -18.5 191.5t-132.5 54.5q-91 0 -142.5 -56t-68.5 -190z" />
<glyph unicode="&#xbb;" horiz-adv-x="997" d="M70 279l350 327l-268 330l96 76l289 -365l-11 -82l-376 -364zM434 279l348 327l-266 330l96 76l289 -365l-10 -82l-377 -364z" />
<glyph unicode="&#xbc;" horiz-adv-x="1552" d="M135 1327l266 103h78l-102 -830h-105l90 719l-208 -70zM227 94l1014 1385l86 -47l-1012 -1389zM797 225l8 66l455 532h106l-63 -512h155l-10 -86h-156l-26 -225h-111l27 225h-385zM922 311h270l45 371z" />
<glyph unicode="&#xbd;" horiz-adv-x="1624" d="M135 1327l266 103h78l-102 -830h-105l90 719l-208 -70zM227 94l1014 1385l86 -47l-1012 -1389zM905 -2l13 86l126 96q100 72 162 125q64 54 123 131q63 82 72 154q10 77 -29.5 115t-116.5 38q-78 0 -196 -47l-27 78q111 60 250 60q257 0 227 -242q-24 -214 -434 -500h414 l-12 -94h-572z" />
<glyph unicode="&#xbe;" horiz-adv-x="1626" d="M74 612l41 93q87 -43 176 -43q88 0 145.5 43.5t67.5 128.5q11 72 -41 114.5t-152 42.5h-73l8 70q136 1 197.5 39t72.5 123q7 61 -28 90.5t-101 29.5q-91 0 -180 -38l-19 79q110 43 215 43q115 0 175.5 -48.5t48.5 -149.5q-15 -133 -138 -187q142 -52 127 -206 q-17 -131 -105 -198t-222 -67q-106 0 -215 41zM313 94l1016 1385l84 -47l-1010 -1389zM879 225l8 66l454 532h107l-64 -512h156l-10 -86h-156l-26 -225h-111l27 225h-385zM1001 311h273l45 371z" />
<glyph unicode="&#xbf;" horiz-adv-x="694" d="M6 -25q18 157 213 308q65 48 94 75q41 36 77.5 92.5t49.5 112.5l21 121h110l-12 -127l-2 -20q-15 -69 -59 -134q-39 -58 -74 -93t-105 -93l-51 -41l-49 -47q-68 -68 -76 -141q-13 -112 79.5 -174t281.5 -80l-41 -125q-217 9 -346 108t-111 258zM438 846l23 182h176 l-23 -182h-176z" />
<glyph unicode="&#xc0;" horiz-adv-x="1189" d="M-43 0l647 1368h178l312 -1368h-138l-84 369h-604l-172 -369h-139zM322 487h524l-168 777zM481 1671l76 113l328 -221l-54 -84z" />
<glyph unicode="&#xc1;" horiz-adv-x="1189" d="M-43 0l647 1368h178l312 -1368h-138l-84 369h-604l-172 -369h-139zM322 487h524l-168 777zM530 1571l390 223l43 -115l-400 -192z" />
<glyph unicode="&#xc2;" horiz-adv-x="1189" d="M-43 0l647 1368h178l312 -1368h-138l-84 369h-604l-172 -369h-139zM322 487h524l-168 777zM465 1532l215 217h119l162 -217l-87 -57l-147 163l-190 -163z" />
<glyph unicode="&#xc3;" horiz-adv-x="1189" d="M-43 0l647 1368h178l312 -1368h-138l-84 369h-604l-172 -369h-139zM322 487h524l-168 777zM403 1567q39 56 93.5 92.5t101.5 36.5q52 0 135 -45t125 -45q46 0 117 71l55 -53q-37 -59 -95 -94t-110 -35t-129 45q-77 47 -118 47q-48 0 -119 -71z" />
<glyph unicode="&#xc4;" horiz-adv-x="1189" d="M-43 0l647 1368h178l312 -1368h-138l-84 369h-604l-172 -369h-139zM322 487h524l-168 777zM485 1516l21 157h153l-20 -157h-154zM780 1516l21 157h153l-20 -157h-154z" />
<glyph unicode="&#xc5;" horiz-adv-x="1189" d="M-43 0l647 1368h178l312 -1368h-138l-84 369h-604l-172 -369h-139zM322 487h524l-168 777zM532 1638q11 85 69 141t149 56t135 -54t33 -141q-11 -85 -70.5 -142.5t-149.5 -57.5q-91 0 -134 55t-32 143zM614 1638q-15 -125 93 -125q54 0 88.5 36.5t40.5 90.5 q12 121 -97 121q-54 0 -86.5 -34.5t-38.5 -88.5z" />
<glyph unicode="&#xc6;" horiz-adv-x="1669" d="M-53 0l848 1368h845l-16 -121h-620l-60 -481h588l-14 -121h-588l-64 -524h641l-14 -121h-774l53 436h-420l-264 -436h-141zM424 555h362l91 731z" />
<glyph unicode="&#xc7;" horiz-adv-x="1087" d="M164 692q15 117 43.5 214.5t66.5 169t86.5 127.5t101.5 92t114 59.5t120.5 33t124.5 9.5q185 0 312 -56l-33 -116q-131 55 -287 55q-201 0 -334 -133q-127 -130 -168 -453q-12 -119 -11.5 -210t22 -158t52 -112t79.5 -72.5t104.5 -39.5t126.5 -12q111 0 287 29v-113 q-140 -35 -318 -35q-300 0 -415 195q-115 197 -74 526zM436 -416q139 92 154 201q6 48 -19 115h127q23 -70 15 -121q-15 -150 -228 -268z" />
<glyph unicode="&#xc8;" horiz-adv-x="1062" d="M102 0l168 1368h756l-16 -121h-621l-59 -481h588l-15 -121h-588l-63 -524h643l-14 -121h-779zM444 1671l76 113l330 -221l-53 -84z" />
<glyph unicode="&#xc9;" horiz-adv-x="1062" d="M102 0l168 1368h756l-16 -121h-621l-59 -481h588l-15 -121h-588l-63 -524h643l-14 -121h-779zM496 1571l391 223l41 -115l-398 -192z" />
<glyph unicode="&#xca;" horiz-adv-x="1062" d="M102 0l168 1368h756l-16 -121h-621l-59 -481h588l-15 -121h-588l-63 -524h643l-14 -121h-779zM430 1544l215 217h121l162 -217l-86 -57l-150 164l-190 -164z" />
<glyph unicode="&#xcb;" horiz-adv-x="1062" d="M102 0l168 1368h756l-16 -121h-621l-59 -481h588l-15 -121h-588l-63 -524h643l-14 -121h-779zM446 1516l21 157h154l-21 -157h-154zM741 1516l21 157h151l-20 -157h-152z" />
<glyph unicode="&#xcc;" horiz-adv-x="514" d="M61 1671l76 113l330 -221l-55 -84zM115 0l168 1368h135l-168 -1368h-135z" />
<glyph unicode="&#xcd;" horiz-adv-x="514" d="M59 0l168 1368h135l-167 -1368h-136zM223 1571l391 223l41 -115l-397 -192z" />
<glyph unicode="&#xce;" horiz-adv-x="485" d="M121 0l168 1368h135l-168 -1368h-135zM133 1544l215 217h119l162 -217l-86 -57l-150 164l-188 -164z" />
<glyph unicode="&#xcf;" horiz-adv-x="442" d="M59 0l168 1368h135l-167 -1368h-136zM88 1516l21 157h153l-20 -157h-154zM383 1516l20 157h154l-20 -157h-154z" />
<glyph unicode="&#xd0;" horiz-adv-x="1284" d="M33 645l14 121h141l72 584q215 24 356 24q162 0 271 -32.5t186 -106.5q157 -151 107 -553q-24 -200 -93 -342.5t-174 -218.5q-103 -74 -217.5 -106.5t-263.5 -32.5q-151 0 -336 32l78 631h-141zM244 127q125 -23 211 -23q244 0 394.5 142t186.5 438q35 298 -70 438 t-360 140q-103 0 -225 -17l-59 -479h415l-14 -121h-416z" />
<glyph unicode="&#xd1;" horiz-adv-x="1392" d="M102 0l168 1368h164l606 -1163l144 1163h135l-168 -1368h-164l-608 1165l-141 -1165h-136zM520 1567q39 56 93.5 92.5t101.5 36.5q54 0 137 -45t123 -45q48 0 119 71l55 -53q-41 -59 -98 -94t-109 -35t-129 45q-77 47 -119 47q-48 0 -119 -71z" />
<glyph unicode="&#xd2;" horiz-adv-x="1306" d="M135 684q83 713 631 713q92 0 165.5 -20t124.5 -54.5t87 -86.5t56 -111t28 -133t6 -148t-12 -160q-19 -158 -58.5 -277t-109.5 -221q-151 -215 -467 -215q-161 0 -267.5 56.5t-148.5 156.5q-84 216 -35 500zM264 377q12 -137 98 -214t242 -77q238 0 348 172 q53 85 83 184.5t48 241.5q10 104 12.5 195t-16.5 166t-56 129t-105.5 83.5t-165.5 28.5q-239 0 -351 -174q-52 -82 -81.5 -182.5t-47.5 -245.5q-17 -169 -8 -307zM526 1667l78 113l330 -221l-53 -84z" />
<glyph unicode="&#xd3;" horiz-adv-x="1306" d="M135 684q83 713 631 713q92 0 165.5 -20t124.5 -54.5t87 -86.5t56 -111t28 -133t6 -148t-12 -160q-19 -158 -58.5 -277t-109.5 -221q-151 -215 -467 -215q-161 0 -267.5 56.5t-148.5 156.5q-84 216 -35 500zM264 377q12 -137 98 -214t242 -77q238 0 348 172 q53 85 83 184.5t48 241.5q10 104 12.5 195t-16.5 166t-56 129t-105.5 83.5t-165.5 28.5q-239 0 -351 -174q-52 -82 -81.5 -182.5t-47.5 -245.5q-17 -169 -8 -307zM590 1571l391 223l41 -115l-399 -192z" />
<glyph unicode="&#xd4;" horiz-adv-x="1306" d="M135 684q83 713 631 713q92 0 165.5 -20t124.5 -54.5t87 -86.5t56 -111t28 -133t6 -148t-12 -160q-19 -158 -58.5 -277t-109.5 -221q-151 -215 -467 -215q-161 0 -267.5 56.5t-148.5 156.5q-84 216 -35 500zM264 377q12 -137 98 -214t242 -77q238 0 348 172 q53 85 83 184.5t48 241.5q10 104 12.5 195t-16.5 166t-56 129t-105.5 83.5t-165.5 28.5q-239 0 -351 -174q-52 -82 -81.5 -182.5t-47.5 -245.5q-17 -169 -8 -307zM532 1548l216 217h118l162 -217l-84 -57l-149 164l-191 -164z" />
<glyph unicode="&#xd5;" horiz-adv-x="1306" d="M135 684q83 713 631 713q92 0 165.5 -20t124.5 -54.5t87 -86.5t56 -111t28 -133t6 -148t-12 -160q-19 -158 -58.5 -277t-109.5 -221q-151 -215 -467 -215q-161 0 -267.5 56.5t-148.5 156.5q-84 216 -35 500zM264 377q12 -137 98 -214t242 -77q238 0 348 172 q53 85 83 184.5t48 241.5q10 104 12.5 195t-16.5 166t-56 129t-105.5 83.5t-165.5 28.5q-239 0 -351 -174q-52 -82 -81.5 -182.5t-47.5 -245.5q-17 -169 -8 -307zM457 1567q39 56 93 92.5t101 36.5q54 0 137 -45t123 -45q48 0 119 71l55 -53q-41 -59 -96.5 -94t-107.5 -35 q-55 0 -129 45q-77 47 -119 47q-50 0 -121 -71z" />
<glyph unicode="&#xd6;" horiz-adv-x="1306" d="M135 684q83 713 631 713q92 0 165.5 -20t124.5 -54.5t87 -86.5t56 -111t28 -133t6 -148t-12 -160q-19 -158 -58.5 -277t-109.5 -221q-151 -215 -467 -215q-161 0 -267.5 56.5t-148.5 156.5q-84 216 -35 500zM264 377q12 -137 98 -214t242 -77q238 0 348 172 q53 85 83 184.5t48 241.5q10 104 12.5 195t-16.5 166t-56 129t-105.5 83.5t-165.5 28.5q-239 0 -351 -174q-52 -82 -81.5 -182.5t-47.5 -245.5q-17 -169 -8 -307zM551 1511l20 158h152l-21 -158h-151zM844 1511l20 158h154l-21 -158h-153z" />
<glyph unicode="&#xd7;" horiz-adv-x="1026" d="M82 301l350 320l-270 317l96 88l268 -315l351 317l77 -84l-348 -319l273 -320l-95 -88l-274 320l-354 -324z" />
<glyph unicode="&#xd8;" horiz-adv-x="1300" d="M109 -131l139 217q-161 158 -105 598q83 713 631 713q159 0 264 -60l111 174l96 -45l-121 -194q157 -171 105 -588q-19 -158 -58.5 -277t-109.5 -221q-151 -215 -467 -215q-151 0 -262 54l-127 -203zM281 684q-41 -329 47 -469l643 1016q-82 55 -211 55q-238 0 -350 -174 q-52 -82 -81.5 -182.5t-47.5 -245.5zM403 137q74 -51 209 -51q239 0 349 172q53 85 83 184.5t48 241.5q40 321 -43 467z" />
<glyph unicode="&#xd9;" horiz-adv-x="1284" d="M186 494l109 874h133l-104 -844q-14 -111 -7 -192t39.5 -134t96 -78.5t163.5 -25.5q196 0 281 99q91 104 117 331l104 844h133l-108 -874q-32 -270 -162.5 -396t-382.5 -127q-244 0 -344 127t-68 396zM571 1679l78 113l330 -221l-55 -84z" />
<glyph unicode="&#xda;" horiz-adv-x="1284" d="M186 494l109 874h133l-104 -844q-14 -111 -7 -192t39.5 -134t96 -78.5t163.5 -25.5q196 0 281 99q91 104 117 331l104 844h133l-108 -874q-32 -270 -162.5 -396t-382.5 -127q-244 0 -344 127t-68 396zM621 1569l389 223l43 -115l-400 -192z" />
<glyph unicode="&#xdb;" horiz-adv-x="1284" d="M186 494l109 874h133l-104 -844q-14 -111 -7 -192t39.5 -134t96 -78.5t163.5 -25.5q196 0 281 99q91 104 117 331l104 844h133l-108 -874q-32 -270 -162.5 -396t-382.5 -127q-244 0 -344 127t-68 396zM537 1544l215 217h120l162 -217l-86 -57l-151 164l-189 -164z" />
<glyph unicode="&#xdc;" horiz-adv-x="1284" d="M186 494l109 874h133l-104 -844q-14 -111 -7 -192t39.5 -134t96 -78.5t163.5 -25.5q196 0 281 99q91 104 117 331l104 844h133l-108 -874q-32 -270 -162.5 -396t-382.5 -127q-244 0 -344 127t-68 396zM573 1516l21 157h151l-20 -157h-152zM866 1516l21 157h153l-20 -157 h-154z" />
<glyph unicode="&#xdd;" d="M117 1368h153l289 -670l457 670h141l-549 -805l-67 -563h-138l68 563zM508 1569l391 223l41 -115l-397 -192z" />
<glyph unicode="&#xde;" horiz-adv-x="1107" d="M102 0l174 1434h136l-27 -217h184q165 0 258 -25t156 -86q106 -93 82 -289q-24 -223 -168 -317q-151 -103 -489 -103h-123l-47 -397h-136zM301 518h150q254 0 340 57q119 73 137 232q15 132 -58 211q-78 78 -313 78h-186z" />
<glyph unicode="&#xdf;" horiz-adv-x="1157" d="M47 -270l164 1323q53 422 453 422q162 0 242.5 -83t62.5 -214q-6 -50 -37 -105q-9 -14 -16.5 -25t-16.5 -22t-14.5 -17t-17.5 -17.5t-17.5 -16t-23 -19.5t-25.5 -22q-61 -48 -87.5 -79.5t-37.5 -78.5q-12 -89 37 -135q43 -38 104 -68q10 -5 33.5 -16t30.5 -14t22 -11.5 t26.5 -16.5t26.5 -19q56 -36 78 -89t19 -139q-17 -135 -116 -216t-247 -81q-74 0 -166 25q-90 24 -131 57l47 99q130 -68 277 -68q177 0 198 172q6 49 -22 94q-24 40 -52 60t-96 55q-72 38 -112 65q-45 34 -74.5 95.5t-19.5 134.5q12 102 149 221q47 40 62 55q25 22 47 59 t26 72q24 191 -180 191q-146 0 -214.5 -71.5t-88.5 -239.5l-162 -1317h-131z" />
<glyph unicode="&#xe0;" horiz-adv-x="1036" d="M150 502q15 122 52 217t88 155.5t118.5 99.5t138 54.5t151.5 15.5q154 0 316 -55l-101 -813q-6 -111 0 -184h-112l-10 86q-133 -103 -291 -103q-418 0 -350 527zM281 489q-25 -202 38.5 -301.5t227.5 -99.5q109 0 237 84l90 731q-95 33 -188 33q-167 0 -272 -108.5 t-133 -338.5zM492 1376l77 113l330 -221l-57 -84z" />
<glyph unicode="&#xe1;" horiz-adv-x="1036" d="M150 502q15 122 52 217t88 155.5t118.5 99.5t138 54.5t151.5 15.5q154 0 316 -55l-101 -813q-6 -111 0 -184h-112l-10 86q-133 -103 -291 -103q-418 0 -350 527zM281 489q-25 -202 38.5 -301.5t227.5 -99.5q109 0 237 84l90 731q-95 33 -188 33q-167 0 -272 -108.5 t-133 -338.5zM498 1268l389 223l41 -115l-400 -192z" />
<glyph unicode="&#xe2;" horiz-adv-x="1036" d="M150 502q15 122 52 217t88 155.5t118.5 99.5t138 54.5t151.5 15.5q154 0 316 -55l-101 -813q-6 -111 0 -184h-112l-10 86q-133 -103 -291 -103q-418 0 -350 527zM281 489q-25 -202 38.5 -301.5t227.5 -99.5q109 0 237 84l90 731q-95 33 -188 33q-167 0 -272 -108.5 t-133 -338.5zM449 1260l215 217h118l162 -217l-86 -58l-149 164l-191 -164z" />
<glyph unicode="&#xe3;" horiz-adv-x="1036" d="M150 502q15 122 52 217t88 155.5t118.5 99.5t138 54.5t151.5 15.5q154 0 316 -55l-101 -813q-6 -111 0 -184h-112l-10 86q-133 -103 -291 -103q-418 0 -350 527zM281 489q-25 -202 38.5 -301.5t227.5 -99.5q109 0 237 84l90 731q-95 33 -188 33q-167 0 -272 -108.5 t-133 -338.5zM428 1274q37 55 92.5 92t102.5 37q55 0 135 -45t123 -45q47 0 118 71l56 -53q-37 -59 -95 -94t-110 -35t-129 45q-80 47 -121 47q-46 0 -117 -71z" />
<glyph unicode="&#xe4;" horiz-adv-x="1036" d="M150 502q15 122 52 217t88 155.5t118.5 99.5t138 54.5t151.5 15.5q154 0 316 -55l-101 -813q-6 -111 0 -184h-112l-10 86q-133 -103 -291 -103q-418 0 -350 527zM281 489q-25 -202 38.5 -301.5t227.5 -99.5q109 0 237 84l90 731q-95 33 -188 33q-167 0 -272 -108.5 t-133 -338.5zM469 1239l18 158h154l-18 -158h-154zM764 1239l18 158h152l-19 -158h-151z" />
<glyph unicode="&#xe5;" horiz-adv-x="1036" d="M150 502q15 122 52 217t88 155.5t118.5 99.5t138 54.5t151.5 15.5q154 0 316 -55l-101 -813q-6 -111 0 -184h-112l-10 86q-133 -103 -291 -103q-418 0 -350 527zM281 489q-25 -202 38.5 -301.5t227.5 -99.5q109 0 237 84l90 731q-95 33 -188 33q-167 0 -272 -108.5 t-133 -338.5zM555 1391q11 85 68.5 140.5t148.5 55.5t135 -53.5t33 -140.5q-11 -86 -70 -143.5t-149 -57.5q-91 0 -134 55.5t-32 143.5zM637 1391q-6 -55 16 -90t76 -35q55 0 90 36.5t41 90.5q6 52 -18.5 86t-79.5 34t-87 -34t-38 -88z" />
<glyph unicode="&#xe6;" horiz-adv-x="1640" d="M55 270q37 310 416 310q148 0 250 -27l16 133q14 128 -32.5 187t-178.5 59q-112 0 -295 -47l-10 102q82 28 174 41q114 19 170 19q244 0 291 -173q53 78 150 127.5t211 49.5q197 0 284.5 -103.5t63.5 -290.5q-8 -61 -31 -141h-686q-26 -220 42 -324t238 -104 q172 0 308 68l6 -111q-168 -74 -334 -74q-210 0 -309 117q-192 -113 -389 -113q-58 0 -111 9t-102 31t-83 55t-50.5 84.5t-8.5 115.5zM186 276q-12 -105 70 -151q82 -43 207 -43q158 0 291 74q-57 108 -45 301q-151 22 -222 22q-274 0 -301 -203zM866 627h561q6 25 11 55 q13 124 -48 195t-180 71q-90 0 -163 -40.5t-111 -104.5q-59 -102 -70 -176z" />
<glyph unicode="&#xe7;" horiz-adv-x="915" d="M123 512q35 270 180 406q146 137 346 137q158 0 262 -58l-41 -108q-91 49 -227 49q-140 0 -248 -102t-135 -324q-25 -215 55.5 -321.5t239.5 -106.5q126 0 244 41l6 -102q-146 -52 -270 -52q-207 0 -328 133q-118 137 -84 408zM270 -416q139 95 154 201q6 53 -21 115h127 q25 -72 17 -121q-15 -150 -228 -268z" />
<glyph unicode="&#xe8;" horiz-adv-x="993" d="M119 492q30 241 180 391q151 151 381 151q139 0 210.5 -77.5t57.5 -196.5q-12 -101 -69 -177t-136 -115.5t-170.5 -57.5t-175.5 -13t-149 27q-9 -144 45 -236q58 -94 213 -94q182 0 311 66l8 -109q-179 -78 -346 -78q-208 0 -299 139.5t-61 379.5zM262 528 q56 -24 142 -26.5t171 16.5q90 21 155 80.5t77 142.5q11 83 -31.5 135t-126.5 52q-86 0 -156.5 -36.5t-116 -97.5t-74 -127.5t-40.5 -138.5zM412 1376l77 113l328 -221l-55 -84z" />
<glyph unicode="&#xe9;" horiz-adv-x="993" d="M119 492q30 241 180 391q151 151 381 151q139 0 210.5 -77.5t57.5 -196.5q-12 -101 -69 -177t-136 -115.5t-170.5 -57.5t-175.5 -13t-149 27q-9 -144 45 -236q58 -94 213 -94q182 0 311 66l8 -109q-179 -78 -346 -78q-208 0 -299 139.5t-61 379.5zM262 528 q56 -24 142 -26.5t171 16.5q90 21 155 80.5t77 142.5q11 83 -31.5 135t-126.5 52q-86 0 -156.5 -36.5t-116 -97.5t-74 -127.5t-40.5 -138.5zM442 1268l392 223l40 -115l-401 -192z" />
<glyph unicode="&#xea;" horiz-adv-x="993" d="M119 492q30 241 180 391q151 151 381 151q139 0 210.5 -77.5t57.5 -196.5q-12 -101 -69 -177t-136 -115.5t-170.5 -57.5t-175.5 -13t-149 27q-9 -144 45 -236q58 -94 213 -94q182 0 311 66l8 -109q-179 -78 -346 -78q-208 0 -299 139.5t-61 379.5zM262 528 q56 -24 142 -26.5t171 16.5q90 21 155 80.5t77 142.5q11 83 -31.5 135t-126.5 52q-86 0 -156.5 -36.5t-116 -97.5t-74 -127.5t-40.5 -138.5zM389 1260l215 217h119l162 -217l-84 -58l-152 164l-188 -164z" />
<glyph unicode="&#xeb;" horiz-adv-x="993" d="M119 492q30 241 180 391q151 151 381 151q139 0 210.5 -77.5t57.5 -196.5q-12 -101 -69 -177t-136 -115.5t-170.5 -57.5t-175.5 -13t-149 27q-9 -144 45 -236q58 -94 213 -94q182 0 311 66l8 -109q-179 -78 -346 -78q-208 0 -299 139.5t-61 379.5zM262 528 q56 -24 142 -26.5t171 16.5q90 21 155 80.5t77 142.5q11 83 -31.5 135t-126.5 52q-86 0 -156.5 -36.5t-116 -97.5t-74 -127.5t-40.5 -138.5zM414 1239l18 158h154l-19 -158h-153zM709 1239l18 158h154l-19 -158h-153z" />
<glyph unicode="&#xec;" horiz-adv-x="364" d="M-31 1376l78 113l330 -221l-58 -84zM49 0l125 1028h125l-125 -1028h-125z" />
<glyph unicode="&#xed;" horiz-adv-x="364" d="M49 0l125 1028h125l-125 -1028h-125zM160 1268l389 223l43 -115l-402 -192z" />
<glyph unicode="&#xee;" horiz-adv-x="364" d="M18 1260l215 217h119l162 -217l-84 -58l-151 164l-189 -164zM49 0l125 1028h125l-125 -1028h-125z" />
<glyph unicode="&#xef;" horiz-adv-x="364" d="M43 1239l18 158h152l-18 -158h-152zM49 0l125 1028h125l-125 -1028h-125zM336 1239l18 158h154l-19 -158h-153z" />
<glyph unicode="&#xf0;" horiz-adv-x="1058" d="M111 455q27 233 142 369.5t296 136.5q147 0 297 -66q-18 213 -195 334l-190 -131l-64 80l150 108q-142 67 -289 82l39 105q182 -6 385 -91l160 119l61 -80l-139 -102q274 -219 213 -731q-76 -617 -498 -617q-203 0 -299 140q-93 139 -69 344zM248 451q-21 -161 42.5 -259 t196.5 -98q139 0 228 115q90 118 127 422q12 73 12 129q-153 84 -285 84q-149 0 -225 -113q-75 -108 -96 -280z" />
<glyph unicode="&#xf1;" horiz-adv-x="1073" d="M80 0l117 952q270 103 458 103q169 0 243 -77.5t50 -260.5l-86 -717h-123l84 684q17 144 -34.5 199t-184.5 55q-177 0 -293 -70l-106 -868h-125zM295 1274q37 55 92 92t102 37q56 0 136 -45t123 -45q47 0 118 71l54 -53q-36 -58 -93 -93.5t-110 -35.5q-52 0 -129 45 q-80 47 -121 47q-46 0 -117 -71z" />
<glyph unicode="&#xf2;" d="M129 512q34 281 163.5 411t350.5 130q219 0 309.5 -127.5t55.5 -411.5q-35 -282 -161.5 -412.5t-346.5 -130.5q-230 0 -318.5 125.5t-52.5 415.5zM262 512q-29 -227 34 -325.5t222 -98.5q304 0 356 424q31 250 -32 336q-66 90 -217 90q-143 0 -238 -92t-125 -334z M426 1376l78 113l327 -221l-55 -84z" />
<glyph unicode="&#xf3;" d="M129 512q34 281 163.5 411t350.5 130q219 0 309.5 -127.5t55.5 -411.5q-35 -282 -161.5 -412.5t-346.5 -130.5q-230 0 -318.5 125.5t-52.5 415.5zM262 512q-29 -227 34 -325.5t222 -98.5q304 0 356 424q31 250 -32 336q-66 90 -217 90q-143 0 -238 -92t-125 -334z M477 1268l389 223l41 -115l-399 -192z" />
<glyph unicode="&#xf4;" d="M129 512q34 281 163.5 411t350.5 130q219 0 309.5 -127.5t55.5 -411.5q-35 -282 -161.5 -412.5t-346.5 -130.5q-230 0 -318.5 125.5t-52.5 415.5zM262 512q-29 -227 34 -325.5t222 -98.5q304 0 356 424q31 250 -32 336q-66 90 -217 90q-143 0 -238 -92t-125 -334z M416 1260l215 217h119l161 -217l-86 -58l-149 164l-191 -164z" />
<glyph unicode="&#xf5;" d="M129 512q34 281 163.5 411t350.5 130q219 0 309.5 -127.5t55.5 -411.5q-35 -282 -161.5 -412.5t-346.5 -130.5q-230 0 -318.5 125.5t-52.5 415.5zM262 512q-29 -227 34 -325.5t222 -98.5q304 0 356 424q31 250 -32 336q-66 90 -217 90q-143 0 -238 -92t-125 -334z M350 1274q37 55 92.5 92t102.5 37q53 0 133 -45q83 -45 125 -45q48 0 119 71l53 -53q-36 -58 -93 -93.5t-110 -35.5q-52 0 -129 45q-80 47 -121 47q-45 0 -116 -71z" />
<glyph unicode="&#xf6;" d="M129 512q34 281 163.5 411t350.5 130q219 0 309.5 -127.5t55.5 -411.5q-35 -282 -161.5 -412.5t-346.5 -130.5q-230 0 -318.5 125.5t-52.5 415.5zM262 512q-29 -227 34 -325.5t222 -98.5q304 0 356 424q31 250 -32 336q-66 90 -217 90q-143 0 -238 -92t-125 -334z M430 1239l19 158h153l-18 -158h-154zM725 1239l18 158h154l-18 -158h-154z" />
<glyph unicode="&#xf7;" horiz-adv-x="1120" d="M121 549l16 125h871l-17 -125h-870zM422 350q6 43 42.5 74t80.5 31q43 0 68.5 -31t19.5 -74q-5 -44 -38.5 -77t-76.5 -33q-44 0 -72.5 32.5t-23.5 77.5zM489 885q5 44 39.5 74t81.5 30q43 0 68.5 -30t21.5 -74q-6 -44 -39.5 -75.5t-76.5 -31.5q-44 0 -72.5 31.5 t-22.5 75.5z" />
<glyph unicode="&#xf8;" d="M139 512q34 281 163.5 411t350.5 130q124 0 203 -39l80 125l84 -39l-86 -139q125 -128 84 -447q-35 -282 -161.5 -412.5t-346.5 -130.5q-101 0 -178 25l-92 -150l-86 45l92 148q-153 116 -107 473zM272 512q-27 -256 52 -350l464 743q-62 33 -153 33q-143 0 -238 -92 t-125 -334zM403 106q49 -18 125 -18q305 0 357 424q27 226 -27 326z" />
<glyph unicode="&#xf9;" horiz-adv-x="1067" d="M168 334l84 694h125l-84 -682q-18 -143 45 -203.5t211 -60.5q122 0 246 74l106 872h125l-104 -854q-6 -107 0 -180h-117l-8 67q-140 -88 -295 -88q-381 0 -334 361zM428 1376l78 113l328 -221l-56 -84z" />
<glyph unicode="&#xfa;" horiz-adv-x="1067" d="M168 334l84 694h125l-84 -682q-18 -143 45 -203.5t211 -60.5q122 0 246 74l106 872h125l-104 -854q-6 -107 0 -180h-117l-8 67q-140 -88 -295 -88q-381 0 -334 361zM541 1268l389 223l41 -115l-400 -192z" />
<glyph unicode="&#xfb;" horiz-adv-x="1067" d="M168 334l84 694h125l-84 -682q-18 -143 45 -203.5t211 -60.5q122 0 246 74l106 872h125l-104 -854q-6 -107 0 -180h-117l-8 67q-140 -88 -295 -88q-381 0 -334 361zM416 1260l215 217h119l161 -217l-86 -58l-149 164l-189 -164z" />
<glyph unicode="&#xfc;" horiz-adv-x="1067" d="M168 334l84 694h125l-84 -682q-18 -143 45 -203.5t211 -60.5q122 0 246 74l106 872h125l-104 -854q-6 -107 0 -180h-117l-8 67q-140 -88 -295 -88q-381 0 -334 361zM442 1239l19 158h153l-18 -158h-154zM737 1239l19 158h151l-18 -158h-152z" />
<glyph unicode="&#xfd;" horiz-adv-x="980" d="M-8 -408l31 115q145 -53 327 -53q139 0 216.5 70.5t99.5 238.5l6 51q-130 -43 -217 -43q-245 0 -328 150q-83 151 -49 426q37 288 166 481h133q-60 -73 -107 -205q-48 -137 -63 -272q-59 -473 270 -473q90 0 211 47l111 903h125l-131 -1075q-52 -418 -469 -418 q-155 0 -332 57zM412 1268l391 223l41 -115l-402 -192z" />
<glyph unicode="&#xfe;" horiz-adv-x="1071" d="M20 -430l230 1864h123l-54 -447q165 68 304 68q190 0 282.5 -131.5t61.5 -384.5q-15 -120 -50 -217t-96.5 -178.5t-161 -127t-229.5 -45.5q-128 0 -231 33l-54 -434h-125zM213 131q82 -43 238 -43q324 0 383 449q24 199 -42 299t-206 100q-124 0 -281 -68z" />
<glyph unicode="&#xff;" horiz-adv-x="980" d="M-8 -408l31 115q145 -53 327 -53q139 0 216.5 70.5t99.5 238.5l6 51q-130 -43 -217 -43q-245 0 -328 150q-83 151 -49 426q37 288 166 481h133q-60 -73 -107 -205q-48 -137 -63 -272q-59 -473 270 -473q90 0 211 47l111 903h125l-131 -1075q-52 -418 -469 -418 q-155 0 -332 57zM379 1239l18 158h154l-19 -158h-153zM674 1239l18 158h154l-19 -158h-153z" />
<glyph unicode="&#x152;" horiz-adv-x="1806" d="M168 684q42 347 198.5 534t432.5 187q120 0 262 -37h751l-16 -121h-620l-60 -481h586l-14 -121h-586l-64 -524h641l-14 -121h-774q-143 -33 -273 -33q-291 0 -393 187q-101 185 -57 530zM305 684q-38 -306 43.5 -454t290.5 -148q117 0 268 43l133 1120q-137 51 -262 51 q-400 0 -473 -612z" />
<glyph unicode="&#x153;" horiz-adv-x="1775" d="M129 512q35 282 162.5 411.5t351.5 129.5q276 0 346 -211q138 209 387 209q232 0 312 -143.5t6 -391.5h-686q-26 -220 42 -324t238 -104q171 0 307 68l7 -111q-168 -74 -334 -74q-285 0 -373 217q-132 -217 -395 -217q-234 0 -320.5 124.5t-50.5 416.5zM262 512 q-29 -229 33 -326.5t223 -97.5q304 0 356 424q30 251 -32 336q-63 90 -217 90q-145 0 -240 -92q-93 -93 -123 -334zM1026 627h561q35 149 -24 235t-193 86q-90 0 -163 -40.5t-111 -104.5q-59 -102 -70 -176z" />
<glyph unicode="&#x178;" d="M117 1368h153l289 -670l457 670h141l-549 -805l-67 -563h-138l68 563zM436 1516l21 157h153l-20 -157h-154zM731 1516l21 157h151l-20 -157h-152z" />
<glyph unicode="&#x2c6;" horiz-adv-x="751" d="M211 1260l215 217h119l164 -217l-86 -58l-152 164l-188 -164z" />
<glyph unicode="&#x2dc;" horiz-adv-x="1013" d="M287 1274q37 55 92 92t102 37q55 0 135 -45t123 -45q47 0 121 71l53 -53q-37 -59 -94.5 -94t-109.5 -35t-129 45q-80 47 -121 47q-46 0 -117 -71z" />
<glyph unicode="&#x2000;" horiz-adv-x="917" />
<glyph unicode="&#x2001;" horiz-adv-x="1835" />
<glyph unicode="&#x2002;" horiz-adv-x="917" />
<glyph unicode="&#x2003;" horiz-adv-x="1835" />
<glyph unicode="&#x2004;" horiz-adv-x="611" />
<glyph unicode="&#x2005;" horiz-adv-x="458" />
<glyph unicode="&#x2006;" horiz-adv-x="305" />
<glyph unicode="&#x2007;" horiz-adv-x="305" />
<glyph unicode="&#x2008;" horiz-adv-x="229" />
<glyph unicode="&#x2009;" horiz-adv-x="367" />
<glyph unicode="&#x200a;" horiz-adv-x="101" />
<glyph unicode="&#x2010;" horiz-adv-x="952" d="M131 547l16 125h682l-16 -125h-682z" />
<glyph unicode="&#x2011;" horiz-adv-x="952" d="M131 547l16 125h682l-16 -125h-682z" />
<glyph unicode="&#x2012;" horiz-adv-x="952" d="M131 547l16 125h682l-16 -125h-682z" />
<glyph unicode="&#x2013;" horiz-adv-x="1036" d="M131 549l16 125h766l-16 -125h-766z" />
<glyph unicode="&#x2014;" horiz-adv-x="1536" d="M131 549l16 125h1266l-16 -125h-1266z" />
<glyph unicode="&#x2018;" horiz-adv-x="444" d="M180 1063q23 195 213 360h127q-169 -175 -190 -333q-13 -74 8 -140h-150q-14 58 -8 113z" />
<glyph unicode="&#x2019;" horiz-adv-x="483" d="M141 961q168 174 189 333q8 76 -8 140h147q16 -58 10 -113q-27 -202 -211 -360h-127z" />
<glyph unicode="&#x201a;" horiz-adv-x="425" d="M-98 -268q173 182 188 334q12 73 -8 139h149q13 -58 7 -113q-21 -194 -211 -360h-125z" />
<glyph unicode="&#x201c;" horiz-adv-x="743" d="M180 1063q23 195 213 360h127q-169 -175 -190 -333q-13 -74 8 -140h-150q-14 58 -8 113zM479 1063q21 194 211 360h127q-167 -173 -188 -333q-12 -76 6 -140h-150q-9 70 -6 113z" />
<glyph unicode="&#x201d;" horiz-adv-x="780" d="M141 961q168 174 189 333q8 76 -8 140h147q16 -58 10 -113q-27 -202 -211 -360h-127zM438 961q170 176 191 333q8 77 -11 140h150q16 -58 10 -113q-27 -203 -213 -360h-127z" />
<glyph unicode="&#x201e;" horiz-adv-x="782" d="M-98 -268q173 182 188 334q12 73 -8 139h149q13 -58 7 -113q-21 -194 -211 -360h-125zM258 -268q173 179 188 334q9 69 -6 139h148q14 -58 8 -113q-21 -194 -211 -360h-127z" />
<glyph unicode="&#x2022;" horiz-adv-x="759" d="M184 668q9 96 80 161q72 66 166 66t150 -65t45 -162q-12 -97 -84 -162.5t-166 -65.5t-148.5 65.5t-42.5 162.5z" />
<glyph unicode="&#x2026;" horiz-adv-x="1112" d="M47 0l21 182h178l-21 -182h-178zM406 0l20 182h176l-20 -182h-176zM750 0l20 182h176l-20 -182h-176z" />
<glyph unicode="&#x202f;" horiz-adv-x="367" />
<glyph unicode="&#x2039;" horiz-adv-x="645" d="M96 528l10 86l386 371l88 -84l-349 -330l267 -329l-109 -84z" />
<glyph unicode="&#x203a;" horiz-adv-x="645" d="M66 242l350 329l-269 330l109 84l291 -371l-10 -86l-383 -370z" />
<glyph unicode="&#x205f;" horiz-adv-x="458" />
<glyph unicode="&#x20ac;" horiz-adv-x="1208" d="M78 514l12 102h150q1 12 8 70q3 42 12 86h-149l12 102h160q151 521 587 521q147 0 330 -62l-39 -119q-171 62 -297 62q-316 0 -436 -402h410l-13 -102h-422q0 -4 -12 -78l-8 -78h422l-12 -102h-412q6 -209 96.5 -314.5t237.5 -105.5q173 0 327 51l13 -118 q-204 -56 -350 -56q-75 0 -140.5 17t-126 57t-104 101t-70 155t-28.5 213h-158z" />
<glyph unicode="&#x2122;" horiz-adv-x="1488" d="M188 1294l9 66h473l-8 -66h-199l-84 -690h-76l84 690h-199zM659 604l123 756h88l160 -572l295 572h90l-61 -756h-74l55 570l13 94l-295 -578h-72l-152 578l-12 -94l-84 -570h-74z" />
<glyph unicode="&#x25fc;" horiz-adv-x="1024" d="M0 0v1024h1024v-1024h-1024z" />
</font>
</defs>
</svg>
