<?xml version="1.0" standalone="no"?>
<!DOCTYPE svg PUBLIC "-//W3C//DTD SVG 1.1//EN" "http://www.w3.org/Graphics/SVG/1.1/DTD/svg11.dtd" >
<svg xmlns="http://www.w3.org/2000/svg">
<metadata></metadata>
<defs>
<font id="marinebold" horiz-adv-x="1042" >
<font-face units-per-em="2048" ascent="1538" descent="-510" />
<missing-glyph horiz-adv-x="380" />
<glyph unicode="&#xfb01;" horiz-adv-x="1261" d="M31 852v195h194v59q0 213 116.5 308t369.5 95q147 0 295 -49l-52 -213q-129 33 -225 33q-219 0 -219 -201v-30h645v-1049h-287v852h-358v-852h-287v852h-192z" />
<glyph unicode="&#xfb02;" horiz-adv-x="1488" d="M31 852v195h194v59q0 97 27.5 171.5t73 121t112.5 75.5t139 40.5t160 11.5q237 0 518 -92v-1121q0 -61 17.5 -84.5t64.5 -23.5q66 0 121 14l39 -201q-102 -45 -211 -45q-168 0 -250 74q-32 29 -47 84q-11 36 -16 68t-5.5 53t-0.5 78v927q-82 31 -219 31q-148 0 -195 -47 q-43 -46 -43 -162v-30h293l-19 -197h-274v-852h-287v852h-192z" />
<glyph horiz-adv-x="0" />
<glyph horiz-adv-x="682" />
<glyph unicode=" "  horiz-adv-x="380" />
<glyph unicode="&#x09;" horiz-adv-x="380" />
<glyph unicode="&#xa0;" horiz-adv-x="380" />
<glyph unicode="!" horiz-adv-x="483" d="M88 1438h311l-39 -996h-239zM92 0v293h297l-2 -293h-295z" />
<glyph unicode="&#x22;" horiz-adv-x="796" d="M82 1434h258l-37 -514h-184zM457 1434h258l-37 -514h-184z" />
<glyph unicode="#" horiz-adv-x="1314" d="M78 352v215h207l34 195h-229v213h266l72 393h225l-69 -393h215l71 393h226l-70 -393h205v-213h-242l-35 -195h277v-215h-316l-65 -379h-227l65 379h-215l-65 -379h-228l66 379h-168zM512 567h215l35 195h-215z" />
<glyph unicode="$" horiz-adv-x="1009" d="M53 68l76 243q189 -86 356 -86q191 0 191 148q0 68 -59 118.5t-197 114.5q-84 39 -135 68q-45 26 -101 76q-104 93 -104 276q0 144 94.5 240t251.5 120l-8 224h186l-8 -219q128 -9 309 -74l-82 -223q-171 59 -286 59q-169 0 -172 -135q0 -55 45 -90l45 -33l65 -37l70 -35 q58 -32 102 -59q44 -25 96 -66q66 -53 91 -86q35 -41 58.5 -103t23.5 -126q0 -160 -96.5 -267.5t-266.5 -133.5l8 -209h-186l6 204q-217 18 -373 91z" />
<glyph unicode="%" horiz-adv-x="1789" d="M90 1044q0 223 80 306q84 84 233 84q159 0 232 -82q74 -80 74 -305q0 -223 -80 -306q-79 -79 -232 -79q-159 0 -233 77q-74 80 -74 305zM283 1044q0 -148 22 -200q24 -47 94 -47q69 0 93 47q24 50 24 200q0 152 -24 201q-23 51 -93 51q-69 0 -92 -51q-24 -49 -24 -201z M369 0l723 1415h264l-721 -1415h-266zM1036 362q0 223 80 306q84 84 234 84q158 0 231 -82q74 -80 74 -305q0 -223 -80 -306q-79 -79 -232 -79q-159 0 -233 77q-74 80 -74 305zM1229 362q0 -148 22 -200q24 -47 95 -47q68 0 92 47q24 49 24 200q0 152 -24 201q-23 51 -92 51 q-70 0 -93 -51q-24 -49 -24 -201z" />
<glyph unicode="&#x26;" horiz-adv-x="1544" d="M72 381q0 287 338 428q-115 145 -115 268q0 152 99 239t272 87q157 0 249.5 -75.5t92.5 -207.5q0 -111 -68.5 -193.5t-198.5 -156.5l303 -307q107 148 125 381h244q-21 -324 -199 -551q158 -125 322 -187l-104 -178q-185 61 -385 201q-190 -158 -465 -158 q-241 0 -375.5 106.5t-134.5 303.5zM330 399q0 -219 264 -219q171 0 301 109l-354 364q-116 -56 -163.5 -111t-47.5 -143zM543 1087q0 -80 73 -174q60 32 98 89.5t38 117.5q0 97 -93 97q-55 0 -85.5 -37t-30.5 -93z" />
<glyph unicode="'" horiz-adv-x="421" d="M82 1434h258l-37 -514h-184z" />
<glyph unicode="(" horiz-adv-x="618" d="M63 635q0 442 340 905l179 -123q-246 -421 -246 -782q0 -371 246 -785l-179 -122q-340 463 -340 907z" />
<glyph unicode=")" horiz-adv-x="618" d="M37 -150q246 414 246 785q0 361 -246 782l178 123q340 -463 340 -905q0 -444 -340 -907z" />
<glyph unicode="*" horiz-adv-x="804" d="M70 1006l200 71l-198 74l96 178l156 -143l-21 219h193l-19 -217l154 139l102 -176l-201 -72l201 -78l-104 -167l-152 135l21 -215h-195l21 221l-154 -141z" />
<glyph unicode="+" horiz-adv-x="989" d="M76 457v225h305v297h227v-297h305v-225h-305v-299h-227v299h-305z" />
<glyph unicode="," horiz-adv-x="446" d="M-41 -262q168 192 168 352q0 67 -35 148h236q24 -52 24 -117q0 -213 -182 -383h-211z" />
<glyph unicode="-" d="M104 457v223h834v-223h-834z" />
<glyph unicode="." horiz-adv-x="454" d="M80 0v293h295v-293h-295z" />
<glyph unicode="/" horiz-adv-x="872" d="M37 -182l584 1743l215 -64l-580 -1739z" />
<glyph unicode="0" horiz-adv-x="1185" d="M88 680q0 403 117 559t393 156q271 0 387 -152q113 -149 113 -557q-3 -210 -30.5 -345t-90.5 -217.5t-155.5 -115.5t-235.5 -35q-276 0 -387 150t-111 557zM373 684q0 -271 47 -371q46 -98 174 -98q126 0 172 98q47 100 47 371q0 273 -47 369q-46 98 -172 98 q-128 0 -174 -98q-47 -100 -47 -369z" />
<glyph unicode="1" horiz-adv-x="796" d="M14 1190l430 178h222v-1366h-285v1096l-318 -80z" />
<glyph unicode="2" horiz-adv-x="1060" d="M55 0v193l101 79l120 99l111 98q79 73 113 115q25 32 82 110q86 120 86 248q0 219 -232 219q-140 0 -272 -69l-60 204q156 99 394 99q192 0 321 -97q129 -94 129 -307q0 -173 -123 -379q-118 -203 -379 -383h551v-229h-942z" />
<glyph unicode="3" horiz-adv-x="1046" d="M55 45l62 227q168 -59 346 -59q233 0 233 211q0 96 -64.5 150.5t-185.5 54.5h-161v188h94q59 0 93.5 5t74.5 22q84 35 84 157q0 77 -54.5 116.5t-148.5 39.5q-150 0 -293 -61l-61 211q170 86 424 86q193 0 300 -96.5t107 -262.5q0 -92 -44 -170.5t-128 -115.5 q238 -92 238 -328q0 -209 -130 -328t-356 -119q-232 0 -430 72z" />
<glyph unicode="4" horiz-adv-x="1247" d="M63 352v162l572 854h332v-807h198v-209h-198v-352h-279v352h-625zM373 561h315v498z" />
<glyph unicode="5" horiz-adv-x="1062" d="M57 41l58 213q146 -41 291 -41q146 0 227.5 63.5t81.5 174.5q0 100 -61 163.5t-187 63.5q-106 0 -246 -51l-80 73v670h785v-237h-533v-254q66 16 172 16q206 0 319 -111t113 -323q0 -223 -161 -350q-159 -129 -400 -129q-222 0 -379 59z" />
<glyph unicode="6" horiz-adv-x="1085" d="M84 580q0 391 166 602t436 211q133 0 272 -56l-69 -217q-77 23 -184 23q-114 0 -195 -70.5t-109 -208.5q82 58 254 58q169 0 267 -114.5t98 -332.5q0 -211 -121 -356q-120 -144 -348 -144q-467 0 -467 605zM383 649q-9 -252 35 -342q46 -94 139 -94q87 0 134.5 68.5 t47.5 193.5q0 103 -51 156t-141 53q-74 0 -164 -35z" />
<glyph unicode="7" horiz-adv-x="950" d="M45 1135v235h881v-149q-194 -391 -273 -592q-93 -233 -121 -342q-27 -119 -55 -287h-274q15 127 30 201q19 98 54 219q82 282 321 715h-563z" />
<glyph unicode="8" horiz-adv-x="1126" d="M76 383q0 99 65.5 193.5t175.5 156.5q-174 101 -174 299q0 176 113 269.5t317 93.5t312 -88t108 -252q0 -209 -202 -320q258 -114 258 -346q0 -176 -115 -297q-114 -117 -361 -117q-497 0 -497 408zM348 389q0 -83 59.5 -129.5t155.5 -46.5q97 0 155 51.5t58 132.5 q0 91 -84 154q-82 61 -190 82q-154 -89 -154 -244zM401 1038q0 -65 49 -123.5t125 -91.5h9q65 34 108 96.5t43 114.5q0 65 -45 98t-117 33q-75 0 -123.5 -31.5t-48.5 -95.5z" />
<glyph unicode="9" horiz-adv-x="1087" d="M68 893q0 212 120 356t349 144q467 0 467 -605q0 -406 -159 -609.5t-444 -203.5q-133 0 -272 56l57 217q112 -23 213 -23q118 0 187.5 63.5t99.5 215.5q-98 -58 -254 -58q-169 0 -266.5 114.5t-97.5 332.5zM348 893q0 -103 51.5 -156t141.5 -53q74 0 164 35 q9 246 -37 340q-47 96 -138 96q-87 0 -134.5 -68.5t-47.5 -193.5z" />
<glyph unicode=":" horiz-adv-x="501" d="M102 0v293h295v-293h-295zM104 606v293h295v-293h-295z" />
<glyph unicode=";" horiz-adv-x="534" d="M4 -262q168 192 168 352q0 67 -35 148h275q24 -52 24 -117q0 -213 -182 -383h-250zM131 606v293h295v-293h-295z" />
<glyph unicode="&#x3c;" horiz-adv-x="899" d="M63 483v181l730 364v-250l-426 -203l426 -206v-246z" />
<glyph unicode="=" horiz-adv-x="999" d="M113 262v221h774v-221h-774zM113 664v219h774v-219h-774z" />
<glyph unicode="&#x3e;" horiz-adv-x="899" d="M106 123v246l426 206l-426 203v250l730 -364v-181z" />
<glyph unicode="?" horiz-adv-x="755" d="M98 0v293h295v-293h-295zM109 1266l51 188q240 -12 395 -115q154 -103 154 -262q0 -154 -172 -301q-55 -48 -78 -74q-33 -33 -59.5 -85.5t-32.5 -108.5q0 -30 -2 -57q-3 -41 -3 -54h-233q-6 73 -6 138q0 105 67 188q40 49 56 65q19 23 67 68l62 57q26 30 47.5 72t21.5 80 q0 174 -335 201z" />
<glyph unicode="@" horiz-adv-x="1640" d="M74 573q0 367 219 594q221 226 604 226q336 0 513 -173.5t177 -486.5q0 -526 -387 -526q-60 0 -118 34t-83 85q-38 -51 -100.5 -86t-122.5 -35q-142 0 -227.5 91t-85.5 249q0 218 125 352q126 135 313 135q122 0 287 -71l-37 -426q-2 -16 -2 -64q0 -41 19.5 -57.5 t68.5 -16.5q129 0 129 338q0 218 -120.5 337.5t-352.5 119.5q-278 0 -434 -164q-156 -163 -156 -450q0 -107 22 -194t61.5 -146t90 -102t112.5 -66.5t123 -34t128 -10.5q167 0 417 86l52 -177q-250 -110 -502 -110q-126 0 -234 26t-201 84t-158.5 144t-102.5 212t-37 283z M688 559q0 -166 107 -166q54 0 90 46.5t41 119.5l22 285q-15 6 -45 6q-92 0 -153.5 -83t-61.5 -208z" />
<glyph unicode="A" horiz-adv-x="1255" d="M-8 0l475 1368h334l459 -1368h-299l-107 324h-451l-102 -324h-309zM473 547h311l-153 538z" />
<glyph unicode="B" horiz-adv-x="1191" d="M131 20v1328q214 32 383 32q514 0 514 -354q0 -205 -154 -276q250 -77 250 -332q0 -95 -25 -165.5t-85 -131.5q-130 -133 -482 -133q-190 0 -401 32zM422 825h104q213 0 213 179q0 157 -204 157q-38 0 -113 -10v-326zM432 236q58 -9 137 -9q262 0 262 199q0 103 -65 150 t-207 47h-127v-387z" />
<glyph unicode="C" horiz-adv-x="1163" d="M80 688q0 191 57.5 333t159.5 222q198 150 473 150q147 0 334 -54l-47 -221q-137 49 -258 49q-407 0 -410 -473q0 -283 131 -389q65 -49 138.5 -69.5t175.5 -20.5q69 0 235 16l14 -227q-184 -31 -329 -31q-671 0 -674 715z" />
<glyph unicode="D" horiz-adv-x="1320" d="M131 18v1321q228 39 467 39q119 0 205.5 -17.5t167.5 -62.5q266 -146 266 -628q0 -161 -36.5 -288.5t-98.5 -203.5q-56 -71 -148 -119q-84 -42 -169.5 -58.5t-196.5 -16.5q-220 0 -457 34zM434 242q58 -9 131 -9q218 0 295 109q78 113 78 342q0 228 -72 344 q-70 117 -270 117q-67 0 -162 -10v-893z" />
<glyph unicode="E" horiz-adv-x="1161" d="M131 0v1368h924v-238h-621v-307h586v-229h-586v-356h641v-238h-944z" />
<glyph unicode="F" horiz-adv-x="1110" d="M131 0v1368h924v-235h-619v-310h565v-229h-565v-594h-305z" />
<glyph unicode="G" horiz-adv-x="1265" d="M78 688q6 192 64 334t159 221q192 150 469 150q167 0 354 -54l-47 -219q-143 47 -278 47q-410 0 -410 -473q0 -479 356 -479q97 0 156 6v451h275v-629q-189 -63 -445 -63q-650 0 -653 708z" />
<glyph unicode="H" horiz-adv-x="1374" d="M131 0v1368h301v-541h510v541h301v-1368h-301v590h-510v-590h-301z" />
<glyph unicode="I" horiz-adv-x="565" d="M131 0v1368h303v-1368h-303z" />
<glyph unicode="J" horiz-adv-x="559" d="M-164 -313l8 217q58 -6 103 -6q126 0 155 57q31 60 31 229v1184h303v-1223q0 -251 -100 -367t-299 -116q-88 0 -201 25z" />
<glyph unicode="K" horiz-adv-x="1374" d="M131 0v1368h303v-563h170l328 563h356l-418 -672l508 -696h-366l-406 582h-172v-582h-303z" />
<glyph unicode="L" horiz-adv-x="1028" d="M131 0v1368h305v-1130h572v-238h-877z" />
<glyph unicode="M" horiz-adv-x="1691" d="M94 0l88 1368h340l326 -870l321 870h340l88 -1368h-282l-43 979l-301 -805h-254l-299 807l-45 -981h-279z" />
<glyph unicode="N" horiz-adv-x="1484" d="M131 0v1368h322l606 -958v958h295v-1368h-324l-608 956v-956h-291z" />
<glyph unicode="O" horiz-adv-x="1351" d="M80 684q0 239 67 403q131 306 531 306q142 0 250.5 -39t173.5 -107q62 -62 104 -160q66 -162 66 -403q0 -153 -25.5 -267t-85.5 -218q-62 -107 -187 -165.5t-302 -58.5q-138 0 -248 39t-176 105q-60 60 -103 160q-37 93 -51 186.5t-14 218.5zM373 684q0 -171 30 -272 q56 -187 273 -187q148 0 221 86q47 61 64.5 151.5t17.5 221.5q0 115 -11 189.5t-40 140.5q-62 139 -252 139q-151 0 -221 -90q-48 -63 -65 -154t-17 -225z" />
<glyph unicode="P" horiz-adv-x="1169" d="M131 0v1341q196 41 449 41q120 0 208 -19t168 -65q172 -99 172 -374q0 -217 -127 -330t-348 -113q-100 0 -219 25v-506h-303zM434 705q63 -13 144 -13q129 0 194.5 50.5t65.5 172.5q0 250 -258 250q-58 0 -146 -16v-444z" />
<glyph unicode="Q" horiz-adv-x="1382" d="M80 684q0 239 67 403q131 306 531 306q142 0 250.5 -39t173.5 -107q62 -62 104 -160q66 -162 66 -403q0 -203 -72 -379q-70 -172 -213 -242q232 -27 434 -147l-147 -201q-29 29 -96 74q-37 25 -121 70q-68 33 -173 65.5t-212 50.5q-138 0 -248 39t-176 105 q-60 60 -103 160q-37 93 -51 186.5t-14 218.5zM373 684q0 -171 30 -272q56 -187 273 -187q148 0 221 86q47 61 64.5 151.5t17.5 221.5q0 115 -11 189.5t-40 140.5q-62 139 -252 139q-151 0 -221 -90q-48 -63 -65 -154t-17 -225z" />
<glyph unicode="R" horiz-adv-x="1214" d="M131 0v1343q192 39 449 39q120 0 208 -19t168 -65q172 -99 172 -374q0 -340 -276 -428l338 -496h-328l-289 469q-43 4 -139 23v-492h-303zM434 686q94 -12 144 -12q130 0 195 54t65 187q0 250 -258 250q-96 0 -146 -12v-467z" />
<glyph unicode="S" horiz-adv-x="1054" d="M59 68l45 235q223 -98 406 -98q209 0 209 162q0 82 -47.5 125.5t-173.5 87.5q-77 28 -99 34l-88 37q-61 30 -84 45q-96 74 -121 121q-45 85 -45 191q0 187 144 286t358 99q179 0 371 -66l-53 -223q-143 61 -291 61q-66 0 -100.5 -4t-69.5 -20q-74 -27 -74 -133 q0 -40 21 -78q13 -21 55 -51q9 -6 44 -20t40 -17l98 -33q395 -135 395 -422q0 -186 -131 -299t-336 -113q-295 0 -473 93z" />
<glyph unicode="T" horiz-adv-x="1130" d="M20 1133v235h1090v-235h-397v-1133h-303v1133h-390z" />
<glyph unicode="U" horiz-adv-x="1316" d="M121 504v862h307v-852q0 -155 43 -225q44 -68 191 -68q139 0 184 66q43 67 43 227v852h307v-862q0 -275 -121 -402t-418 -127q-285 0 -410.5 125.5t-125.5 403.5z" />
<glyph unicode="V" horiz-adv-x="1224" d="M-8 1368h301l319 -1024l320 1024h301l-471 -1368h-299z" />
<glyph unicode="W" horiz-adv-x="1748" d="M74 1368h270l88 -1034l313 919h252l318 -917l86 1032h274l-151 -1368h-342l-312 926l-305 -926h-342z" />
<glyph unicode="X" horiz-adv-x="1325" d="M18 0l482 684l-459 682h328l290 -465l289 465h334l-467 -670l492 -696h-346l-306 473l-309 -473h-328z" />
<glyph unicode="Y" horiz-adv-x="1214" d="M-16 1368h311l313 -584l314 584h309l-471 -827v-541h-303v541z" />
<glyph unicode="Z" horiz-adv-x="1146" d="M70 0v182l635 948h-631v238h970v-192l-628 -936h669v-240h-1015z" />
<glyph unicode="[" horiz-adv-x="708" d="M119 -268v1800h534v-205l-266 -16v-1360l266 -12v-207h-534z" />
<glyph unicode="\" horiz-adv-x="876" d="M39 1497l215 64l584 -1741l-220 -64z" />
<glyph unicode="]" horiz-adv-x="708" d="M55 -61l267 12v1360l-267 16v205h535v-1800h-535v207z" />
<glyph unicode="^" horiz-adv-x="1021" d="M57 604l361 713h180l365 -713h-250l-203 410l-207 -410h-246z" />
<glyph unicode="_" horiz-adv-x="1093" d="M104 0v223h885v-223h-885z" />
<glyph unicode="`" horiz-adv-x="702" d="M119 1358l100 227l387 -223l-69 -160z" />
<glyph unicode="a" d="M31 281q0 167 114 243q116 78 289 78q105 0 219 -27v95q0 95 -49 131.5t-158 36.5q-136 0 -260 -39l-53 196q229 76 408 76q399 0 399 -397v-623q-72 -35 -197 -59q-128 -25 -247 -25q-129 0 -228 27q-104 26 -170.5 100.5t-66.5 186.5zM303 289q0 -146 199 -146 q90 0 151 27v254q-86 25 -153 25q-197 0 -197 -160z" />
<glyph unicode="b" horiz-adv-x="1167" d="M106 43v1393h285v-412q158 45 281 45q204 0 316 -121t112 -373q0 -299 -130.5 -450.5t-406.5 -151.5q-109 0 -254 23q-137 22 -203 47zM391 215q63 -14 127 -14q154 0 219.5 82.5t65.5 248.5q0 314 -225 314q-103 0 -187 -37v-594z" />
<glyph unicode="c" horiz-adv-x="954" d="M66 520q0 283 149 414q151 133 391 133q143 0 277 -35l-27 -215q-117 27 -223 27q-142 0 -212.5 -76t-70.5 -250q0 -177 72.5 -254.5t212.5 -77.5q92 0 250 35l16 -203q-170 -45 -305 -45q-230 0 -381 136q-149 137 -149 411z" />
<glyph unicode="d" horiz-adv-x="1146" d="M70 506q0 225 102 379q55 86 153.5 133t231.5 47q113 0 195 -29v400h286v-1399q-217 -60 -467 -60q-501 0 -501 529zM360 504q0 -314 252 -314q70 0 140 21v627q-57 14 -146 14q-116 0 -181 -95.5t-65 -252.5z" />
<glyph unicode="e" horiz-adv-x="1062" d="M68 551q0 225 122 371q123 147 373 147q219 0 326.5 -105t107.5 -294q0 -76 -22 -183h-627v-26q0 -130 78 -197t217 -67q173 0 301 43l23 -213q-195 -56 -361 -56q-246 0 -393 135q-145 139 -145 445zM356 653h402q0 99 -48 156t-139 57q-51 0 -90.5 -16.5t-62.5 -40 t-37.5 -54.5t-19.5 -55.5t-5 -46.5z" />
<glyph unicode="f" horiz-adv-x="872" d="M31 854v197h202v55q0 136 68.5 232.5t177.5 134.5q104 38 237.5 38t266.5 -38l-31 -213q-104 26 -211 26t-161 -48t-54 -159v-28h330l-8 -197h-322v-854h-295v854h-200z" />
<glyph unicode="g" horiz-adv-x="1056" d="M31 -211q0 166 215 258q-66 54 -66 146q0 85 60 157q-172 108 -172 318q0 185 107.5 294t309.5 109q31 0 99 -6q94 -4 98 -4q164 0 358 31l21 -160q-100 -18 -221 -35q75 -100 75 -229q0 -177 -109 -279t-312 -102q-63 0 -111 10q-14 -25 -14 -61t18 -74h295 q165 0 258.5 -75.5t93.5 -203.5q0 -175 -147 -280q-146 -107 -395 -107q-220 0 -340.5 76t-120.5 217zM283 -182q0 -105 235 -105q260 0 260 142q0 46 -37.5 68t-128.5 22h-219q-110 -34 -110 -127zM338 666q0 -164 156 -164q74 0 116.5 42.5t42.5 121.5q0 97 -36 145.5 t-123 48.5q-156 0 -156 -194z" />
<glyph unicode="h" horiz-adv-x="1183" d="M109 0v1427l294 19v-430q174 59 334 59q344 0 344 -352v-723h-307v672q0 94 -39 130t-119 36q-92 0 -213 -41v-797h-294z" />
<glyph unicode="i" horiz-adv-x="491" d="M98 0v1051h295v-1051h-295zM98 1212v304h295v-304h-295z" />
<glyph unicode="j" horiz-adv-x="462" d="M-246 -362l27 212q83 -22 170 -22q139 0 139 211v1012h295v-1000q0 -259 -111 -358q-108 -99 -292 -99q-116 0 -228 44zM90 1212v304h295v-304h-295z" />
<glyph unicode="k" horiz-adv-x="1187" d="M109 0v1432l294 20v-793h115l291 390h311l-364 -474l432 -575h-328l-344 473h-113v-473h-294z" />
<glyph unicode="l" horiz-adv-x="638" d="M111 330v1104h295v-1121q0 -61 17 -84.5t64 -23.5q76 0 131 14l29 -201q-102 -45 -211 -45q-85 0 -151 21t-101 53q-32 28 -51 84q-11 35 -16 67.5t-5.5 53.5t-0.5 78z" />
<glyph unicode="m" horiz-adv-x="1796" d="M109 0v944q276 129 526 129q207 0 301 -82q189 82 383 82q375 0 375 -366v-707h-285v676q0 178 -168 178q-106 0 -207 -49q8 -55 8 -98v-707h-280v676q0 96 -45 137t-131 41q-107 0 -193 -45v-809h-284z" />
<glyph unicode="n" horiz-adv-x="1161" d="M109 0v952q275 121 538 121q173 0 285 -67q127 -76 127 -299v-707h-285v682q0 178 -172 178q-135 0 -209 -45v-815h-284z" />
<glyph unicode="o" horiz-adv-x="1112" d="M68 520q0 289 120 419t369 130q254 0 370.5 -127.5t116.5 -419.5q0 -289 -121.5 -419t-377.5 -130q-244 0 -360.5 129t-116.5 418zM350 520q0 -177 51 -252t154 -75q104 0 154.5 74.5t50.5 252.5q0 194 -51 260q-50 68 -152 68q-103 0 -156 -68q-51 -66 -51 -260z" />
<glyph unicode="p" horiz-adv-x="1161" d="M109 -436v1419q291 86 477 86q508 0 508 -530q0 -239 -105 -394q-56 -83 -158 -127.5t-241 -44.5q-57 0 -195 23v-432h-286zM395 225q80 -22 146 -22q129 0 195.5 88t66.5 250q0 305 -244 305q-87 0 -164 -21v-600z" />
<glyph unicode="q" horiz-adv-x="1153" d="M68 502q0 283 133 425t428 142q263 0 418 -76v-1448l-291 19v454q-122 -45 -277 -45q-198 0 -304.5 134t-106.5 395zM365 510q0 -167 50 -238t156 -71q93 0 185 30v598q-50 15 -119 15q-272 0 -272 -334z" />
<glyph unicode="r" horiz-adv-x="782" d="M109 0v1051h249l11 -99q135 117 309 117q59 0 98 -8l-35 -234q-54 7 -104 7q-171 0 -242 -50v-784h-286z" />
<glyph unicode="s" horiz-adv-x="903" d="M47 39l45 213q195 -62 320 -62q157 0 157 97q0 33 -28 61q-27 27 -54.5 42t-97.5 44l-117 51q-33 17 -92 58q-106 71 -106 202q0 326 420 326q176 0 327 -59l-41 -215q-107 49 -270 49q-162 0 -162 -90q0 -35 33 -64q33 -28 65 -44t107 -44q31 -11 82 -33q26 -10 74 -36 q52 -27 73 -54q64 -68 64 -164q0 -344 -440 -344q-98 0 -203 21q-103 18 -156 45z" />
<glyph unicode="t" horiz-adv-x="827" d="M31 852v197h190v239l289 25v-262h299l-16 -199h-285v-541q0 -61 19 -85.5t69 -24.5q70 0 143 18l31 -203q-101 -43 -231 -43q-194 0 -265 88q-24 34 -34.5 59t-16.5 68q-8 63 -8 150v514h-184z" />
<glyph unicode="u" horiz-adv-x="1157" d="M109 362v689h286v-666q0 -98 48 -140t145 -48q100 0 180 22v832h287v-981q-251 -88 -523 -88q-183 0 -305 90q-118 87 -118 290z" />
<glyph unicode="v" horiz-adv-x="1077" d="M20 1051h289l232 -822l233 822h287l-336 -1051h-367z" />
<glyph unicode="w" horiz-adv-x="1472" d="M43 1051h285l114 -822l152 822h291l149 -815l121 815h285l-228 -1051h-335l-138 754l-139 -754h-348z" />
<glyph unicode="x" horiz-adv-x="1163" d="M12 0l400 545l-359 506h320l217 -353l217 353h311l-356 -510l385 -541h-316l-247 391l-250 -391h-322z" />
<glyph unicode="y" horiz-adv-x="1032" d="M-16 1051h280l244 -820l217 820h283l-312 -969q-95 -299 -207 -414q-113 -119 -299 -119q-111 0 -196 31l31 205q47 -18 116 -18q108 0 181.5 63t93.5 170h-92z" />
<glyph unicode="z" horiz-adv-x="983" d="M51 156l502 698h-457l-22 197h786l29 -162l-506 -694h563v-195h-868z" />
<glyph unicode="{" horiz-adv-x="755" d="M37 532v213h88q33 0 41 31q6 15 6 29q4 32 4 76l10 309q6 165 95 259.5t239 94.5h182v-194h-194q-82 0 -82 -164l-4 -264q-3 -206 -92 -283q89 -77 92 -283l4 -264q0 -164 82 -164h194v-194h-182q-150 0 -239 94.5t-95 259.5l-10 309q0 44 -4 76q0 25 -12 42t-35 17h-88z " />
<glyph unicode="|" horiz-adv-x="479" d="M121 -88v1509h237v-1509h-237z" />
<glyph unicode="}" horiz-adv-x="755" d="M53 -72h195q82 0 82 164l4 264q3 206 92 283q-89 77 -92 283l-4 264q0 164 -82 164h-195v194h183q149 0 238 -94t95 -260l11 -309q0 -7 1 -37.5t1 -38.5q4 -19 8 -30t14.5 -20.5t26.5 -9.5h88v-213h-88q-33 0 -43 -30l-6 -29q0 -8 -1 -38.5t-1 -37.5l-11 -309 q-6 -166 -95 -260t-238 -94h-183v194z" />
<glyph unicode="~" horiz-adv-x="1161" d="M70 555q121 213 280 213q105 0 262 -74q141 -63 203 -63q86 0 150 94l129 -113q-120 -211 -295 -211q-95 0 -248 72q-125 64 -203 64q-84 0 -149 -95z" />
<glyph horiz-adv-x="0" />
<glyph unicode="&#xa1;" horiz-adv-x="466" d="M76 -365l39 996h239l33 -996h-311zM86 780l2 293h295v-293h-297z" />
<glyph unicode="&#xa2;" horiz-adv-x="899" d="M53 692q0 244 110 381.5t302 161.5l-12 238h184l-14 -236q95 -9 206 -39l-38 -201q-127 19 -203 19q-133 0 -197.5 -74t-64.5 -252q0 -193 69 -262q70 -70 203 -70q117 0 207 19l22 -184q-106 -32 -202 -43l12 -224h-184l12 226q-190 26 -301 163t-111 377z" />
<glyph unicode="&#xa3;" horiz-adv-x="1071" d="M74 623v204h114q-24 73 -24 179q0 187 108 290t299 103q149 0 338 -56l-51 -200q-101 37 -254 37q-190 0 -190 -164q0 -94 30 -189h332l12 -204h-282q10 -58 10 -123q0 -137 -65 -264h555v-236h-879v205q63 34 104 123q39 85 39 182q0 67 -16 113h-180z" />
<glyph unicode="&#xa4;" horiz-adv-x="1099" d="M63 43l162 207q-88 116 -88 262q0 154 99 274q-15 24 -80 101q-39 44 -76 94l141 109l154 -197q87 37 186 37q97 0 164 -33q98 131 152 193l139 -109l-144 -186q111 -120 111 -283q0 -157 -104 -276l51 -64l100 -129l-141 -109l-150 197q-68 -35 -178 -35q-109 0 -196 43 l-76 -96l-84 -109zM330 512q0 -99 66 -166t165 -67q98 0 164 67t66 166q0 100 -66 169t-164 69q-99 0 -165 -69t-66 -169z" />
<glyph unicode="&#xa5;" horiz-adv-x="1241" d="M43 1368h299l279 -584l278 584h299l-358 -690h231v-172h-303v-109h303v-174h-303v-223h-295v223h-303v174h303v109h-303v172h231z" />
<glyph unicode="&#xa6;" horiz-adv-x="483" d="M123 -88v584h237v-584h-237zM123 834v587h237v-587h-237z" />
<glyph unicode="&#xa7;" horiz-adv-x="776" d="M49 588q0 84 37 157q38 71 123 129l-6 17q-23 84 -23 133q0 252 258 346q50 18 129 35l47 -203l-94 -33q-112 -40 -112 -125q0 -23 16 -63q41 -90 135 -229l4 -7q107 -155 135 -221q31 -73 31 -145q0 -96 -39 -164q-42 -74 -125 -127l4 -8q29 -69 29 -137q0 -93 -37 -166 q-26 -54 -87 -105t-136 -80q-56 -21 -129 -30l-47 198l96 31q111 40 111 125q0 33 -17 64q-25 61 -59 112q-8 14 -22.5 36t-30.5 46.5t-21 32.5l-18 27t-29 42q-52 76 -94 162q-29 69 -29 150zM279 608q0 -37 12 -67q40 -96 141 -236l31 -43q37 40 37 90q0 29 -15 70 q-27 73 -172 274q-34 -34 -34 -88z" />
<glyph unicode="&#xa8;" horiz-adv-x="698" d="M35 1262v247h248v-247h-248zM412 1262v247h247v-247h-247z" />
<glyph unicode="&#xa9;" horiz-adv-x="1466" d="M78 618q0 275 190 465q191 191 465 191t465 -191t191 -465q0 -273 -191 -464t-465 -191t-465 191q-190 190 -190 464zM229 614q0 -224 144 -374q145 -148 360 -148q218 0 359 150q143 149 143 376q0 228 -143 371q-142 148 -359 148q-216 0 -360 -150 q-144 -147 -144 -373zM410 612q0 196 106 283q107 88 268 88q71 0 187 -29l-25 -114q-84 20 -143 20q-216 0 -219 -244q1 -133 60.5 -188t174.5 -55q51 0 135 8l4 -121q-101 -16 -180 -16q-368 0 -368 368z" />
<glyph unicode="&#xaa;" horiz-adv-x="673" d="M70 999q0 89 65 135t172 46q57 0 125 -15v49q0 54 -27.5 74.5t-89.5 20.5q-69 0 -155 -25l-31 115q139 43 242 43q237 0 237 -225v-349q-112 -47 -264 -47q-274 0 -274 178zM238 1001q0 -77 110 -77q52 0 84 14v139q-50 13 -84 13q-110 0 -110 -89z" />
<glyph unicode="&#xab;" horiz-adv-x="1146" d="M74 506v121l360 379l168 -144l-287 -297l287 -291l-168 -149zM547 506v121l360 379l168 -144l-284 -297l284 -291l-168 -149z" />
<glyph unicode="&#xac;" horiz-adv-x="1159" d="M104 682v223h936v-444h-225v221h-711z" />
<glyph unicode="&#xad;" />
<glyph unicode="&#xae;" horiz-adv-x="1466" d="M78 618q0 275 190 465q191 191 465 191t465 -191t191 -465q0 -273 -191 -464t-465 -191t-465 191q-190 190 -190 464zM229 614q0 -224 144 -374q145 -148 360 -148q218 0 359 150q143 149 143 376q0 228 -143 371q-142 148 -359 148q-216 0 -360 -150 q-144 -147 -144 -373zM469 264v684q120 19 240 19q292 0 292 -234q0 -171 -143 -217l178 -252h-180l-154 238q-39 2 -65 10v-248h-168zM637 614q68 -6 72 -6q133 0 133 121q0 125 -133 125q-42 0 -72 -6v-234z" />
<glyph unicode="&#xaf;" horiz-adv-x="1089" d="M92 1108v223h905v-223h-905z" />
<glyph unicode="&#xb0;" horiz-adv-x="636" d="M72 1155q0 107 65 175.5t180 68.5q118 0 183 -67.5t65 -174.5t-66.5 -178.5t-183.5 -71.5q-115 0 -179 70t-64 178zM213 1151q0 -48 26.5 -80.5t77.5 -32.5q109 0 109 117q0 111 -109 111q-52 0 -78 -31.5t-26 -83.5z" />
<glyph unicode="&#xb1;" horiz-adv-x="1046" d="M104 682v225h306v297h227v-297h305v-225h-305v-299h-227v299h-306zM106 2v223h834v-223h-834z" />
<glyph unicode="&#xb2;" horiz-adv-x="813" d="M94 512v125l53 43q110 83 211 184q115 115 115 223q0 125 -131 125q-80 0 -176 -57l-41 148q106 65 256 65q128 0 207.5 -63.5t79.5 -188.5q0 -105 -73.5 -225.5t-215.5 -224.5h321v-154h-606z" />
<glyph unicode="&#xb3;" horiz-adv-x="774" d="M72 549l41 153q107 -43 215 -43q123 0 123 121q0 54 -34.5 84.5t-97.5 30.5h-112v129h72q40 -1 65 4.5t44.5 29t23.5 68.5q0 78 -103 78q-98 0 -186 -39l-41 150q113 55 266 55q122 0 190 -59.5t68 -163.5q0 -119 -96 -172q135 -64 135 -199q0 -130 -82 -203t-221 -73 t-270 49z" />
<glyph unicode="&#xb4;" horiz-adv-x="700" d="M102 1362l387 223l101 -227l-418 -156z" />
<glyph unicode="&#xb5;" horiz-adv-x="1122" d="M125 -412v1463h287v-666q0 -98 47.5 -140t144.5 -48q109 0 189 22v832h286v-979q-59 -34 -184 -62q-132 -30 -258 -30q-137 0 -225 49v-441h-287z" />
<glyph unicode="&#xb6;" horiz-adv-x="1036" d="M43 1044q0 136 94 230t232 94h610v-131h-148v-1569h-151v1569h-152v-1569h-159v1051q-138 0 -232 94t-94 231z" />
<glyph unicode="&#xb7;" horiz-adv-x="466" d="M86 387v293h295v-293h-295z" />
<glyph unicode="&#xb8;" horiz-adv-x="565" d="M109 -471q118 87 118 186q0 58 -43 168h254q37 -78 37 -155q0 -199 -262 -332z" />
<glyph unicode="&#xb9;" horiz-adv-x="663" d="M25 1231l307 125h151v-842h-200v657l-211 -69z" />
<glyph unicode="&#xba;" horiz-adv-x="706" d="M76 1130q0 164 67.5 237t210.5 73q147 0 212 -70.5t65 -236.5q0 -164 -67.5 -237t-215.5 -73q-143 0 -207.5 71.5t-64.5 235.5zM246 1130q0 -97 25.5 -137.5t80.5 -40.5q57 0 83 40.5t26 137.5q0 101 -25 140t-82 39q-58 0 -83 -39t-25 -140z" />
<glyph unicode="&#xbb;" horiz-adv-x="1148" d="M76 279l284 290l-284 297l168 144l360 -379v-121l-360 -381zM549 279l287 290l-287 297l168 144l360 -379v-121l-360 -381z" />
<glyph unicode="&#xbc;" horiz-adv-x="1753" d="M39 1276l307 125h152v-842h-201v658l-211 -70zM319 -94l811 1648l173 -79l-807 -1645zM979 217v100l358 525h224v-492h137v-133h-137v-217h-199v217h-383zM1186 350h176v252z" />
<glyph unicode="&#xbd;" horiz-adv-x="1732" d="M39 1276l307 125h152v-842h-201v658l-211 -70zM319 -94l811 1648l173 -79l-807 -1645zM1063 0v125l53 43q110 83 211 184q115 115 115 223q0 125 -131 125q-80 0 -176 -57l-41 148q106 65 256 65q128 0 207 -63.5t79 -188.5q0 -105 -73.5 -225.5t-214.5 -224.5h321v-154 h-606z" />
<glyph unicode="&#xbe;" horiz-adv-x="1785" d="M51 590l41 153q107 -43 215 -43q123 0 123 121q0 54 -34 84.5t-97 30.5h-113v129h72q40 -1 65 4.5t44.5 29t23.5 68.5q0 78 -102 78q-99 0 -187 -39l-41 150q113 55 267 55q122 0 190 -59.5t68 -163.5q0 -118 -97 -172q136 -65 136 -199q0 -130 -82 -203t-221 -73 q-140 0 -271 49zM385 -94l811 1648l172 -79l-807 -1645zM1024 217v100l358 525h224v-492h137v-133h-137v-217h-199v217h-383zM1231 350h176v252z" />
<glyph unicode="&#xbf;" horiz-adv-x="720" d="M43 -39q0 154 172 301q49 44 78 72q33 35 59.5 87.5t32.5 108.5q0 9 2 55.5t2 55.5h234q6 -73 6 -137q0 -103 -68 -191l-55 -65l-68 -66l-61 -59q-25 -25 -47.5 -68t-22.5 -82q0 -173 336 -200l-51 -189q-240 12 -395 115q-154 103 -154 262zM356 778v293h295v-293h-295z " />
<glyph unicode="&#xc0;" horiz-adv-x="1255" d="M-8 0l475 1368h334l459 -1368h-299l-107 324h-451l-102 -324h-309zM338 1655l100 227l387 -223l-69 -160zM473 547h311l-153 538z" />
<glyph unicode="&#xc1;" horiz-adv-x="1255" d="M-8 0l475 1368h334l459 -1368h-299l-107 324h-451l-102 -324h-309zM406 1665l387 223l100 -227l-418 -156zM473 547h311l-153 538z" />
<glyph unicode="&#xc2;" horiz-adv-x="1255" d="M-8 0l475 1368h334l459 -1368h-299l-107 324h-451l-102 -324h-309zM330 1563l227 243h152l227 -243l-131 -107l-172 174l-172 -174zM473 547h311l-153 538z" />
<glyph unicode="&#xc3;" horiz-adv-x="1255" d="M-8 0l475 1368h334l459 -1368h-299l-107 324h-451l-102 -324h-309zM264 1628q39 65 99 109.5t118 44.5q55 0 144 -45q90 -43 133 -43q53 0 112 71l101 -110q-38 -64 -100.5 -109t-120.5 -45q-57 0 -144 43q-86 45 -129 45q-53 0 -112 -71zM473 547h311l-153 538z" />
<glyph unicode="&#xc4;" horiz-adv-x="1255" d="M-8 0l475 1368h334l459 -1368h-299l-107 324h-451l-102 -324h-309zM326 1505v248h247v-248h-247zM473 547h311l-153 538zM702 1505v248h248v-248h-248z" />
<glyph unicode="&#xc5;" horiz-adv-x="1255" d="M-8 0l475 1368h334l459 -1368h-299l-107 324h-451l-102 -324h-309zM420 1667q0 89 53 148q55 61 158 61q102 0 155 -59q56 -59 56 -148q0 -86 -56 -151q-56 -62 -157 -62q-103 0 -156 62t-53 149zM473 547h311l-153 538zM559 1665q0 -34 18.5 -57t53.5 -23q74 0 74 82 q0 78 -74 78q-72 0 -72 -80z" />
<glyph unicode="&#xc6;" horiz-adv-x="1673" d="M-14 0l589 1368h994v-238h-568v-309h535v-229h-535v-356h586v-238h-829v326h-346l-129 -324h-297zM500 547h239v622z" />
<glyph unicode="&#xc7;" horiz-adv-x="1163" d="M80 688q0 191 57.5 333t159.5 222q198 150 473 150q147 0 334 -54l-47 -221q-137 49 -258 49q-407 0 -410 -473q0 -283 131 -389q65 -49 138.5 -69.5t175.5 -20.5q69 0 235 16l14 -227q-184 -31 -329 -31q-671 0 -674 715zM526 -471q119 88 119 186q0 58 -43 168h254 q37 -78 37 -155q0 -199 -262 -332z" />
<glyph unicode="&#xc8;" horiz-adv-x="1161" d="M131 0v1368h924v-238h-621v-307h586v-229h-586v-356h641v-238h-944zM305 1655l101 227l387 -223l-70 -160z" />
<glyph unicode="&#xc9;" horiz-adv-x="1161" d="M131 0v1368h924v-238h-621v-307h586v-229h-586v-356h641v-238h-944zM362 1663l388 223l100 -227l-418 -156z" />
<glyph unicode="&#xca;" horiz-adv-x="1161" d="M131 0v1368h924v-238h-621v-307h586v-229h-586v-356h641v-238h-944zM289 1563l227 243h152l227 -243l-131 -107l-172 174l-172 -174z" />
<glyph unicode="&#xcb;" horiz-adv-x="1161" d="M131 0v1368h924v-238h-621v-307h586v-229h-586v-356h641v-238h-944zM270 1505v248h248v-248h-248zM647 1505v248h248v-248h-248z" />
<glyph unicode="&#xcc;" horiz-adv-x="557" d="M-45 1649l100 227l387 -223l-69 -160zM131 0v1368h303v-1368h-303z" />
<glyph unicode="&#xcd;" horiz-adv-x="557" d="M96 1665l387 223l101 -227l-418 -156zM131 0v1368h303v-1368h-303z" />
<glyph unicode="&#xce;" horiz-adv-x="557" d="M-33 1561l228 243h151l227 -243l-131 -107l-172 174l-172 -174zM121 0v1368h303v-1368h-303z" />
<glyph unicode="&#xcf;" horiz-adv-x="522" d="M-51 1505v248h248v-248h-248zM115 0v1368h303v-1368h-303zM326 1505v248h247v-248h-247z" />
<glyph unicode="&#xd0;" horiz-adv-x="1409" d="M43 573v230h176v536q228 39 467 39q119 0 205.5 -17.5t167.5 -62.5q266 -146 266 -628q0 -161 -36.5 -288.5t-98.5 -203.5q-56 -71 -148 -119q-84 -42 -169.5 -58.5t-196.5 -16.5q-220 0 -457 34v555h-176zM522 242q58 -9 131 -9q218 0 295 109q78 113 78 342 q0 228 -72 344q-70 117 -270 117q-67 0 -162 -10v-332h244v-230h-244v-331z" />
<glyph unicode="&#xd1;" horiz-adv-x="1484" d="M131 0v1368h322l606 -958v958h295v-1368h-324l-608 956v-956h-291zM367 1630q39 65 99 109.5t118 44.5q54 0 143 -45q90 -43 133 -43q54 0 113 71l100 -110q-38 -64 -100.5 -109t-120.5 -45q-56 0 -143 43q-86 45 -129 45q-54 0 -113 -71z" />
<glyph unicode="&#xd2;" horiz-adv-x="1351" d="M80 684q0 239 67 403q131 306 531 306q142 0 250.5 -39t173.5 -107q62 -62 104 -160q66 -162 66 -403q0 -153 -25.5 -267t-85.5 -218q-62 -107 -187 -165.5t-302 -58.5q-138 0 -248 39t-176 105q-60 60 -103 160q-37 93 -51 186.5t-14 218.5zM373 684q0 -171 30 -272 q56 -187 273 -187q148 0 221 86q47 61 64.5 151.5t17.5 221.5q0 115 -11 189.5t-40 140.5q-62 139 -252 139q-151 0 -221 -90q-48 -63 -65 -154t-17 -225zM416 1649l100 227l387 -223l-69 -160z" />
<glyph unicode="&#xd3;" horiz-adv-x="1351" d="M80 684q0 239 67 403q131 306 531 306q142 0 250.5 -39t173.5 -107q62 -62 104 -160q66 -162 66 -403q0 -153 -25.5 -267t-85.5 -218q-62 -107 -187 -165.5t-302 -58.5q-138 0 -248 39t-176 105q-60 60 -103 160q-37 93 -51 186.5t-14 218.5zM373 684q0 -171 30 -272 q56 -187 273 -187q148 0 221 86q47 61 64.5 151.5t17.5 221.5q0 115 -11 189.5t-40 140.5q-62 139 -252 139q-151 0 -221 -90q-48 -63 -65 -154t-17 -225zM459 1665l387 223l100 -227l-418 -156z" />
<glyph unicode="&#xd4;" horiz-adv-x="1351" d="M80 684q0 239 67 403q131 306 531 306q142 0 250.5 -39t173.5 -107q62 -62 104 -160q66 -162 66 -403q0 -153 -25.5 -267t-85.5 -218q-62 -107 -187 -165.5t-302 -58.5q-138 0 -248 39t-176 105q-60 60 -103 160q-37 93 -51 186.5t-14 218.5zM373 684q0 -171 30 -272 q56 -187 273 -187q148 0 221 86q47 61 64.5 151.5t17.5 221.5q0 115 -11 189.5t-40 140.5q-62 139 -252 139q-151 0 -221 -90q-48 -63 -65 -154t-17 -225zM375 1561l227 243h152l227 -243l-131 -107l-172 174l-172 -174z" />
<glyph unicode="&#xd5;" horiz-adv-x="1351" d="M80 684q0 239 67 403q131 306 531 306q142 0 250.5 -39t173.5 -107q62 -62 104 -160q66 -162 66 -403q0 -153 -25.5 -267t-85.5 -218q-62 -107 -187 -165.5t-302 -58.5q-138 0 -248 39t-176 105q-60 60 -103 160q-37 93 -51 186.5t-14 218.5zM328 1624q39 65 99 109.5 t118 44.5q56 0 145 -45q90 -43 131 -43q54 0 113 71l100 -110q-38 -64 -100.5 -109t-120.5 -45q-56 0 -143 43q-86 45 -129 45q-53 0 -113 -72zM373 684q0 -171 30 -272q56 -187 273 -187q148 0 221 86q47 61 64.5 151.5t17.5 221.5q0 115 -11 189.5t-40 140.5 q-62 139 -252 139q-151 0 -221 -90q-48 -63 -65 -154t-17 -225z" />
<glyph unicode="&#xd6;" horiz-adv-x="1351" d="M80 684q0 239 67 403q131 306 531 306q142 0 250.5 -39t173.5 -107q62 -62 104 -160q66 -162 66 -403q0 -153 -25.5 -267t-85.5 -218q-62 -107 -187 -165.5t-302 -58.5q-138 0 -248 39t-176 105q-60 60 -103 160q-37 93 -51 186.5t-14 218.5zM346 1505v248h248v-248h-248 zM373 684q0 -171 30 -272q56 -187 273 -187q148 0 221 86q47 61 64.5 151.5t17.5 221.5q0 115 -11 189.5t-40 140.5q-62 139 -252 139q-151 0 -221 -90q-48 -63 -65 -154t-17 -225zM723 1505v248h248v-248h-248z" />
<glyph unicode="&#xd7;" horiz-adv-x="1056" d="M80 307l287 287l-283 280l162 162l280 -280l283 280l164 -159l-281 -279l285 -287l-160 -157l-287 282l-286 -286z" />
<glyph unicode="&#xd8;" horiz-adv-x="1351" d="M80 686q0 240 67 404q131 305 531 305q54 0 104 -6l62 180l215 -64l-62 -180q275 -145 275 -639q0 -153 -25.5 -267t-85.5 -218q-62 -107 -187 -165.5t-302 -58.5q-48 0 -121 9l-72 -219l-219 59l76 229q-256 151 -256 631zM373 686q0 -241 61 -342l271 809q-6 2 -29 2 q-151 0 -221 -90q-48 -63 -65 -154t-17 -225zM633 229q8 -2 43 -2q148 0 221 86q47 61 64.5 151.5t17.5 221.5q0 258 -72 365z" />
<glyph unicode="&#xd9;" horiz-adv-x="1316" d="M121 504v862h307v-852q0 -155 43 -225q44 -68 191 -68q139 0 184 66q43 67 43 227v852h307v-862q0 -275 -121 -402t-418 -127q-285 0 -410.5 125.5t-125.5 403.5zM334 1649l100 227l387 -223l-69 -160z" />
<glyph unicode="&#xda;" horiz-adv-x="1316" d="M121 504v862h307v-852q0 -155 43 -225q44 -68 191 -68q139 0 184 66q43 67 43 227v852h307v-862q0 -275 -121 -402t-418 -127q-285 0 -410.5 125.5t-125.5 403.5zM420 1661l387 223l100 -227l-418 -156z" />
<glyph unicode="&#xdb;" horiz-adv-x="1316" d="M121 504v862h307v-852q0 -155 43 -225q44 -68 191 -68q139 0 184 66q43 67 43 227v852h307v-862q0 -275 -121 -402t-418 -127q-285 0 -410.5 125.5t-125.5 403.5zM350 1565l228 243h151l227 -243l-131 -107l-172 174l-172 -174z" />
<glyph unicode="&#xdc;" horiz-adv-x="1316" d="M121 504v862h307v-852q0 -155 43 -225q44 -68 191 -68q139 0 184 66q43 67 43 227v852h307v-862q0 -275 -121 -402t-418 -127q-285 0 -410.5 125.5t-125.5 403.5zM340 1503v248h248v-248h-248zM717 1503v248h248v-248h-248z" />
<glyph unicode="&#xdd;" horiz-adv-x="1214" d="M-16 1368h311l313 -584l314 584h309l-471 -827v-541h-303v541zM365 1665l387 223l100 -227l-418 -156z" />
<glyph unicode="&#xde;" horiz-adv-x="1032" d="M131 0v1427h213v-204h115q159 0 250.5 -25t160.5 -88q121 -109 121 -301q0 -230 -133 -330q-74 -57 -175.5 -80.5t-274.5 -23.5h-64v-375h-213zM344 565h86q200 0 268 47q78 57 78 187q0 109 -63 172q-64 61 -252 61h-117v-467z" />
<glyph unicode="&#xdf;" horiz-adv-x="1236" d="M109 -264v1278q0 229 126 345t359 116q200 0 306 -90t106 -246q0 -55 -22.5 -103.5t-55 -82.5t-65 -64t-55 -62t-22.5 -63t17 -62q12 -16 26.5 -26.5t23.5 -15t48 -21.5h-2q72 -33 86 -41q26 -12 78 -43q51 -31 72 -61q65 -77 65 -181q0 -158 -101.5 -249t-275.5 -91 q-79 0 -194 31q-117 36 -166 72l72 200q407 -170 407 21q0 68 -151 131l-52.5 25.5t-52 28t-53 35t-44 41.5t-38.5 52t-23 62t-10 76q0 64 32 124.5t75 96.5q106 89 106 153q0 131 -141 131q-104 0 -151.5 -58t-47.5 -185v-1274h-282z" />
<glyph unicode="&#xe0;" d="M31 281q0 167 114 243q116 78 289 78q105 0 219 -27v95q0 95 -49 131.5t-158 36.5q-136 0 -260 -39l-53 196q229 76 408 76q399 0 399 -397v-623q-72 -35 -197 -59q-128 -25 -247 -25q-129 0 -228 27q-104 26 -170.5 100.5t-66.5 186.5zM274 1358l101 227l387 -223 l-70 -160zM303 289q0 -146 199 -146q90 0 151 27v254q-86 25 -153 25q-197 0 -197 -160z" />
<glyph unicode="&#xe1;" d="M31 281q0 167 114 243q116 78 289 78q105 0 219 -27v95q0 95 -49 131.5t-158 36.5q-136 0 -260 -39l-53 196q229 76 408 76q399 0 399 -397v-623q-72 -35 -197 -59q-128 -25 -247 -25q-129 0 -228 27q-104 26 -170.5 100.5t-66.5 186.5zM289 1362l387 223l100 -227 l-418 -156zM303 289q0 -146 199 -146q90 0 151 27v254q-86 25 -153 25q-197 0 -197 -160z" />
<glyph unicode="&#xe2;" d="M31 281q0 167 114 243q116 78 289 78q105 0 219 -27v95q0 95 -49 131.5t-158 36.5q-136 0 -260 -39l-53 196q229 76 408 76q399 0 399 -397v-623q-72 -35 -197 -59q-128 -25 -247 -25q-129 0 -228 27q-104 26 -170.5 100.5t-66.5 186.5zM221 1317l228 244h151l227 -244 l-131 -107l-172 174l-172 -174zM303 289q0 -146 199 -146q90 0 151 27v254q-86 25 -153 25q-197 0 -197 -160z" />
<glyph unicode="&#xe3;" d="M31 281q0 167 114 243q116 78 289 78q105 0 219 -27v95q0 95 -49 131.5t-158 36.5q-136 0 -260 -39l-53 196q229 76 408 76q399 0 399 -397v-623q-72 -35 -197 -59q-128 -25 -247 -25q-129 0 -228 27q-104 26 -170.5 100.5t-66.5 186.5zM168 1337q39 65 99 109.5 t118 44.5q56 0 145 -45q90 -43 132 -43q52 0 112 72l100 -111q-38 -64 -100.5 -109t-120.5 -45q-56 0 -143 43q-86 45 -129 45q-54 0 -113 -71zM303 289q0 -146 199 -146q90 0 151 27v254q-86 25 -153 25q-197 0 -197 -160z" />
<glyph unicode="&#xe4;" d="M31 281q0 167 114 243q116 78 289 78q105 0 219 -27v95q0 95 -49 131.5t-158 36.5q-136 0 -260 -39l-53 196q229 76 408 76q399 0 399 -397v-623q-72 -35 -197 -59q-128 -25 -247 -25q-129 0 -228 27q-104 26 -170.5 100.5t-66.5 186.5zM190 1262v247h248v-247h-248z M303 289q0 -146 199 -146q90 0 151 27v254q-86 25 -153 25q-197 0 -197 -160zM567 1262v247h248v-247h-248z" />
<glyph unicode="&#xe5;" d="M31 281q0 167 114 243q116 78 289 78q105 0 219 -27v95q0 95 -49 131.5t-158 36.5q-136 0 -260 -39l-53 196q229 76 408 76q399 0 399 -397v-623q-72 -35 -197 -59q-128 -25 -247 -25q-129 0 -228 27q-104 26 -170.5 100.5t-66.5 186.5zM303 289q0 -146 199 -146 q90 0 151 27v254q-86 25 -153 25q-197 0 -197 -160zM313 1434q0 87 54 147q55 61 157 61q103 0 156 -59q55 -58 55 -147q0 -88 -55 -152q-55 -61 -158 -61t-155 61q-54 63 -54 150zM453 1432q0 -35 18 -57.5t53 -22.5q74 0 74 82q0 77 -74 77q-71 0 -71 -79z" />
<glyph unicode="&#xe6;" horiz-adv-x="1640" d="M43 281q0 166 115 243q116 78 288 78q106 0 220 -27v95q0 95 -49 131.5t-158 36.5q-136 0 -260 -39l-54 196q198 76 408 76q104 0 167.5 -26.5t102.5 -96.5q92 121 318 121q219 0 326.5 -105t107.5 -294q0 -78 -23 -181h-626v-28q0 -130 78 -197t217 -67q173 0 301 43 l22 -213q-195 -56 -360 -56q-180 0 -328 86q-159 -90 -348 -90q-128 0 -227 27q-104 26 -171 100.5t-67 186.5zM315 289q0 -146 199 -146q149 0 211 47q-56 97 -59 234q-86 25 -154 25q-197 0 -197 -160zM934 653h401q0 99 -48 156t-138 57q-51 0 -90.5 -16.5t-62.5 -40 t-37.5 -54.5t-19.5 -55.5t-5 -46.5z" />
<glyph unicode="&#xe7;" horiz-adv-x="954" d="M66 520q0 283 149 414q151 133 391 133q143 0 277 -35l-27 -215q-117 27 -223 27q-142 0 -212.5 -76t-70.5 -250q0 -177 72.5 -254.5t212.5 -77.5q92 0 250 35l16 -203q-170 -45 -305 -45q-230 0 -381 136q-149 137 -149 411zM342 -471q119 88 119 186q0 58 -43 168h254 q37 -78 37 -155q0 -199 -263 -332z" />
<glyph unicode="&#xe8;" horiz-adv-x="1062" d="M68 551q0 225 122 371q123 147 373 147q219 0 326.5 -105t107.5 -294q0 -76 -22 -183h-627v-26q0 -130 78 -197t217 -67q173 0 301 43l23 -213q-195 -56 -361 -56q-246 0 -393 135q-145 139 -145 445zM262 1358l100 227l388 -223l-70 -160zM356 653h402q0 99 -48 156 t-139 57q-51 0 -90.5 -16.5t-62.5 -40t-37.5 -54.5t-19.5 -55.5t-5 -46.5z" />
<glyph unicode="&#xe9;" horiz-adv-x="1062" d="M68 551q0 225 122 371q123 147 373 147q219 0 326.5 -105t107.5 -294q0 -76 -22 -183h-627v-26q0 -130 78 -197t217 -67q173 0 301 43l23 -213q-195 -56 -361 -56q-246 0 -393 135q-145 139 -145 445zM287 1362l387 223l100 -227l-418 -156zM356 653h402q0 99 -48 156 t-139 57q-51 0 -90.5 -16.5t-62.5 -40t-37.5 -54.5t-19.5 -55.5t-5 -46.5z" />
<glyph unicode="&#xea;" horiz-adv-x="1062" d="M68 551q0 225 122 371q123 147 373 147q219 0 326.5 -105t107.5 -294q0 -76 -22 -183h-627v-26q0 -130 78 -197t217 -67q173 0 301 43l23 -213q-195 -56 -361 -56q-246 0 -393 135q-145 139 -145 445zM248 1317l227 244h152l227 -244l-131 -107l-172 174l-172 -174z M356 653h402q0 99 -48 156t-139 57q-51 0 -90.5 -16.5t-62.5 -40t-37.5 -54.5t-19.5 -55.5t-5 -46.5z" />
<glyph unicode="&#xeb;" horiz-adv-x="1062" d="M68 551q0 225 122 371q123 147 373 147q219 0 326.5 -105t107.5 -294q0 -76 -22 -183h-627v-26q0 -130 78 -197t217 -67q173 0 301 43l23 -213q-195 -56 -361 -56q-246 0 -393 135q-145 139 -145 445zM244 1262v247h248v-247h-248zM356 653h402q0 99 -48 156t-139 57 q-51 0 -90.5 -16.5t-62.5 -40t-37.5 -54.5t-19.5 -55.5t-5 -46.5zM621 1262v247h247v-247h-247z" />
<glyph unicode="&#xec;" horiz-adv-x="454" d="M-88 1358l100 227l387 -223l-69 -160zM98 0v1051h297l-2 -1051h-295z" />
<glyph unicode="&#xed;" horiz-adv-x="499" d="M74 1362l387 223l100 -227l-418 -156zM98 0v1051h297l-2 -1051h-295z" />
<glyph unicode="&#xee;" horiz-adv-x="489" d="M-57 1317l227 244h152l227 -244l-131 -107l-172 174l-172 -174zM98 0v1051h297l-2 -1051h-295z" />
<glyph unicode="&#xef;" horiz-adv-x="444" d="M-63 1262v247h247v-247h-247zM98 0v1051h297l-2 -1051h-295zM313 1262v247h248v-247h-248z" />
<glyph unicode="&#xf0;" horiz-adv-x="1067" d="M72 498q0 219 105.5 329.5t301.5 110.5q124 0 201 -45q-28 186 -133 272l-158 -153l-127 118l121 117q-100 38 -250 47l37 174q235 0 389 -51l141 144l123 -123l-100 -99q137 -94 201.5 -266t64.5 -446q0 -148 -22 -261.5t-60 -187t-94.5 -119.5t-120.5 -65t-143 -19 q-237 0 -359 146q-118 142 -118 377zM356 498q0 -285 185 -285q85 0 123 96q38 93 38 375q-65 33 -174 33q-172 -3 -172 -219z" />
<glyph unicode="&#xf1;" horiz-adv-x="1161" d="M109 0v952q275 121 538 121q173 0 285 -67q127 -76 127 -299v-707h-285v682q0 178 -172 178q-135 0 -209 -45v-815h-284zM221 1337q39 65 99 109.5t118 44.5q57 0 146 -45q90 -43 131 -43q52 0 112 72l101 -111q-38 -64 -100.5 -109t-120.5 -45q-57 0 -144 43 q-86 45 -129 45q-53 0 -112 -71z" />
<glyph unicode="&#xf2;" horiz-adv-x="1112" d="M68 520q0 289 120 419t369 130q254 0 370.5 -127.5t116.5 -419.5q0 -289 -121.5 -419t-377.5 -130q-244 0 -360.5 129t-116.5 418zM295 1358l100 227l387 -223l-69 -160zM350 520q0 -177 51 -252t154 -75q104 0 154.5 74.5t50.5 252.5q0 194 -51 260q-50 68 -152 68 q-103 0 -156 -68q-51 -66 -51 -260z" />
<glyph unicode="&#xf3;" horiz-adv-x="1112" d="M68 520q0 289 120 419t369 130q254 0 370.5 -127.5t116.5 -419.5q0 -289 -121.5 -419t-377.5 -130q-244 0 -360.5 129t-116.5 418zM313 1362l387 223l101 -227l-418 -156zM350 520q0 -177 51 -252t154 -75q104 0 154.5 74.5t50.5 252.5q0 194 -51 260q-50 68 -152 68 q-103 0 -156 -68q-51 -66 -51 -260z" />
<glyph unicode="&#xf4;" horiz-adv-x="1112" d="M68 520q0 289 120 419t369 130q254 0 370.5 -127.5t116.5 -419.5q0 -289 -121.5 -419t-377.5 -130q-244 0 -360.5 129t-116.5 418zM254 1317l227 244h152l227 -244l-131 -107l-172 174l-172 -174zM350 520q0 -177 51 -252t154 -75q104 0 154.5 74.5t50.5 252.5 q0 194 -51 260q-50 68 -152 68q-103 0 -156 -68q-51 -66 -51 -260z" />
<glyph unicode="&#xf5;" horiz-adv-x="1112" d="M68 520q0 289 120 419t369 130q254 0 370.5 -127.5t116.5 -419.5q0 -289 -121.5 -419t-377.5 -130q-244 0 -360.5 129t-116.5 418zM205 1337q39 65 99 109.5t118 44.5q56 0 145 -45q90 -43 131 -43q53 0 113 72l100 -111q-38 -64 -100.5 -109t-120.5 -45q-56 0 -143 43 q-86 45 -129 45q-54 0 -113 -71zM350 520q0 -177 51 -252t154 -75q104 0 154.5 74.5t50.5 252.5q0 194 -51 260q-50 68 -152 68q-103 0 -156 -68q-51 -66 -51 -260z" />
<glyph unicode="&#xf6;" horiz-adv-x="1112" d="M68 520q0 289 120 419t369 130q254 0 370.5 -127.5t116.5 -419.5q0 -289 -121.5 -419t-377.5 -130q-244 0 -360.5 129t-116.5 418zM231 1262v247h248v-247h-248zM350 520q0 -177 51 -252t154 -75q104 0 154.5 74.5t50.5 252.5q0 194 -51 260q-50 68 -152 68 q-103 0 -156 -68q-51 -66 -51 -260zM608 1262v247h248v-247h-248z" />
<glyph unicode="&#xf7;" horiz-adv-x="1099" d="M82 457v223h936v-223h-936zM416 242q0 54 40 90.5t97 36.5q54 0 91.5 -36.5t37.5 -90.5q0 -56 -37.5 -97t-91.5 -41q-57 0 -97 41t-40 97zM416 899q0 54 40 90.5t97 36.5q54 0 91.5 -36.5t37.5 -90.5q0 -56 -37.5 -96.5t-91.5 -40.5q-57 0 -97 40.5t-40 96.5z" />
<glyph unicode="&#xf8;" horiz-adv-x="1112" d="M68 520q0 289 120 419t369 130q94 0 154 -14l84 174l161 -74l-82 -168q170 -120 170 -465q0 -289 -121.5 -419t-377.5 -130q-87 0 -152 15l-69 -148l-170 68l73 153q-159 126 -159 459zM350 520q0 -92 17 -172l241 496q-46 4 -51 4q-103 0 -156 -68q-51 -66 -51 -260z M496 199q27 -6 59 -6q104 0 154.5 74.5t50.5 252.5q0 110 -21 187z" />
<glyph unicode="&#xf9;" horiz-adv-x="1157" d="M109 362v689h286v-666q0 -98 48 -140t145 -48q100 0 180 22v832h287v-981q-251 -88 -523 -88q-183 0 -305 90q-118 87 -118 290zM289 1358l100 227l387 -223l-69 -160z" />
<glyph unicode="&#xfa;" horiz-adv-x="1157" d="M109 362v689h286v-666q0 -98 48 -140t145 -48q100 0 180 22v832h287v-981q-251 -88 -523 -88q-183 0 -305 90q-118 87 -118 290zM367 1362l387 223l100 -227l-418 -156z" />
<glyph unicode="&#xfb;" horiz-adv-x="1157" d="M109 362v689h286v-666q0 -98 48 -140t145 -48q100 0 180 22v832h287v-981q-251 -88 -523 -88q-183 0 -305 90q-118 87 -118 290zM272 1317l228 244h151l228 -244l-131 -107l-173 174l-172 -174z" />
<glyph unicode="&#xfc;" horiz-adv-x="1157" d="M109 362v689h286v-666q0 -98 48 -140t145 -48q100 0 180 22v832h287v-981q-251 -88 -523 -88q-183 0 -305 90q-118 87 -118 290zM260 1262v247h248v-247h-248zM637 1262v247h248v-247h-248z" />
<glyph unicode="&#xfd;" horiz-adv-x="1032" d="M-16 1051h280l244 -820l217 820h283l-312 -969q-95 -299 -207 -414q-113 -119 -299 -119q-111 0 -196 31l31 205q47 -18 116 -18q108 0 181.5 63t93.5 170h-92zM301 1362l387 223l100 -227l-417 -156z" />
<glyph unicode="&#xfe;" horiz-adv-x="1177" d="M106 -432v1868h295v-412q158 45 281 45q204 0 316 -121t112 -373q0 -299 -130.5 -450.5t-406.5 -151.5q-99 0 -170 19v-424h-297zM401 215q63 -14 127 -14q154 0 219.5 82.5t65.5 248.5q0 314 -225 314q-103 0 -187 -37v-594z" />
<glyph unicode="&#xff;" horiz-adv-x="1032" d="M-16 1051h280l244 -820l217 820h283l-312 -969q-95 -299 -207 -414q-113 -119 -299 -119q-111 0 -196 31l31 205q47 -18 116 -18q108 0 181.5 63t93.5 170h-92zM195 1262v247h247v-247h-247zM571 1262v247h248v-247h-248z" />
<glyph unicode="&#x152;" horiz-adv-x="2009" d="M80 684q0 239 67 403q131 306 531 306q149 0 315 -25h910v-235h-621v-310h586v-229h-586v-356h641v-238h-934q-166 -25 -317 -25q-138 0 -248 39t-176 105q-60 60 -103 160q-37 93 -51 186.5t-14 218.5zM373 684q0 -248 85.5 -366.5t270.5 -118.5q148 0 291 41v895 q-110 39 -289 39q-189 0 -273.5 -118.5t-84.5 -371.5z" />
<glyph unicode="&#x153;" horiz-adv-x="1751" d="M68 520q0 289 120 419t369 130q126 0 209.5 -37.5t142.5 -124.5q116 162 342 162q219 0 327 -105t108 -294q0 -78 -23 -181h-627v-28q0 -130 78 -197t217 -67q173 0 301 43l23 -213q-195 -56 -361 -56q-257 0 -389 170q-61 -90 -146 -129t-214 -39q-244 0 -360.5 129 t-116.5 418zM350 520q0 -177 51 -252t154 -75q104 0 154.5 74.5t50.5 252.5q0 192 -53 260t-150 68q-105 0 -158 -68q-49 -64 -49 -260zM1044 653h402q0 99 -48 156t-138 57q-51 0 -90.5 -16.5t-62.5 -40.5t-38 -54.5t-20 -55t-5 -46.5z" />
<glyph unicode="&#x178;" horiz-adv-x="1214" d="M-16 1368h311l313 -584l314 584h309l-471 -827v-541h-303v541zM303 1505v248h248v-248h-248zM680 1505v248h248v-248h-248z" />
<glyph unicode="&#x2c6;" horiz-adv-x="778" d="M86 1317l227 244h152l227 -244l-131 -107l-172 174l-172 -174z" />
<glyph unicode="&#x2dc;" horiz-adv-x="970" d="M135 1337q39 65 99 109.5t118 44.5q57 0 146 -45q90 -43 131 -43q52 0 112 72l101 -111q-38 -64 -100.5 -109t-120.5 -45q-57 0 -144 43q-86 45 -129 45q-53 0 -112 -71z" />
<glyph unicode="&#x2000;" horiz-adv-x="944" />
<glyph unicode="&#x2001;" horiz-adv-x="1888" />
<glyph unicode="&#x2002;" horiz-adv-x="944" />
<glyph unicode="&#x2003;" horiz-adv-x="1888" />
<glyph unicode="&#x2004;" horiz-adv-x="629" />
<glyph unicode="&#x2005;" horiz-adv-x="472" />
<glyph unicode="&#x2006;" horiz-adv-x="314" />
<glyph unicode="&#x2007;" horiz-adv-x="314" />
<glyph unicode="&#x2008;" horiz-adv-x="236" />
<glyph unicode="&#x2009;" horiz-adv-x="377" />
<glyph unicode="&#x200a;" horiz-adv-x="104" />
<glyph unicode="&#x2010;" d="M104 457v223h834v-223h-834z" />
<glyph unicode="&#x2011;" d="M104 457v223h834v-223h-834z" />
<glyph unicode="&#x2012;" d="M104 457v223h834v-223h-834z" />
<glyph unicode="&#x2013;" horiz-adv-x="1144" d="M104 457v223h936v-223h-936z" />
<glyph unicode="&#x2014;" horiz-adv-x="1452" d="M104 457v223h1244v-223h-1244z" />
<glyph unicode="&#x2018;" horiz-adv-x="452" d="M84 1092q0 213 182 383h211q-168 -192 -168 -353q0 -66 35 -147h-235q-25 55 -25 117z" />
<glyph unicode="&#x2019;" horiz-adv-x="520" d="M66 932q167 191 167 352q0 70 -34 148h235q25 -55 25 -117q0 -212 -183 -383h-210z" />
<glyph unicode="&#x201a;" horiz-adv-x="446" d="M-41 -262q168 192 168 352q0 67 -35 148h236q24 -52 24 -117q0 -213 -182 -383h-211z" />
<glyph unicode="&#x201c;" horiz-adv-x="841" d="M84 1092q0 213 182 383h211q-168 -192 -168 -353q0 -66 35 -147h-235q-25 55 -25 117zM473 1092q0 213 182 383h211q-168 -192 -168 -353q0 -66 35 -147h-235q-25 55 -25 117z" />
<glyph unicode="&#x201d;" horiz-adv-x="909" d="M66 932q167 191 167 352q0 70 -34 148h235q25 -55 25 -117q0 -212 -183 -383h-210zM455 932q168 192 168 352q0 67 -35 148h235q25 -55 25 -117q0 -213 -182 -383h-211z" />
<glyph unicode="&#x201e;" horiz-adv-x="835" d="M-41 -262q168 192 168 352q0 67 -35 148h236q24 -52 24 -117q0 -213 -182 -383h-211zM348 -262q168 192 168 352q0 67 -35 148h236q24 -52 24 -117q0 -213 -182 -383h-211z" />
<glyph unicode="&#x2022;" horiz-adv-x="731" d="M127 643q0 102 69 171t169 69q103 0 171 -68.5t68 -171.5t-68 -171.5t-171 -68.5q-100 0 -169 69t-69 171z" />
<glyph unicode="&#x2026;" horiz-adv-x="1398" d="M80 0v293h295v-293h-295zM557 0v293h295v-293h-295zM1026 0v293h295v-293h-295z" />
<glyph unicode="&#x202f;" horiz-adv-x="377" />
<glyph unicode="&#x2039;" horiz-adv-x="675" d="M72 510v121l360 379l168 -144l-287 -297l287 -290l-168 -150z" />
<glyph unicode="&#x203a;" horiz-adv-x="675" d="M76 279l286 290l-286 297l168 144l360 -379v-121l-360 -381z" />
<glyph unicode="&#x205f;" horiz-adv-x="472" />
<glyph unicode="&#x20ac;" horiz-adv-x="1232" d="M68 465v151h145q-2 14 -2 72q0 66 2 84h-145v152h168q41 172 139 276q95 104 211 147.5t264 43.5q163 0 321 -45l-49 -211q-126 22 -225 22q-274 0 -344 -233h311v-152h-338q-2 -16 -2 -78t2 -78h338v-151h-313q76 -248 358 -248q119 0 228 16l20 -223q-167 -37 -328 -37 q-155 0 -275.5 50t-206 161.5t-118.5 280.5h-161z" />
<glyph unicode="&#x2122;" horiz-adv-x="1628" d="M90 1237v131h569v-131h-204v-639h-164v639h-201zM739 598l43 770h181l167 -496l166 496h181l45 -770h-154l-20 551l-158 -455h-119l-160 455l-18 -551h-154z" />
<glyph unicode="&#x25fc;" horiz-adv-x="1054" d="M0 0v1055h1055v-1055h-1055z" />
</font>
</defs>
</svg>
